<svg width="456" height="35" viewBox="0 0 456 35" fill="none" xmlns="http://www.w3.org/2000/svg">
<path d="M15.74 2.236V6.016H24.956V2.236H15.74ZM0.512 16.024V19.84H30.536V16.024H0.512ZM13.724 10.192V17.644H18.44V10.192H13.724ZM23.012 2.236V4.324C23.012 6.592 23.012 9.4 21.968 13.432L26.612 13.972C27.656 9.868 27.656 6.664 27.656 4.324V2.236H23.012ZM3.716 22.468V26.284H22.004V34.06H26.792V22.468H3.716ZM2.888 2.236V6.016H10.844V2.236H2.888ZM8.576 2.236V3.676C8.576 5.656 8.576 8.644 6.884 13.36L11.492 14.008C13.22 9.4 13.22 5.836 13.22 3.676V2.236H8.576ZM63.5564 0.868V17.932H68.3804V0.868H63.5564ZM45.8084 19.264V22.936H63.6284V24.844H45.8804V32.296H50.5964V28.264H68.3804V19.264H45.8084ZM45.8804 30.28V33.988H69.2804V30.28H45.8804ZM42.0284 2.884V6.556H59.9924V2.884H42.0284ZM41.6324 17.356C47.3924 17.32 54.8804 17.176 61.4684 16.096L61.2164 12.676C54.7724 13.468 46.9964 13.576 41.1644 13.576L41.6324 17.356ZM44.6564 4.54V15.448H49.2284V4.54H44.6564ZM52.7204 4.54V15.448H57.3644V4.54H52.7204ZM80.3656 17.788V27.148H85.1176V17.788H80.3656ZM92.4616 17.788V27.148H97.2496V17.788H92.4616ZM73.7416 26.464V30.352H103.91V26.464H73.7416ZM88.7896 2.488C81.5896 2.488 76.3336 6.016 76.3336 11.452C76.3336 16.888 81.5896 20.38 88.7896 20.38C95.9536 20.38 101.246 16.888 101.246 11.452C101.246 6.016 95.9536 2.488 88.7896 2.488ZM88.7896 6.232C93.4336 6.232 96.5296 8.14 96.5296 11.452C96.5296 14.728 93.4336 16.672 88.7896 16.672C84.1456 16.672 81.0496 14.728 81.0496 11.452C81.0496 8.14 84.1456 6.232 88.7896 6.232ZM135.238 0.868V34.204H139.99V0.868H135.238ZM138.91 13.864V17.86H144.814V13.864H138.91ZM113.71 5.8V9.616H133.114V5.8H113.71ZM123.466 11.488C118.606 11.488 115.006 14.8 115.006 19.444C115.006 24.088 118.606 27.4 123.466 27.4C128.326 27.4 131.926 24.088 131.926 19.444C131.926 14.8 128.326 11.488 123.466 11.488ZM123.466 15.376C125.734 15.376 127.354 16.888 127.354 19.444C127.354 22 125.734 23.512 123.466 23.512C121.198 23.512 119.578 22 119.578 19.444C119.578 16.888 121.198 15.376 123.466 15.376ZM121.054 1.408V7.24H125.842V1.408H121.054ZM154.999 6.124V9.868C154.999 15.52 152.299 21.676 146.719 24.16L149.419 27.94C155.683 25.096 158.815 17.572 158.815 9.868V6.124H154.999ZM156.079 6.124V9.868C156.079 17.284 159.175 24.376 165.511 27.112L168.103 23.332C162.523 21.028 159.859 15.268 159.859 9.868V6.124H156.079ZM148.051 4.072V7.996H166.735V4.072H148.051ZM169.831 0.868V34.204H174.655V0.868H169.831ZM181.06 3.604V19.696H196.936V3.604H181.06ZM192.22 7.384V15.916H185.776V7.384H192.22ZM201.544 0.868V25.168H206.332V0.868H201.544ZM204.964 10.48V14.404H210.76V10.48H204.964ZM184.84 29.812V33.628H207.52V29.812H184.84ZM184.84 22.792V31.72H189.628V22.792H184.84ZM223.693 2.812V6.592H244.609V2.812H223.693ZM220.273 16.996V20.848H250.405V16.996H220.273ZM232.765 19.696V34.24H237.589V19.696H232.765ZM242.161 2.812V5.764C242.161 9.22 242.161 13.18 240.865 18.76L245.581 19.3C246.877 13.396 246.877 9.364 246.877 5.764V2.812H242.161ZM274.738 0.868V34.204H279.49V0.868H274.738ZM278.41 13.864V17.86H284.314V13.864H278.41ZM253.21 5.8V9.616H272.614V5.8H253.21ZM262.966 11.488C258.106 11.488 254.506 14.8 254.506 19.444C254.506 24.088 258.106 27.4 262.966 27.4C267.826 27.4 271.426 24.088 271.426 19.444C271.426 14.8 267.826 11.488 262.966 11.488ZM262.966 15.376C265.234 15.376 266.854 16.888 266.854 19.444C266.854 22 265.234 23.512 262.966 23.512C260.698 23.512 259.078 22 259.078 19.444C259.078 16.888 260.698 15.376 262.966 15.376ZM260.554 1.408V7.24H265.342V1.408H260.554ZM309.439 0.868V34.204H314.263V0.868H309.439ZM299.611 4.324V5.188C299.611 14.116 296.155 20.164 286.579 24.772L289.063 28.588C300.907 22.864 304.363 14.512 304.363 4.324H299.611ZM288.343 4.324V8.104H301.879V4.324H288.343ZM335.764 3.172C330.76 3.172 327.16 7.78 327.16 15.052C327.16 22.396 330.76 27.004 335.764 27.004C340.732 27.004 344.368 22.396 344.368 15.052C344.368 7.78 340.732 3.172 335.764 3.172ZM335.764 7.528C338.212 7.528 339.796 10.156 339.796 15.052C339.796 20.02 338.212 22.684 335.764 22.684C333.352 22.684 331.732 20.02 331.732 15.052C331.732 10.156 333.352 7.528 335.764 7.528ZM349.84 0.831998V34.276H354.592V0.831998H349.84ZM342.964 12.856V16.708H351.856V12.856H342.964ZM382.849 0.831998V34.276H387.637V0.831998H382.849ZM377.377 7.924V11.776H383.641V7.924H377.377ZM360.889 22.936V26.86H363.517C368.593 26.86 372.841 26.752 377.737 25.996L377.341 22.108C372.553 22.828 368.449 22.936 363.517 22.936H360.889ZM360.817 3.64V7.456H371.005V12.784H360.889V23.8H365.641V16.564H375.721V3.64H360.817ZM377.305 16.996V20.848H383.569V16.996H377.305ZM405.49 16.744V21.388H410.278V16.744H405.49ZM407.938 1.192C400.306 1.192 395.878 3.172 395.878 6.844C395.878 10.516 400.306 12.532 407.938 12.532C415.534 12.532 419.998 10.516 419.998 6.844C419.998 3.172 415.534 1.192 407.938 1.192ZM407.938 4.684C412.762 4.684 415.03 5.368 415.03 6.844C415.03 8.392 412.762 9.04 407.938 9.04C403.114 9.04 400.846 8.392 400.846 6.844C400.846 5.368 403.114 4.684 407.938 4.684ZM392.854 13.972V17.752H422.986V13.972H392.854ZM396.31 19.912V23.476H414.634V25.168H396.346V31.432H401.062V28.48H419.35V19.912H396.31ZM396.346 30.388V33.988H420.214V30.388H396.346ZM443.791 1.372V32.692H448.147V1.372H443.791ZM446.383 13.756V17.608H452.251V13.756H446.383ZM426.511 22.252V26.176H428.023C429.751 26.176 431.515 26.14 433.891 25.6L433.567 21.712C431.335 22.216 429.607 22.252 428.023 22.252H426.511ZM426.511 4.828V24.376H430.867V8.644H433.531V4.828H426.511ZM434.791 22.252V26.176H436.339C438.355 26.176 440.299 26.14 442.783 25.564L442.459 21.676C440.083 22.216 438.211 22.252 436.339 22.252H434.791ZM434.791 4.828V24.34H439.075V8.644H442.063V4.828H434.791ZM450.559 0.868V34.204H455.059V0.868H450.559Z" fill="black"/>
</svg>
