<svg width="492" height="35" viewBox="0 0 492 35" fill="none" xmlns="http://www.w3.org/2000/svg">
<path d="M17.468 7.96V11.812H25.208V7.96H17.468ZM8.072 2.92V6.52C8.072 11.236 5.768 15.844 0.26 17.68L2.78 21.424C9.08 19.12 11.924 13.324 11.924 6.52V2.92H8.072ZM9.116 2.92V6.556C9.116 12.856 11.852 18.436 17.828 20.596L20.384 16.924C15.128 15.124 12.932 10.84 12.932 6.556V2.92H9.116ZM23.552 0.903999V25.492H28.34V0.903999H23.552ZM6.272 29.812V33.628H29.06V29.812H6.272ZM6.272 23.008V31.936H11.096V23.008H6.272ZM46.1932 16.888V21.532H50.9812V16.888H46.1932ZM33.5572 14.08V17.824H63.6892V14.08H33.5572ZM37.2652 1.84V12.316H59.8732V1.84H37.2652ZM55.1572 5.548V8.644H41.9812V5.548H55.1572ZM37.0132 19.912V23.476H55.3372V25.168H37.0492V31.432H41.7652V28.48H60.0532V19.912H37.0132ZM37.0492 30.388V33.988H60.9172V30.388H37.0492ZM95.1616 0.868V20.308H99.9496V0.868H95.1616ZM98.6176 8.428V12.352H104.378V8.428H98.6176ZM74.6776 2.812V18.688H90.6976V2.812H85.9456V7.024H79.4296V2.812H74.6776ZM79.4296 10.696H85.9456V14.944H79.4296V10.696ZM78.2776 21.784V32.728H83.0656V25.564H100.13V21.784H78.2776ZM78.2776 30.028V33.808H100.778V30.028H78.2776ZM116.111 2.632C110.963 2.632 107.039 5.98 107.039 10.696C107.039 15.412 110.963 18.796 116.111 18.796C121.259 18.796 125.183 15.412 125.183 10.696C125.183 5.98 121.259 2.632 116.111 2.632ZM116.111 6.628C118.631 6.628 120.503 8.14 120.503 10.696C120.503 13.288 118.631 14.764 116.111 14.764C113.591 14.764 111.719 13.288 111.719 10.696C111.719 8.14 113.591 6.628 116.111 6.628ZM128.279 0.868V19.48H133.067V0.868H128.279ZM131.735 7.996V11.884H137.495V7.996H131.735ZM113.879 20.884V22.108C113.879 25.384 112.079 28.768 107.723 30.316L110.099 33.808C115.283 31.9 117.443 27.22 117.443 22.108V20.884H113.879ZM115.067 20.884V22.108C115.067 27.076 116.975 32.116 122.267 34.132L124.247 30.604C120.107 28.876 118.523 25.42 118.523 22.108V20.884H115.067ZM126.011 20.884V22.108C126.011 25.096 124.391 28.732 120.287 30.604L122.267 34.132C127.523 32.044 129.467 26.752 129.467 22.108V20.884H126.011ZM127.127 20.884V22.108C127.127 27.436 129.251 31.936 134.507 33.808L136.847 30.316C132.491 28.876 130.727 25.636 130.727 22.108V20.884H127.127ZM143.684 9.868V13.648H166.796V9.868H143.684ZM139.94 17.104V20.92H170.144V17.104H139.94ZM143.684 2.056V11.74H148.436V2.056H143.684ZM143.36 29.668V33.484H166.976V29.668H143.36ZM143.36 23.584V30.676H148.148V23.584H143.36ZM197.141 0.868V34.204H201.713V0.868H197.141ZM184.469 13.036V16.888H192.209V13.036H184.469ZM190.265 1.444V32.728H194.729V1.444H190.265ZM174.029 22.864V26.824H176.333C181.193 26.824 184.505 26.68 188.213 25.924L187.853 22.036C184.181 22.756 181.049 22.864 176.333 22.864H174.029ZM174.029 4.612V24.52H178.745V8.428H186.737V4.612H174.029ZM220.694 3.424V8.284C220.694 14.476 218.138 20.884 212.522 23.512L215.402 27.364C221.702 24.268 224.582 16.528 224.582 8.284V3.424H220.694ZM221.666 3.424V8.284C221.666 16.276 224.294 23.692 230.306 26.752L233.186 22.936C227.858 20.344 225.482 14.26 225.482 8.284V3.424H221.666ZM234.518 0.868V34.204H239.342V0.868H234.518ZM238.262 13.684V17.68H244.166V13.684H238.262ZM253.091 12.028V18.148H257.879V12.028H253.091ZM264.827 12.028V18.148H269.579V12.028H264.827ZM246.323 16.672V20.452H276.455V16.672H246.323ZM261.335 22.144C254.099 22.144 249.743 24.304 249.743 28.156C249.743 32.044 254.099 34.204 261.335 34.204C268.535 34.204 272.891 32.044 272.891 28.156C272.891 24.304 268.535 22.144 261.335 22.144ZM261.335 25.744C265.799 25.744 268.067 26.5 268.067 28.156C268.067 29.848 265.799 30.604 261.335 30.604C256.871 30.604 254.603 29.848 254.603 28.156C254.603 26.5 256.871 25.744 261.335 25.744ZM261.407 1.336C254.027 1.336 249.347 3.784 249.347 7.78C249.347 11.74 254.027 14.116 261.407 14.116C268.751 14.116 273.467 11.74 273.467 7.78C273.467 3.784 268.751 1.336 261.407 1.336ZM261.407 5.008C265.979 5.008 268.535 5.908 268.535 7.78C268.535 9.616 265.979 10.516 261.407 10.516C256.835 10.516 254.279 9.616 254.279 7.78C254.279 5.908 256.835 5.008 261.407 5.008ZM300.824 0.868V34.204H305.576V0.868H300.824ZM304.496 13.864V17.86H310.4V13.864H304.496ZM279.296 5.8V9.616H298.7V5.8H279.296ZM289.052 11.488C284.192 11.488 280.592 14.8 280.592 19.444C280.592 24.088 284.192 27.4 289.052 27.4C293.912 27.4 297.512 24.088 297.512 19.444C297.512 14.8 293.912 11.488 289.052 11.488ZM289.052 15.376C291.32 15.376 292.94 16.888 292.94 19.444C292.94 22 291.32 23.512 289.052 23.512C286.784 23.512 285.164 22 285.164 19.444C285.164 16.888 286.784 15.376 289.052 15.376ZM286.64 1.408V7.24H291.428V1.408H286.64ZM335.525 0.868V34.204H340.349V0.868H335.525ZM325.697 4.324V5.188C325.697 14.116 322.241 20.164 312.665 24.772L315.149 28.588C326.993 22.864 330.449 14.512 330.449 4.324H325.697ZM314.429 4.324V8.104H327.965V4.324H314.429ZM360.194 3.208C355.802 3.208 352.994 7.78 352.994 15.304C352.994 22.864 355.802 27.436 360.194 27.436C364.622 27.436 367.466 22.864 367.466 15.304C367.466 7.78 364.622 3.208 360.194 3.208ZM360.194 7.708C362.03 7.708 363.074 10.228 363.074 15.304C363.074 20.416 362.03 22.9 360.194 22.9C358.394 22.9 357.35 20.416 357.35 15.304C357.35 10.228 358.394 7.708 360.194 7.708ZM376.79 0.868V34.204H381.362V0.868H376.79ZM372.794 13.576V17.428H378.302V13.576H372.794ZM369.482 1.372V32.692H373.982V1.372H369.482ZM409.907 0.868V34.204H414.479V0.868H409.907ZM405.911 13.576V17.428H411.419V13.576H405.911ZM402.599 1.372V32.692H407.099V1.372H402.599ZM386.759 4.288V25.888H399.935V4.288H386.759ZM395.471 8.032V22.144H391.223V8.032H395.471ZM440.396 0.831998V18.832H445.184V0.831998H440.396ZM443.276 7.96V11.848H449.612V7.96H443.276ZM423.152 20.164V23.62H440.468V25.384H423.224V31.648H427.976V28.624H445.184V20.164H423.152ZM423.224 30.46V33.988H446.156V30.46H423.224ZM418.94 3.316V6.916H438.56V3.316H418.94ZM428.768 7.708C423.8 7.708 420.56 9.832 420.56 13.18C420.56 16.528 423.8 18.58 428.768 18.58C433.7 18.58 436.94 16.528 436.94 13.18C436.94 9.832 433.7 7.708 428.768 7.708ZM428.768 11.056C431 11.056 432.368 11.776 432.368 13.18C432.368 14.512 431 15.232 428.768 15.232C426.536 15.232 425.168 14.512 425.168 13.18C425.168 11.776 426.536 11.056 428.768 11.056ZM426.356 0.615999V5.872H431.144V0.615999H426.356ZM469.877 1.372V32.692H474.233V1.372H469.877ZM472.469 13.756V17.608H478.337V13.756H472.469ZM452.597 22.252V26.176H454.109C455.837 26.176 457.601 26.14 459.977 25.6L459.653 21.712C457.421 22.216 455.693 22.252 454.109 22.252H452.597ZM452.597 4.828V24.376H456.953V8.644H459.617V4.828H452.597ZM460.877 22.252V26.176H462.425C464.441 26.176 466.385 26.14 468.869 25.564L468.545 21.676C466.169 22.216 464.297 22.252 462.425 22.252H460.877ZM460.877 4.828V24.34H465.161V8.644H468.149V4.828H460.877ZM476.645 0.868V34.204H481.145V0.868H476.645ZM484.454 34.348C484.502 30.94 484.97 28.168 485.858 26.032C487.034 25.408 488.174 25.096 489.278 25.096C489.734 25.096 490.346 25.192 491.114 25.384C490.61 28.048 489.302 30.676 487.19 33.268C486.302 34.012 485.57 34.384 484.994 34.384C484.754 34.384 484.574 34.372 484.454 34.348Z" fill="black"/>
</svg>
