<svg width="1782" height="590" viewBox="0 0 1782 590" fill="none" xmlns="http://www.w3.org/2000/svg">
<rect width="1782" height="590" fill="#E1F3ED"/>
<rect x="285" y="458" width="164" height="63" rx="10" fill="#160E0C"/>
<path d="M322.64 480.26V498.78H325.3V480.26H322.64ZM319.06 487.36V489.52H323.92V487.36H319.06ZM316.56 482.18V482.66C316.56 487.56 314.82 490.92 309.58 493.52L310.98 495.6C317.4 492.38 319.18 487.8 319.18 482.18H316.56ZM310.46 482.18V484.28H317.96V482.18H310.46ZM328.698 492.5V494.7H329.998C332.258 494.7 334.258 494.64 336.618 494.24L336.418 492.1C334.138 492.46 332.198 492.5 329.998 492.5H328.698ZM328.678 482.06V484.18H333.118V487.12H328.698V493.3H331.278V489.22H335.698V482.06H328.678ZM341.578 480.26V498.78H344.098V480.26H341.578ZM339.098 487.26V489.38H342.178V487.26H339.098ZM337.438 480.58V497.9H339.898V480.58H337.438ZM358.477 480.26V498.78H361.117V480.26H358.477ZM360.517 487.48V489.7H363.797V487.48H360.517ZM346.517 483V485.12H357.297V483H346.517ZM351.937 486.16C349.237 486.16 347.237 488 347.237 490.58C347.237 493.16 349.237 495 351.937 495C354.637 495 356.637 493.16 356.637 490.58C356.637 488 354.637 486.16 351.937 486.16ZM351.937 488.32C353.197 488.32 354.097 489.16 354.097 490.58C354.097 492 353.197 492.84 351.937 492.84C350.677 492.84 349.777 492 349.777 490.58C349.777 489.16 350.677 488.32 351.937 488.32ZM350.597 480.56V483.8H353.257V480.56H350.597ZM377.755 480.26V498.78H380.435V480.26H377.755ZM372.295 482.18V482.66C372.295 487.62 370.375 490.98 365.055 493.54L366.435 495.66C373.015 492.48 374.935 487.84 374.935 482.18H372.295ZM366.035 482.18V484.28H373.555V482.18H366.035Z" fill="white"/>
<path d="M560.468 307.96V311.812H568.208V307.96H560.468ZM551.072 302.92V306.52C551.072 311.236 548.768 315.844 543.26 317.68L545.78 321.424C552.08 319.12 554.924 313.324 554.924 306.52V302.92H551.072ZM552.116 302.92V306.556C552.116 312.856 554.852 318.436 560.828 320.596L563.384 316.924C558.128 315.124 555.932 310.84 555.932 306.556V302.92H552.116ZM566.552 300.904V325.492H571.34V300.904H566.552ZM549.272 329.812V333.628H572.06V329.812H549.272ZM549.272 323.008V331.936H554.096V323.008H549.272ZM589.193 316.888V321.532H593.981V316.888H589.193ZM576.557 314.08V317.824H606.689V314.08H576.557ZM580.265 301.84V312.316H602.873V301.84H580.265ZM598.157 305.548V308.644H584.981V305.548H598.157ZM580.013 319.912V323.476H598.337V325.168H580.049V331.432H584.765V328.48H603.053V319.912H580.013ZM580.049 330.388V333.988H603.917V330.388H580.049ZM638.162 300.868V320.308H642.95V300.868H638.162ZM641.618 308.428V312.352H647.378V308.428H641.618ZM617.678 302.812V318.688H633.698V302.812H628.946V307.024H622.43V302.812H617.678ZM622.43 310.696H628.946V314.944H622.43V310.696ZM621.278 321.784V332.728H626.066V325.564H643.13V321.784H621.278ZM621.278 330.028V333.808H643.778V330.028H621.278ZM659.111 302.632C653.963 302.632 650.039 305.98 650.039 310.696C650.039 315.412 653.963 318.796 659.111 318.796C664.259 318.796 668.183 315.412 668.183 310.696C668.183 305.98 664.259 302.632 659.111 302.632ZM659.111 306.628C661.631 306.628 663.503 308.14 663.503 310.696C663.503 313.288 661.631 314.764 659.111 314.764C656.591 314.764 654.719 313.288 654.719 310.696C654.719 308.14 656.591 306.628 659.111 306.628ZM671.279 300.868V319.48H676.067V300.868H671.279ZM674.735 307.996V311.884H680.495V307.996H674.735ZM656.879 320.884V322.108C656.879 325.384 655.079 328.768 650.723 330.316L653.099 333.808C658.283 331.9 660.443 327.22 660.443 322.108V320.884H656.879ZM658.067 320.884V322.108C658.067 327.076 659.975 332.116 665.267 334.132L667.247 330.604C663.107 328.876 661.523 325.42 661.523 322.108V320.884H658.067ZM669.011 320.884V322.108C669.011 325.096 667.391 328.732 663.287 330.604L665.267 334.132C670.523 332.044 672.467 326.752 672.467 322.108V320.884H669.011ZM670.127 320.884V322.108C670.127 327.436 672.251 331.936 677.507 333.808L679.847 330.316C675.491 328.876 673.727 325.636 673.727 322.108V320.884H670.127ZM686.684 309.868V313.648H709.796V309.868H686.684ZM682.94 317.104V320.92H713.144V317.104H682.94ZM686.684 302.056V311.74H691.436V302.056H686.684ZM686.36 329.668V333.484H709.976V329.668H686.36ZM686.36 323.584V330.676H691.148V323.584H686.36ZM740.141 300.868V334.204H744.713V300.868H740.141ZM727.469 313.036V316.888H735.209V313.036H727.469ZM733.265 301.444V332.728H737.729V301.444H733.265ZM717.029 322.864V326.824H719.333C724.193 326.824 727.505 326.68 731.213 325.924L730.853 322.036C727.181 322.756 724.049 322.864 719.333 322.864H717.029ZM717.029 304.612V324.52H721.745V308.428H729.737V304.612H717.029ZM763.694 303.424V308.284C763.694 314.476 761.138 320.884 755.522 323.512L758.402 327.364C764.702 324.268 767.582 316.528 767.582 308.284V303.424H763.694ZM764.666 303.424V308.284C764.666 316.276 767.294 323.692 773.306 326.752L776.186 322.936C770.858 320.344 768.482 314.26 768.482 308.284V303.424H764.666ZM777.518 300.868V334.204H782.342V300.868H777.518ZM781.262 313.684V317.68H787.166V313.684H781.262ZM796.091 312.028V318.148H800.879V312.028H796.091ZM807.827 312.028V318.148H812.579V312.028H807.827ZM789.323 316.672V320.452H819.455V316.672H789.323ZM804.335 322.144C797.099 322.144 792.743 324.304 792.743 328.156C792.743 332.044 797.099 334.204 804.335 334.204C811.535 334.204 815.891 332.044 815.891 328.156C815.891 324.304 811.535 322.144 804.335 322.144ZM804.335 325.744C808.799 325.744 811.067 326.5 811.067 328.156C811.067 329.848 808.799 330.604 804.335 330.604C799.871 330.604 797.603 329.848 797.603 328.156C797.603 326.5 799.871 325.744 804.335 325.744ZM804.407 301.336C797.027 301.336 792.347 303.784 792.347 307.78C792.347 311.74 797.027 314.116 804.407 314.116C811.751 314.116 816.467 311.74 816.467 307.78C816.467 303.784 811.751 301.336 804.407 301.336ZM804.407 305.008C808.979 305.008 811.535 305.908 811.535 307.78C811.535 309.616 808.979 310.516 804.407 310.516C799.835 310.516 797.279 309.616 797.279 307.78C797.279 305.908 799.835 305.008 804.407 305.008ZM843.824 300.868V334.204H848.576V300.868H843.824ZM847.496 313.864V317.86H853.4V313.864H847.496ZM822.296 305.8V309.616H841.7V305.8H822.296ZM832.052 311.488C827.192 311.488 823.592 314.8 823.592 319.444C823.592 324.088 827.192 327.4 832.052 327.4C836.912 327.4 840.512 324.088 840.512 319.444C840.512 314.8 836.912 311.488 832.052 311.488ZM832.052 315.376C834.32 315.376 835.94 316.888 835.94 319.444C835.94 322 834.32 323.512 832.052 323.512C829.784 323.512 828.164 322 828.164 319.444C828.164 316.888 829.784 315.376 832.052 315.376ZM829.64 301.408V307.24H834.428V301.408H829.64ZM878.525 300.868V334.204H883.349V300.868H878.525ZM868.697 304.324V305.188C868.697 314.116 865.241 320.164 855.665 324.772L858.149 328.588C869.993 322.864 873.449 314.512 873.449 304.324H868.697ZM857.429 304.324V308.104H870.965V304.324H857.429ZM903.194 303.208C898.802 303.208 895.994 307.78 895.994 315.304C895.994 322.864 898.802 327.436 903.194 327.436C907.622 327.436 910.466 322.864 910.466 315.304C910.466 307.78 907.622 303.208 903.194 303.208ZM903.194 307.708C905.03 307.708 906.074 310.228 906.074 315.304C906.074 320.416 905.03 322.9 903.194 322.9C901.394 322.9 900.35 320.416 900.35 315.304C900.35 310.228 901.394 307.708 903.194 307.708ZM919.79 300.868V334.204H924.362V300.868H919.79ZM915.794 313.576V317.428H921.302V313.576H915.794ZM912.482 301.372V332.692H916.982V301.372H912.482ZM952.907 300.868V334.204H957.479V300.868H952.907ZM948.911 313.576V317.428H954.419V313.576H948.911ZM945.599 301.372V332.692H950.099V301.372H945.599ZM929.759 304.288V325.888H942.935V304.288H929.759ZM938.471 308.032V322.144H934.223V308.032H938.471ZM983.396 300.832V318.832H988.184V300.832H983.396ZM986.276 307.96V311.848H992.612V307.96H986.276ZM966.152 320.164V323.62H983.468V325.384H966.224V331.648H970.976V328.624H988.184V320.164H966.152ZM966.224 330.46V333.988H989.156V330.46H966.224ZM961.94 303.316V306.916H981.56V303.316H961.94ZM971.768 307.708C966.8 307.708 963.56 309.832 963.56 313.18C963.56 316.528 966.8 318.58 971.768 318.58C976.7 318.58 979.94 316.528 979.94 313.18C979.94 309.832 976.7 307.708 971.768 307.708ZM971.768 311.056C974 311.056 975.368 311.776 975.368 313.18C975.368 314.512 974 315.232 971.768 315.232C969.536 315.232 968.168 314.512 968.168 313.18C968.168 311.776 969.536 311.056 971.768 311.056ZM969.356 300.616V305.872H974.144V300.616H969.356ZM1012.88 301.372V332.692H1017.23V301.372H1012.88ZM1015.47 313.756V317.608H1021.34V313.756H1015.47ZM995.597 322.252V326.176H997.109C998.837 326.176 1000.6 326.14 1002.98 325.6L1002.65 321.712C1000.42 322.216 998.693 322.252 997.109 322.252H995.597ZM995.597 304.828V324.376H999.953V308.644H1002.62V304.828H995.597ZM1003.88 322.252V326.176H1005.43C1007.44 326.176 1009.39 326.14 1011.87 325.564L1011.55 321.676C1009.17 322.216 1007.3 322.252 1005.43 322.252H1003.88ZM1003.88 304.828V324.34H1008.16V308.644H1011.15V304.828H1003.88ZM1019.65 300.868V334.204H1024.15V300.868H1019.65ZM1027.45 334.348C1027.5 330.94 1027.97 328.168 1028.86 326.032C1030.03 325.408 1031.17 325.096 1032.28 325.096C1032.73 325.096 1033.35 325.192 1034.11 325.384C1033.61 328.048 1032.3 330.676 1030.19 333.268C1029.3 334.012 1028.57 334.384 1027.99 334.384C1027.75 334.384 1027.57 334.372 1027.45 334.348Z" fill="black"/>
<path d="M728.74 365.236V369.016H737.956V365.236H728.74ZM713.512 379.024V382.84H743.536V379.024H713.512ZM726.724 373.192V380.644H731.44V373.192H726.724ZM736.012 365.236V367.324C736.012 369.592 736.012 372.4 734.968 376.432L739.612 376.972C740.656 372.868 740.656 369.664 740.656 367.324V365.236H736.012ZM716.716 385.468V389.284H735.004V397.06H739.792V385.468H716.716ZM715.888 365.236V369.016H723.844V365.236H715.888ZM721.576 365.236V366.676C721.576 368.656 721.576 371.644 719.884 376.36L724.492 377.008C726.22 372.4 726.22 368.836 726.22 366.676V365.236H721.576ZM776.556 363.868V380.932H781.38V363.868H776.556ZM758.808 382.264V385.936H776.628V387.844H758.88V395.296H763.596V391.264H781.38V382.264H758.808ZM758.88 393.28V396.988H782.28V393.28H758.88ZM755.028 365.884V369.556H772.992V365.884H755.028ZM754.632 380.356C760.392 380.32 767.88 380.176 774.468 379.096L774.216 375.676C767.772 376.468 759.996 376.576 754.164 376.576L754.632 380.356ZM757.656 367.54V378.448H762.228V367.54H757.656ZM765.72 367.54V378.448H770.364V367.54H765.72ZM793.366 380.788V390.148H798.118V380.788H793.366ZM805.462 380.788V390.148H810.25V380.788H805.462ZM786.742 389.464V393.352H816.91V389.464H786.742ZM801.79 365.488C794.59 365.488 789.334 369.016 789.334 374.452C789.334 379.888 794.59 383.38 801.79 383.38C808.954 383.38 814.246 379.888 814.246 374.452C814.246 369.016 808.954 365.488 801.79 365.488ZM801.79 369.232C806.434 369.232 809.53 371.14 809.53 374.452C809.53 377.728 806.434 379.672 801.79 379.672C797.146 379.672 794.05 377.728 794.05 374.452C794.05 371.14 797.146 369.232 801.79 369.232ZM848.238 363.868V397.204H852.99V363.868H848.238ZM851.91 376.864V380.86H857.814V376.864H851.91ZM826.71 368.8V372.616H846.114V368.8H826.71ZM836.466 374.488C831.606 374.488 828.006 377.8 828.006 382.444C828.006 387.088 831.606 390.4 836.466 390.4C841.326 390.4 844.926 387.088 844.926 382.444C844.926 377.8 841.326 374.488 836.466 374.488ZM836.466 378.376C838.734 378.376 840.354 379.888 840.354 382.444C840.354 385 838.734 386.512 836.466 386.512C834.198 386.512 832.578 385 832.578 382.444C832.578 379.888 834.198 378.376 836.466 378.376ZM834.054 364.408V370.24H838.842V364.408H834.054ZM867.999 369.124V372.868C867.999 378.52 865.299 384.676 859.719 387.16L862.419 390.94C868.683 388.096 871.815 380.572 871.815 372.868V369.124H867.999ZM869.079 369.124V372.868C869.079 380.284 872.175 387.376 878.511 390.112L881.103 386.332C875.523 384.028 872.859 378.268 872.859 372.868V369.124H869.079ZM861.051 367.072V370.996H879.735V367.072H861.051ZM882.831 363.868V397.204H887.655V363.868H882.831ZM894.06 366.604V382.696H909.936V366.604H894.06ZM905.22 370.384V378.916H898.776V370.384H905.22ZM914.544 363.868V388.168H919.332V363.868H914.544ZM917.964 373.48V377.404H923.76V373.48H917.964ZM897.84 392.812V396.628H920.52V392.812H897.84ZM897.84 385.792V394.72H902.628V385.792H897.84ZM936.693 365.812V369.592H957.609V365.812H936.693ZM933.273 379.996V383.848H963.405V379.996H933.273ZM945.765 382.696V397.24H950.589V382.696H945.765ZM955.161 365.812V368.764C955.161 372.22 955.161 376.18 953.865 381.76L958.581 382.3C959.877 376.396 959.877 372.364 959.877 368.764V365.812H955.161ZM987.738 363.868V397.204H992.49V363.868H987.738ZM991.41 376.864V380.86H997.314V376.864H991.41ZM966.21 368.8V372.616H985.614V368.8H966.21ZM975.966 374.488C971.106 374.488 967.506 377.8 967.506 382.444C967.506 387.088 971.106 390.4 975.966 390.4C980.826 390.4 984.426 387.088 984.426 382.444C984.426 377.8 980.826 374.488 975.966 374.488ZM975.966 378.376C978.234 378.376 979.854 379.888 979.854 382.444C979.854 385 978.234 386.512 975.966 386.512C973.698 386.512 972.078 385 972.078 382.444C972.078 379.888 973.698 378.376 975.966 378.376ZM973.554 364.408V370.24H978.342V364.408H973.554ZM1022.44 363.868V397.204H1027.26V363.868H1022.44ZM1012.61 367.324V368.188C1012.61 377.116 1009.16 383.164 999.579 387.772L1002.06 391.588C1013.91 385.864 1017.36 377.512 1017.36 367.324H1012.61ZM1001.34 367.324V371.104H1014.88V367.324H1001.34ZM1048.76 366.172C1043.76 366.172 1040.16 370.78 1040.16 378.052C1040.16 385.396 1043.76 390.004 1048.76 390.004C1053.73 390.004 1057.37 385.396 1057.37 378.052C1057.37 370.78 1053.73 366.172 1048.76 366.172ZM1048.76 370.528C1051.21 370.528 1052.8 373.156 1052.8 378.052C1052.8 383.02 1051.21 385.684 1048.76 385.684C1046.35 385.684 1044.73 383.02 1044.73 378.052C1044.73 373.156 1046.35 370.528 1048.76 370.528ZM1062.84 363.832V397.276H1067.59V363.832H1062.84ZM1055.96 375.856V379.708H1064.86V375.856H1055.96ZM1095.85 363.832V397.276H1100.64V363.832H1095.85ZM1090.38 370.924V374.776H1096.64V370.924H1090.38ZM1073.89 385.936V389.86H1076.52C1081.59 389.86 1085.84 389.752 1090.74 388.996L1090.34 385.108C1085.55 385.828 1081.45 385.936 1076.52 385.936H1073.89ZM1073.82 366.64V370.456H1084V375.784H1073.89V386.8H1078.64V379.564H1088.72V366.64H1073.82ZM1090.3 379.996V383.848H1096.57V379.996H1090.3ZM1118.49 379.744V384.388H1123.28V379.744H1118.49ZM1120.94 364.192C1113.31 364.192 1108.88 366.172 1108.88 369.844C1108.88 373.516 1113.31 375.532 1120.94 375.532C1128.53 375.532 1133 373.516 1133 369.844C1133 366.172 1128.53 364.192 1120.94 364.192ZM1120.94 367.684C1125.76 367.684 1128.03 368.368 1128.03 369.844C1128.03 371.392 1125.76 372.04 1120.94 372.04C1116.11 372.04 1113.85 371.392 1113.85 369.844C1113.85 368.368 1116.11 367.684 1120.94 367.684ZM1105.85 376.972V380.752H1135.99V376.972H1105.85ZM1109.31 382.912V386.476H1127.63V388.168H1109.35V394.432H1114.06V391.48H1132.35V382.912H1109.31ZM1109.35 393.388V396.988H1133.21V393.388H1109.35ZM1156.79 364.372V395.692H1161.15V364.372H1156.79ZM1159.38 376.756V380.608H1165.25V376.756H1159.38ZM1139.51 385.252V389.176H1141.02C1142.75 389.176 1144.52 389.14 1146.89 388.6L1146.57 384.712C1144.34 385.216 1142.61 385.252 1141.02 385.252H1139.51ZM1139.51 367.828V387.376H1143.87V371.644H1146.53V367.828H1139.51ZM1147.79 385.252V389.176H1149.34C1151.36 389.176 1153.3 389.14 1155.78 388.564L1155.46 384.676C1153.08 385.216 1151.21 385.252 1149.34 385.252H1147.79ZM1147.79 367.828V387.34H1152.08V371.644H1155.06V367.828H1147.79ZM1163.56 363.868V397.204H1168.06V363.868H1163.56Z" fill="black"/>
<path d="M40.68 119.56H86.504V133.384H55.912V159.496H84.328V173.192H55.912V201.864H88.296V215.432H40.68V119.56ZM122.6 215.944H108.264V119.048H122.6V215.944ZM175.794 141.96H186.418V119.048H200.37V174.344H186.418V154.888H173.49L170.034 174.344H154.418L157.618 156.936H136.882V144.008H159.922L161.714 133.896H135.346V119.56H177.458V132.744L175.794 141.96ZM183.218 196.232L162.866 215.944H142.77L177.714 181.512H188.594L223.538 215.944H203.442L183.218 196.232ZM220.85 184.584H206.77V119.048H220.85V184.584ZM264.956 133.384H234.62V119.56H280.956V133.384L267.132 215.432H251.388L264.956 133.384ZM319.1 215.944H304.508V169.224H283.004V155.016H304.508V119.048H319.1V215.944ZM381.382 215.944V119.048H395.334V157.96H405.318V119.048H419.27V215.944H405.318V171.784H395.334V215.944H381.382ZM371.91 215.432H334.406V160.264H357.702V133.512H334.406V119.56H372.294V175.112H348.998V201.992H371.91V215.432Z" fill="#FFFEF2"/>
<path d="M40.68 119.56V118.56H39.68V119.56H40.68ZM86.504 119.56H87.504V118.56H86.504V119.56ZM86.504 133.384V134.384H87.504V133.384H86.504ZM55.912 133.384V132.384H54.912V133.384H55.912ZM55.912 159.496H54.912V160.496H55.912V159.496ZM84.328 159.496H85.328V158.496H84.328V159.496ZM84.328 173.192V174.192H85.328V173.192H84.328ZM55.912 173.192V172.192H54.912V173.192H55.912ZM55.912 201.864H54.912V202.864H55.912V201.864ZM88.296 201.864H89.296V200.864H88.296V201.864ZM88.296 215.432V216.432H89.296V215.432H88.296ZM40.68 215.432H39.68V216.432H40.68V215.432ZM122.6 215.944V216.944H123.6V215.944H122.6ZM108.264 215.944H107.264V216.944H108.264V215.944ZM108.264 119.048V118.048H107.264V119.048H108.264ZM122.6 119.048H123.6V118.048H122.6V119.048ZM40.68 120.56H86.504V118.56H40.68V120.56ZM85.504 119.56V133.384H87.504V119.56H85.504ZM86.504 132.384H55.912V134.384H86.504V132.384ZM54.912 133.384V159.496H56.912V133.384H54.912ZM55.912 160.496H84.328V158.496H55.912V160.496ZM83.328 159.496V173.192H85.328V159.496H83.328ZM84.328 172.192H55.912V174.192H84.328V172.192ZM54.912 173.192V201.864H56.912V173.192H54.912ZM55.912 202.864H88.296V200.864H55.912V202.864ZM87.296 201.864V215.432H89.296V201.864H87.296ZM88.296 214.432H40.68V216.432H88.296V214.432ZM41.68 215.432V119.56H39.68V215.432H41.68ZM122.6 214.944H108.264V216.944H122.6V214.944ZM109.264 215.944V119.048H107.264V215.944H109.264ZM108.264 120.048H122.6V118.048H108.264V120.048ZM121.6 119.048V215.944H123.6V119.048H121.6ZM175.794 141.96L174.81 141.782L174.597 142.96H175.794V141.96ZM186.418 141.96V142.96H187.418V141.96H186.418ZM186.418 119.048V118.048H185.418V119.048H186.418ZM200.37 119.048H201.37V118.048H200.37V119.048ZM200.37 174.344V175.344H201.37V174.344H200.37ZM186.418 174.344H185.418V175.344H186.418V174.344ZM186.418 154.888H187.418V153.888H186.418V154.888ZM173.49 154.888V153.888H172.652L172.505 154.713L173.49 154.888ZM170.034 174.344V175.344H170.872L171.019 174.519L170.034 174.344ZM154.418 174.344L153.434 174.163L153.217 175.344H154.418V174.344ZM157.618 156.936L158.602 157.117L158.819 155.936H157.618V156.936ZM136.882 156.936H135.882V157.936H136.882V156.936ZM136.882 144.008V143.008H135.882V144.008H136.882ZM159.922 144.008V145.008H160.76L160.907 144.182L159.922 144.008ZM161.714 133.896L162.699 134.07L162.907 132.896H161.714V133.896ZM135.346 133.896H134.346V134.896H135.346V133.896ZM135.346 119.56V118.56H134.346V119.56H135.346ZM177.458 119.56H178.458V118.56H177.458V119.56ZM177.458 132.744L178.442 132.922L178.458 132.834V132.744H177.458ZM183.218 196.232L183.916 195.516L183.22 194.838L182.522 195.514L183.218 196.232ZM162.866 215.944V216.944H163.271L163.562 216.662L162.866 215.944ZM142.77 215.944L142.068 215.232L140.33 216.944H142.77V215.944ZM177.714 181.512V180.512H177.304L177.012 180.8L177.714 181.512ZM188.594 181.512L189.296 180.8L189.004 180.512H188.594V181.512ZM223.538 215.944V216.944H225.978L224.24 215.232L223.538 215.944ZM203.442 215.944L202.744 216.66L203.035 216.944H203.442V215.944ZM220.85 184.584V185.584H221.85V184.584H220.85ZM206.77 184.584H205.77V185.584H206.77V184.584ZM206.77 119.048V118.048H205.77V119.048H206.77ZM220.85 119.048H221.85V118.048H220.85V119.048ZM175.794 142.96H186.418V140.96H175.794V142.96ZM187.418 141.96V119.048H185.418V141.96H187.418ZM186.418 120.048H200.37V118.048H186.418V120.048ZM199.37 119.048V174.344H201.37V119.048H199.37ZM200.37 173.344H186.418V175.344H200.37V173.344ZM187.418 174.344V154.888H185.418V174.344H187.418ZM186.418 153.888H173.49V155.888H186.418V153.888ZM172.505 154.713L169.049 174.169L171.019 174.519L174.475 155.063L172.505 154.713ZM170.034 173.344H154.418V175.344H170.034V173.344ZM155.402 174.525L158.602 157.117L156.634 156.755L153.434 174.163L155.402 174.525ZM157.618 155.936H136.882V157.936H157.618V155.936ZM137.882 156.936V144.008H135.882V156.936H137.882ZM136.882 145.008H159.922V143.008H136.882V145.008ZM160.907 144.182L162.699 134.07L160.729 133.721L158.937 143.833L160.907 144.182ZM161.714 132.896H135.346V134.896H161.714V132.896ZM136.346 133.896V119.56H134.346V133.896H136.346ZM135.346 120.56H177.458V118.56H135.346V120.56ZM176.458 119.56V132.744H178.458V119.56H176.458ZM176.474 132.566L174.81 141.782L176.778 142.138L178.442 132.922L176.474 132.566ZM182.522 195.514L162.17 215.226L163.562 216.662L183.914 196.95L182.522 195.514ZM162.866 214.944H142.77V216.944H162.866V214.944ZM143.472 216.656L178.416 182.224L177.012 180.8L142.068 215.232L143.472 216.656ZM177.714 182.512H188.594V180.512H177.714V182.512ZM187.892 182.224L222.836 216.656L224.24 215.232L189.296 180.8L187.892 182.224ZM223.538 214.944H203.442V216.944H223.538V214.944ZM204.14 215.228L183.916 195.516L182.52 196.948L202.744 216.66L204.14 215.228ZM220.85 183.584H206.77V185.584H220.85V183.584ZM207.77 184.584V119.048H205.77V184.584H207.77ZM206.77 120.048H220.85V118.048H206.77V120.048ZM219.85 119.048V184.584H221.85V119.048H219.85ZM264.956 133.384L265.943 133.547L266.135 132.384H264.956V133.384ZM234.62 133.384H233.62V134.384H234.62V133.384ZM234.62 119.56V118.56H233.62V119.56H234.62ZM280.956 119.56H281.956V118.56H280.956V119.56ZM280.956 133.384L281.942 133.55L281.956 133.468V133.384H280.956ZM267.132 215.432V216.432H267.978L268.118 215.598L267.132 215.432ZM251.388 215.432L250.401 215.269L250.209 216.432H251.388V215.432ZM319.1 215.944V216.944H320.1V215.944H319.1ZM304.508 215.944H303.508V216.944H304.508V215.944ZM304.508 169.224H305.508V168.224H304.508V169.224ZM283.004 169.224H282.004V170.224H283.004V169.224ZM283.004 155.016V154.016H282.004V155.016H283.004ZM304.508 155.016V156.016H305.508V155.016H304.508ZM304.508 119.048V118.048H303.508V119.048H304.508ZM319.1 119.048H320.1V118.048H319.1V119.048ZM264.956 132.384H234.62V134.384H264.956V132.384ZM235.62 133.384V119.56H233.62V133.384H235.62ZM234.62 120.56H280.956V118.56H234.62V120.56ZM279.956 119.56V133.384H281.956V119.56H279.956ZM279.97 133.218L266.146 215.266L268.118 215.598L281.942 133.55L279.97 133.218ZM267.132 214.432H251.388V216.432H267.132V214.432ZM252.375 215.595L265.943 133.547L263.969 133.221L250.401 215.269L252.375 215.595ZM319.1 214.944H304.508V216.944H319.1V214.944ZM305.508 215.944V169.224H303.508V215.944H305.508ZM304.508 168.224H283.004V170.224H304.508V168.224ZM284.004 169.224V155.016H282.004V169.224H284.004ZM283.004 156.016H304.508V154.016H283.004V156.016ZM305.508 155.016V119.048H303.508V155.016H305.508ZM304.508 120.048H319.1V118.048H304.508V120.048ZM318.1 119.048V215.944H320.1V119.048H318.1ZM381.382 215.944H380.382V216.944H381.382V215.944ZM381.382 119.048V118.048H380.382V119.048H381.382ZM395.334 119.048H396.334V118.048H395.334V119.048ZM395.334 157.96H394.334V158.96H395.334V157.96ZM405.318 157.96V158.96H406.318V157.96H405.318ZM405.318 119.048V118.048H404.318V119.048H405.318ZM419.27 119.048H420.27V118.048H419.27V119.048ZM419.27 215.944V216.944H420.27V215.944H419.27ZM405.318 215.944H404.318V216.944H405.318V215.944ZM405.318 171.784H406.318V170.784H405.318V171.784ZM395.334 171.784V170.784H394.334V171.784H395.334ZM395.334 215.944V216.944H396.334V215.944H395.334ZM371.91 215.432V216.432H372.91V215.432H371.91ZM334.406 215.432H333.406V216.432H334.406V215.432ZM334.406 160.264V159.264H333.406V160.264H334.406ZM357.702 160.264V161.264H358.702V160.264H357.702ZM357.702 133.512H358.702V132.512H357.702V133.512ZM334.406 133.512H333.406V134.512H334.406V133.512ZM334.406 119.56V118.56H333.406V119.56H334.406ZM372.294 119.56H373.294V118.56H372.294V119.56ZM372.294 175.112V176.112H373.294V175.112H372.294ZM348.998 175.112V174.112H347.998V175.112H348.998ZM348.998 201.992H347.998V202.992H348.998V201.992ZM371.91 201.992H372.91V200.992H371.91V201.992ZM382.382 215.944V119.048H380.382V215.944H382.382ZM381.382 120.048H395.334V118.048H381.382V120.048ZM394.334 119.048V157.96H396.334V119.048H394.334ZM395.334 158.96H405.318V156.96H395.334V158.96ZM406.318 157.96V119.048H404.318V157.96H406.318ZM405.318 120.048H419.27V118.048H405.318V120.048ZM418.27 119.048V215.944H420.27V119.048H418.27ZM419.27 214.944H405.318V216.944H419.27V214.944ZM406.318 215.944V171.784H404.318V215.944H406.318ZM405.318 170.784H395.334V172.784H405.318V170.784ZM394.334 171.784V215.944H396.334V171.784H394.334ZM395.334 214.944H381.382V216.944H395.334V214.944ZM371.91 214.432H334.406V216.432H371.91V214.432ZM335.406 215.432V160.264H333.406V215.432H335.406ZM334.406 161.264H357.702V159.264H334.406V161.264ZM358.702 160.264V133.512H356.702V160.264H358.702ZM357.702 132.512H334.406V134.512H357.702V132.512ZM335.406 133.512V119.56H333.406V133.512H335.406ZM334.406 120.56H372.294V118.56H334.406V120.56ZM371.294 119.56V175.112H373.294V119.56H371.294ZM372.294 174.112H348.998V176.112H372.294V174.112ZM347.998 175.112V201.992H349.998V175.112H347.998ZM348.998 202.992H371.91V200.992H348.998V202.992ZM370.91 201.992V215.432H372.91V201.992H370.91Z" fill="black"/>
<path d="M277.088 274.296H197.088V262.392H211.04V249.592H197.088V237.56H277.088V249.592H264.032V262.392H277.088V274.296ZM275.296 318.968H212.32V322.936H275.296V333.944H199.008V308.344H261.984V304.632H199.008V293.88H275.296V318.968ZM281.184 278.776V289.528H193.12V278.776H281.184ZM225.76 262.392H249.184V249.592H225.76V262.392ZM339.882 237.048H353.834V255.992H361.77V237.048H375.85V302.584H361.77V269.56H353.834V290.808H339.882V237.048ZM332.586 237.56V269.304H304.938V278.008H332.586V290.168H291.37V257.912H318.89V249.336H291.37V237.56H332.586ZM338.218 314.232L317.866 333.944H297.77L332.714 299.512H343.594L378.538 333.944H358.442L338.218 314.232ZM473.588 278.008H441.46V283.512H477.684V295.416H389.62V283.512H425.844V278.008H393.588V265.72H407.284V250.104H393.588V237.56H473.588V250.104H460.916V265.72H473.588V278.008ZM471.796 301.048V333.944H395.508V301.048H471.796ZM457.46 312.824H409.844V322.04H457.46V312.824ZM422.388 265.72H445.684V250.104H422.388V265.72Z" fill="#FFFEF2"/>
<path d="M277.088 274.296V275.296H278.088V274.296H277.088ZM197.088 274.296H196.088V275.296H197.088V274.296ZM197.088 262.392V261.392H196.088V262.392H197.088ZM211.04 262.392V263.392H212.04V262.392H211.04ZM211.04 249.592H212.04V248.592H211.04V249.592ZM197.088 249.592H196.088V250.592H197.088V249.592ZM197.088 237.56V236.56H196.088V237.56H197.088ZM277.088 237.56H278.088V236.56H277.088V237.56ZM277.088 249.592V250.592H278.088V249.592H277.088ZM264.032 249.592V248.592H263.032V249.592H264.032ZM264.032 262.392H263.032V263.392H264.032V262.392ZM277.088 262.392H278.088V261.392H277.088V262.392ZM275.296 318.968V319.968H276.296V318.968H275.296ZM212.32 318.968V317.968H211.32V318.968H212.32ZM212.32 322.936H211.32V323.936H212.32V322.936ZM275.296 322.936H276.296V321.936H275.296V322.936ZM275.296 333.944V334.944H276.296V333.944H275.296ZM199.008 333.944H198.008V334.944H199.008V333.944ZM199.008 308.344V307.344H198.008V308.344H199.008ZM261.984 308.344V309.344H262.984V308.344H261.984ZM261.984 304.632H262.984V303.632H261.984V304.632ZM199.008 304.632H198.008V305.632H199.008V304.632ZM199.008 293.88V292.88H198.008V293.88H199.008ZM275.296 293.88H276.296V292.88H275.296V293.88ZM281.184 278.776H282.184V277.776H281.184V278.776ZM281.184 289.528V290.528H282.184V289.528H281.184ZM193.12 289.528H192.12V290.528H193.12V289.528ZM193.12 278.776V277.776H192.12V278.776H193.12ZM225.76 262.392H224.76V263.392H225.76V262.392ZM249.184 262.392V263.392H250.184V262.392H249.184ZM249.184 249.592H250.184V248.592H249.184V249.592ZM225.76 249.592V248.592H224.76V249.592H225.76ZM277.088 273.296H197.088V275.296H277.088V273.296ZM198.088 274.296V262.392H196.088V274.296H198.088ZM197.088 263.392H211.04V261.392H197.088V263.392ZM212.04 262.392V249.592H210.04V262.392H212.04ZM211.04 248.592H197.088V250.592H211.04V248.592ZM198.088 249.592V237.56H196.088V249.592H198.088ZM197.088 238.56H277.088V236.56H197.088V238.56ZM276.088 237.56V249.592H278.088V237.56H276.088ZM277.088 248.592H264.032V250.592H277.088V248.592ZM263.032 249.592V262.392H265.032V249.592H263.032ZM264.032 263.392H277.088V261.392H264.032V263.392ZM276.088 262.392V274.296H278.088V262.392H276.088ZM275.296 317.968H212.32V319.968H275.296V317.968ZM211.32 318.968V322.936H213.32V318.968H211.32ZM212.32 323.936H275.296V321.936H212.32V323.936ZM274.296 322.936V333.944H276.296V322.936H274.296ZM275.296 332.944H199.008V334.944H275.296V332.944ZM200.008 333.944V308.344H198.008V333.944H200.008ZM199.008 309.344H261.984V307.344H199.008V309.344ZM262.984 308.344V304.632H260.984V308.344H262.984ZM261.984 303.632H199.008V305.632H261.984V303.632ZM200.008 304.632V293.88H198.008V304.632H200.008ZM199.008 294.88H275.296V292.88H199.008V294.88ZM274.296 293.88V318.968H276.296V293.88H274.296ZM280.184 278.776V289.528H282.184V278.776H280.184ZM281.184 288.528H193.12V290.528H281.184V288.528ZM194.12 289.528V278.776H192.12V289.528H194.12ZM193.12 279.776H281.184V277.776H193.12V279.776ZM225.76 263.392H249.184V261.392H225.76V263.392ZM250.184 262.392V249.592H248.184V262.392H250.184ZM249.184 248.592H225.76V250.592H249.184V248.592ZM224.76 249.592V262.392H226.76V249.592H224.76ZM339.882 237.048V236.048H338.882V237.048H339.882ZM353.834 237.048H354.834V236.048H353.834V237.048ZM353.834 255.992H352.834V256.992H353.834V255.992ZM361.77 255.992V256.992H362.77V255.992H361.77ZM361.77 237.048V236.048H360.77V237.048H361.77ZM375.85 237.048H376.85V236.048H375.85V237.048ZM375.85 302.584V303.584H376.85V302.584H375.85ZM361.77 302.584H360.77V303.584H361.77V302.584ZM361.77 269.56H362.77V268.56H361.77V269.56ZM353.834 269.56V268.56H352.834V269.56H353.834ZM353.834 290.808V291.808H354.834V290.808H353.834ZM339.882 290.808H338.882V291.808H339.882V290.808ZM332.586 237.56H333.586V236.56H332.586V237.56ZM332.586 269.304V270.304H333.586V269.304H332.586ZM304.938 269.304V268.304H303.938V269.304H304.938ZM304.938 278.008H303.938V279.008H304.938V278.008ZM332.586 278.008H333.586V277.008H332.586V278.008ZM332.586 290.168V291.168H333.586V290.168H332.586ZM291.37 290.168H290.37V291.168H291.37V290.168ZM291.37 257.912V256.912H290.37V257.912H291.37ZM318.89 257.912V258.912H319.89V257.912H318.89ZM318.89 249.336H319.89V248.336H318.89V249.336ZM291.37 249.336H290.37V250.336H291.37V249.336ZM291.37 237.56V236.56H290.37V237.56H291.37ZM338.218 314.232L338.916 313.516L338.22 312.838L337.522 313.514L338.218 314.232ZM317.866 333.944V334.944H318.271L318.562 334.662L317.866 333.944ZM297.77 333.944L297.068 333.232L295.33 334.944H297.77V333.944ZM332.714 299.512V298.512H332.304L332.012 298.8L332.714 299.512ZM343.594 299.512L344.296 298.8L344.004 298.512H343.594V299.512ZM378.538 333.944V334.944H380.978L379.24 333.232L378.538 333.944ZM358.442 333.944L357.744 334.66L358.035 334.944H358.442V333.944ZM339.882 238.048H353.834V236.048H339.882V238.048ZM352.834 237.048V255.992H354.834V237.048H352.834ZM353.834 256.992H361.77V254.992H353.834V256.992ZM362.77 255.992V237.048H360.77V255.992H362.77ZM361.77 238.048H375.85V236.048H361.77V238.048ZM374.85 237.048V302.584H376.85V237.048H374.85ZM375.85 301.584H361.77V303.584H375.85V301.584ZM362.77 302.584V269.56H360.77V302.584H362.77ZM361.77 268.56H353.834V270.56H361.77V268.56ZM352.834 269.56V290.808H354.834V269.56H352.834ZM353.834 289.808H339.882V291.808H353.834V289.808ZM340.882 290.808V237.048H338.882V290.808H340.882ZM331.586 237.56V269.304H333.586V237.56H331.586ZM332.586 268.304H304.938V270.304H332.586V268.304ZM303.938 269.304V278.008H305.938V269.304H303.938ZM304.938 279.008H332.586V277.008H304.938V279.008ZM331.586 278.008V290.168H333.586V278.008H331.586ZM332.586 289.168H291.37V291.168H332.586V289.168ZM292.37 290.168V257.912H290.37V290.168H292.37ZM291.37 258.912H318.89V256.912H291.37V258.912ZM319.89 257.912V249.336H317.89V257.912H319.89ZM318.89 248.336H291.37V250.336H318.89V248.336ZM292.37 249.336V237.56H290.37V249.336H292.37ZM291.37 238.56H332.586V236.56H291.37V238.56ZM337.522 313.514L317.17 333.226L318.562 334.662L338.914 314.95L337.522 313.514ZM317.866 332.944H297.77V334.944H317.866V332.944ZM298.472 334.656L333.416 300.224L332.012 298.8L297.068 333.232L298.472 334.656ZM332.714 300.512H343.594V298.512H332.714V300.512ZM342.892 300.224L377.836 334.656L379.24 333.232L344.296 298.8L342.892 300.224ZM378.538 332.944H358.442V334.944H378.538V332.944ZM359.14 333.228L338.916 313.516L337.52 314.948L357.744 334.66L359.14 333.228ZM473.588 278.008V279.008H474.588V278.008H473.588ZM441.46 278.008V277.008H440.46V278.008H441.46ZM441.46 283.512H440.46V284.512H441.46V283.512ZM477.684 283.512H478.684V282.512H477.684V283.512ZM477.684 295.416V296.416H478.684V295.416H477.684ZM389.62 295.416H388.62V296.416H389.62V295.416ZM389.62 283.512V282.512H388.62V283.512H389.62ZM425.844 283.512V284.512H426.844V283.512H425.844ZM425.844 278.008H426.844V277.008H425.844V278.008ZM393.588 278.008H392.588V279.008H393.588V278.008ZM393.588 265.72V264.72H392.588V265.72H393.588ZM407.284 265.72V266.72H408.284V265.72H407.284ZM407.284 250.104H408.284V249.104H407.284V250.104ZM393.588 250.104H392.588V251.104H393.588V250.104ZM393.588 237.56V236.56H392.588V237.56H393.588ZM473.588 237.56H474.588V236.56H473.588V237.56ZM473.588 250.104V251.104H474.588V250.104H473.588ZM460.916 250.104V249.104H459.916V250.104H460.916ZM460.916 265.72H459.916V266.72H460.916V265.72ZM473.588 265.72H474.588V264.72H473.588V265.72ZM471.796 301.048H472.796V300.048H471.796V301.048ZM471.796 333.944V334.944H472.796V333.944H471.796ZM395.508 333.944H394.508V334.944H395.508V333.944ZM395.508 301.048V300.048H394.508V301.048H395.508ZM457.46 312.824H458.46V311.824H457.46V312.824ZM409.844 312.824V311.824H408.844V312.824H409.844ZM409.844 322.04H408.844V323.04H409.844V322.04ZM457.46 322.04V323.04H458.46V322.04H457.46ZM422.388 265.72H421.388V266.72H422.388V265.72ZM445.684 265.72V266.72H446.684V265.72H445.684ZM445.684 250.104H446.684V249.104H445.684V250.104ZM422.388 250.104V249.104H421.388V250.104H422.388ZM473.588 277.008H441.46V279.008H473.588V277.008ZM440.46 278.008V283.512H442.46V278.008H440.46ZM441.46 284.512H477.684V282.512H441.46V284.512ZM476.684 283.512V295.416H478.684V283.512H476.684ZM477.684 294.416H389.62V296.416H477.684V294.416ZM390.62 295.416V283.512H388.62V295.416H390.62ZM389.62 284.512H425.844V282.512H389.62V284.512ZM426.844 283.512V278.008H424.844V283.512H426.844ZM425.844 277.008H393.588V279.008H425.844V277.008ZM394.588 278.008V265.72H392.588V278.008H394.588ZM393.588 266.72H407.284V264.72H393.588V266.72ZM408.284 265.72V250.104H406.284V265.72H408.284ZM407.284 249.104H393.588V251.104H407.284V249.104ZM394.588 250.104V237.56H392.588V250.104H394.588ZM393.588 238.56H473.588V236.56H393.588V238.56ZM472.588 237.56V250.104H474.588V237.56H472.588ZM473.588 249.104H460.916V251.104H473.588V249.104ZM459.916 250.104V265.72H461.916V250.104H459.916ZM460.916 266.72H473.588V264.72H460.916V266.72ZM472.588 265.72V278.008H474.588V265.72H472.588ZM470.796 301.048V333.944H472.796V301.048H470.796ZM471.796 332.944H395.508V334.944H471.796V332.944ZM396.508 333.944V301.048H394.508V333.944H396.508ZM395.508 302.048H471.796V300.048H395.508V302.048ZM457.46 311.824H409.844V313.824H457.46V311.824ZM408.844 312.824V322.04H410.844V312.824H408.844ZM409.844 323.04H457.46V321.04H409.844V323.04ZM458.46 322.04V312.824H456.46V322.04H458.46ZM422.388 266.72H445.684V264.72H422.388V266.72ZM446.684 265.72V250.104H444.684V265.72H446.684ZM445.684 249.104H422.388V251.104H445.684V249.104ZM421.388 250.104V265.72H423.388V250.104H421.388Z" fill="black"/>
<path d="M511.56 130.72V151.36H532.68V130.72H511.56ZM511.24 87.36V90.24C511.24 105.76 496.2 119.84 461.96 123.04L469.16 139.36C507.4 134.56 529.48 116.8 529.48 90.24V87.36H511.24ZM514.76 87.36V90.24C514.76 116.8 536.84 134.56 575.08 139.36L582.28 123.04C548.2 119.84 533 105.76 533 90.24V87.36H514.76ZM455.4 146.4V163.2H589.32V146.4H455.4ZM470.76 170.72V186.4H552.2V194.24H470.92V221.76H491.88V208.96H573.16V170.72H470.76ZM470.92 217.28V233.28H577V217.28H470.92ZM618.428 162.4V179.04H722.588V162.4H618.428ZM602.748 200V217.28H736.828V200H602.748ZM618.428 96.8V167.04H640.028V113.92H721.308V96.8H618.428ZM633.468 129.44V145.92H717.948V129.44H633.468Z" fill="#6D6D6D"/>
<path d="M1133.22 28.1312C1130.36 28.478 1127.61 29.3975 1125.11 30.8347L606.06 311.997C602.38 314.029 599.38 317.099 597.434 320.825C595.487 324.551 594.681 328.767 595.114 332.948C595.548 337.129 597.202 341.09 599.872 344.337C602.541 347.584 606.107 349.974 610.126 351.208L747.999 392.43C751.221 417.93 765.582 528.361 768.264 549.903C770.945 571.358 785.522 575.078 800.034 555.31C809.853 541.922 867.597 460.688 867.619 460.688L990.634 583.707C993.284 586.364 996.584 588.278 1000.21 589.257C1003.83 590.237 1007.64 590.248 1011.27 589.288C1014.9 588.329 1018.21 586.433 1020.87 583.791C1023.54 581.149 1025.46 577.853 1026.45 574.234L1156.21 55.166C1157.15 51.7916 1157.25 48.2377 1156.5 44.816C1155.75 41.3943 1154.17 38.2094 1151.9 35.5406C1149.63 32.8718 1146.74 30.8007 1143.48 29.5089C1140.23 28.217 1136.7 27.744 1133.22 28.1312V28.1312ZM1102.17 91.6738L993.338 526.934L871.014 404.585L1048.75 157.898L772.33 355.252L671.633 325.514L1102.12 91.6522L1102.17 91.6738Z" fill="#FFB648" fill-opacity="0.2"/>
</svg>
