<svg width="562" height="562" viewBox="0 0 562 562" fill="none" xmlns="http://www.w3.org/2000/svg">
<path d="M538.223 0.131194C535.365 0.477985 532.607 1.39747 530.112 2.83467L11.0598 283.997C7.38021 286.029 4.38021 289.099 2.43379 292.825C0.487376 296.551 -0.319345 300.767 0.114208 304.948C0.54776 309.129 2.2024 313.09 4.87185 316.337C7.54129 319.584 11.1074 321.974 15.1257 323.208L152.999 364.43C156.221 389.93 170.582 500.361 173.264 521.903C175.945 543.358 190.522 547.078 205.034 527.31C214.853 513.922 272.597 432.688 272.619 432.688L395.634 555.707C398.284 558.364 401.584 560.278 405.206 561.257C408.828 562.237 412.644 562.248 416.271 561.288C419.898 560.329 423.209 558.433 425.873 555.791C428.537 553.149 430.46 549.853 431.449 546.234L561.212 27.166C562.154 23.7916 562.253 20.2377 561.501 16.816C560.749 13.3943 559.169 10.2094 556.9 7.54061C554.63 4.87183 551.741 2.80069 548.484 1.50886C545.228 0.21703 541.704 -0.256021 538.223 0.131194V0.131194ZM507.166 63.6738L398.338 498.934L276.014 376.585L453.747 129.898L177.33 327.252L76.6334 297.514L507.123 63.6522L507.166 63.6738Z" fill="#941A1A" fill-opacity="0.2"/>
</svg>
