<svg width="123" height="147" viewBox="0 0 123 147" fill="none" xmlns="http://www.w3.org/2000/svg">
<path d="M38.2 90.88C40.8667 90.88 43 91.6267 44.6 93.12C46.3067 94.6133 47.16 96.7467 47.16 99.52V114.72C47.16 117.387 46.2533 119.467 44.44 120.96C42.6267 122.453 40.5467 123.2 38.2 123.2H24.92C22.7867 123.2 21.2933 123.787 20.44 124.96C19.6933 126.24 19.32 127.52 19.32 128.8V130.08C19.32 131.573 19.6933 133.067 20.44 134.56C21.1867 136.053 22.8933 136.8 25.56 136.8H43.48C44.9733 136.8 46.2 137.227 47.16 138.08C48.2267 139.04 48.76 140.267 48.76 141.76C48.76 143.253 48.2267 144.427 47.16 145.28C46.2 146.24 44.9733 146.72 43.48 146.72H17.4C15.0533 146.72 12.9733 145.92 11.16 144.32C9.45333 142.827 8.6 140.747 8.6 138.08V122.72C8.6 119.947 9.50667 117.707 11.32 116C13.1333 114.293 15.3733 113.44 18.04 113.44H30.68C32.8133 113.44 34.2533 112.907 35 111.84C35.8533 110.773 36.28 109.547 36.28 108.16V106.72C36.28 105.227 35.8533 103.84 35 102.56C34.2533 101.387 32.6 100.8 30.04 100.8H14.2C12.7067 100.8 11.4267 100.32 10.36 99.36C9.4 98.5067 8.92 97.3333 8.92 95.84C8.92 94.3467 9.4 93.12 10.36 92.16C11.4267 91.3067 12.7067 90.88 14.2 90.88H38.2ZM34.04 45.6C32.0133 44 30.36 43.1467 29.08 43.04C27.9067 42.9333 26.3067 43.7333 24.28 45.44L13.24 55.52C11.96 56.5867 10.52 57.0133 8.92 56.8C7.42667 56.48 6.25333 55.9467 5.4 55.2C4.44 54.1333 3.96 52.8 3.96 51.2C4.06667 49.6 4.6 48.48 5.56 47.84C10.04 44.7467 13.56 41.92 16.12 39.36C18.7867 36.8 20.6533 34.1333 21.72 31.36C22.8933 28.48 23.48 25.1733 23.48 21.44C23.48 19.84 23.96 18.6133 24.92 17.76C25.9867 16.8 27.32 16.32 28.92 16.32C30.4133 16.32 31.6933 16.8 32.76 17.76C33.9333 18.6133 34.4667 19.84 34.36 21.44C33.9333 27.2 35.32 31.8933 38.52 35.52C41.72 39.04 45.9867 42.7733 51.32 46.72C52.3867 47.4667 52.9733 48.6933 53.08 50.4C53.1867 52.1067 52.7067 53.5467 51.64 54.72C50.5733 55.7867 49.2933 56.32 47.8 56.32C46.3067 56.32 44.9733 55.7867 43.8 54.72L34.04 45.6ZM33.72 65.44C33.72 66.9333 33.9333 68.2667 34.36 69.44C34.7867 70.5067 36.12 71.04 38.36 71.04H50.52C52.3333 71.04 53.6667 71.5733 54.52 72.64C55.3733 73.7067 55.8 74.8267 55.8 76C55.8 77.3867 55.32 78.6133 54.36 79.68C53.4 80.64 52.12 81.12 50.52 81.12H5.72C4.12 81.12 2.84 80.64 1.88 79.68C1.02667 78.6133 0.6 77.3867 0.6 76C0.6 74.8267 1.02667 73.7067 1.88 72.64C2.73333 71.5733 4.01333 71.04 5.72 71.04H18.2C20.44 71.04 21.7733 70.5067 22.2 69.44C22.6267 68.2667 22.84 66.9333 22.84 65.44V61.28C22.84 59.68 23.32 58.4 24.28 57.44C25.24 56.48 26.52 56 28.12 56C29.9333 56 31.32 56.5333 32.28 57.6C33.24 58.56 33.72 59.7867 33.72 61.28V65.44ZM84.2863 57.76C81.6196 57.76 79.4863 56.96 77.8863 55.36C76.2863 53.6533 75.4863 51.4667 75.4863 48.8V9.59999C75.4863 6.82666 76.2863 4.63999 77.8863 3.03999C79.4863 1.43999 81.6196 0.639996 84.2863 0.639996H109.406C112.926 0.639996 114.686 2.34666 114.686 5.76C114.686 9.06666 112.926 10.72 109.406 10.72H91.8063C89.3529 10.72 87.8063 11.36 87.1663 12.64C86.5263 13.8133 86.2063 15.0933 86.2063 16.48V18.4C86.2063 22.0267 87.8596 23.84 91.1663 23.84H108.286C109.993 23.84 111.273 24.32 112.126 25.28C113.086 26.24 113.566 27.36 113.566 28.64C113.566 30.0267 113.086 31.2 112.126 32.16C111.273 33.0133 109.993 33.44 108.286 33.44H91.1663C89.3529 33.44 88.0729 33.9733 87.3263 35.04C86.5796 36.1067 86.2063 37.44 86.2063 39.04V41.6C86.2063 43.3067 86.5263 44.7467 87.1663 45.92C87.9129 47.0933 89.4596 47.68 91.8063 47.68H110.206C111.806 47.68 113.086 48.1067 114.046 48.96C115.113 49.8133 115.646 50.9867 115.646 52.48C115.646 54.08 115.113 55.36 114.046 56.32C113.086 57.1733 111.806 57.6533 110.206 57.76H84.2863ZM71.9662 78.72C68.6596 78.72 67.0063 77.0667 67.0063 73.76C67.0063 72.2667 67.4329 71.04 68.2863 70.08C69.2463 69.12 70.4729 68.64 71.9662 68.64H117.086C118.58 68.64 119.806 69.12 120.766 70.08C121.726 71.04 122.206 72.2667 122.206 73.76C122.206 75.2533 121.726 76.48 120.766 77.44C119.806 78.2933 118.58 78.72 117.086 78.72H71.9662Z" fill="#6F4C38"/>
</svg>
