<svg width="266" height="90" viewBox="0 0 266 90" fill="none" xmlns="http://www.w3.org/2000/svg">
<path d="M7.44 46.008C5.30667 46.008 3.6 45.368 2.32 44.088C1.04 42.7227 0.4 40.9733 0.4 38.84V7.48C0.4 5.26133 1.04 3.512 2.32 2.23199C3.6 0.951996 5.30667 0.311996 7.44 0.311996H27.536C30.352 0.311996 31.76 1.67733 31.76 4.408C31.76 7.05333 30.352 8.376 27.536 8.376H13.456C11.4933 8.376 10.256 8.888 9.744 9.912C9.232 10.8507 8.976 11.8747 8.976 12.984V14.52C8.976 17.4213 10.2987 18.872 12.944 18.872H26.64C28.0053 18.872 29.0293 19.256 29.712 20.024C30.48 20.792 30.864 21.688 30.864 22.712C30.864 23.8213 30.48 24.76 29.712 25.528C29.0293 26.2107 28.0053 26.552 26.64 26.552H12.944C11.4933 26.552 10.4693 26.9787 9.872 27.832C9.27467 28.6853 8.976 29.752 8.976 31.032V33.08C8.976 34.4453 9.232 35.5973 9.744 36.536C10.3413 37.4747 11.5787 37.944 13.456 37.944H28.176C29.456 37.944 30.48 38.2853 31.248 38.968C32.1013 39.6507 32.528 40.5893 32.528 41.784C32.528 43.064 32.1013 44.088 31.248 44.856C30.48 45.5387 29.456 45.9227 28.176 46.008H7.44ZM41.104 16.568C41.104 15.288 41.488 14.264 42.256 13.496C43.1093 12.728 44.176 12.344 45.456 12.344C47.4187 12.4293 48.6133 13.0693 49.04 14.264C49.4667 15.3733 49.68 16.1413 49.68 16.568V52.024C49.68 53.2187 49.2533 54.2427 48.4 55.096C47.632 55.9493 46.6507 56.376 45.456 56.376C44.2613 56.376 43.2373 55.9493 42.384 55.096C41.5307 54.2427 41.104 53.2187 41.104 52.024V16.568ZM94.638 44.088C94.638 45.368 94.2113 46.4347 93.358 47.288C92.5047 48.056 91.438 48.44 90.158 48.44C88.9633 48.44 87.982 48.056 87.214 47.288C86.446 46.4347 86.062 45.368 86.062 44.088V37.944C86.062 36.664 85.7633 35.8107 85.166 35.384C84.5687 34.872 83.6727 34.616 82.478 34.616H66.734C65.454 34.616 64.43 34.232 63.662 33.464C62.894 32.696 62.51 31.7573 62.51 30.648C62.51 29.5387 62.894 28.6427 63.662 27.96C64.43 27.192 65.454 26.808 66.734 26.808H82.094C84.7393 26.808 86.062 25.5707 86.062 23.096V22.2C86.062 20.7493 85.7207 19.6827 85.038 19C84.4407 18.3173 83.0327 17.976 80.814 17.976H66.222C64.942 17.976 63.8753 17.6347 63.022 16.952C62.254 16.2693 61.87 15.3307 61.87 14.136C61.87 12.9413 62.254 12.0027 63.022 11.32C63.8753 10.552 64.942 10.168 66.222 10.168H87.47C89.4327 10.168 91.0967 10.7653 92.462 11.96C93.9127 13.1547 94.638 14.8613 94.638 17.08V26.936C95.3207 26.424 96.174 26.168 97.198 26.168H101.294C103.086 26.168 104.11 25.7413 104.366 24.888C104.707 24.0347 104.878 23.0533 104.878 21.944V16.568C104.878 16.1413 105.091 15.3733 105.518 14.264C106.03 13.0693 107.225 12.4293 109.102 12.344C111.747 12.344 113.07 13.752 113.07 16.568V52.024C113.07 53.2187 112.686 54.2427 111.918 55.096C111.235 55.9493 110.297 56.376 109.102 56.376C107.907 56.376 106.883 55.9493 106.03 55.096C105.262 54.2427 104.878 53.2187 104.878 52.024V37.944C104.878 36.7493 104.665 35.8107 104.238 35.128C103.897 34.36 102.915 33.976 101.294 33.976H97.198C96.0033 33.976 95.15 33.7627 94.638 33.336V44.088ZM111.278 79.928C109.657 78.4773 108.291 77.7947 107.182 77.88C106.073 78.0507 104.75 78.8187 103.214 80.184L94.254 87.992C93.23 88.8453 92.1207 89.144 90.926 88.888C89.7313 88.7173 88.7927 88.2907 88.11 87.608C87.1713 86.6693 86.7873 85.5173 86.958 84.152C87.1287 82.872 87.6407 81.9333 88.494 81.336C93.2727 78.0933 96.8993 75.1067 99.374 72.376C101.849 69.7307 103.001 66.232 102.83 61.88C102.83 60.6853 103.257 59.704 104.11 58.936C104.963 58.168 105.987 57.784 107.182 57.784C108.377 57.784 109.401 58.168 110.254 58.936C111.193 59.704 111.619 60.6853 111.534 61.88C111.363 64.7813 111.747 67.2133 112.686 69.176C113.71 71.1387 115.289 72.9733 117.422 74.68C119.641 76.472 122.371 78.52 125.614 80.824C126.467 81.5067 126.937 82.488 127.022 83.768C127.107 85.048 126.681 86.1573 125.742 87.096C124.974 87.864 123.95 88.248 122.67 88.248C121.475 88.248 120.409 87.864 119.47 87.096L111.278 79.928ZM127.15 52.664C127.15 53.8587 126.723 54.8827 125.87 55.736C125.102 56.5893 124.121 57.016 122.926 57.016C121.731 57.016 120.707 56.5893 119.854 55.736C119.086 54.8827 118.702 53.8587 118.702 52.664V16.568C118.702 16.1413 118.915 15.3733 119.342 14.264C119.854 13.0693 121.049 12.4293 122.926 12.344C124.206 12.344 125.23 12.728 125.998 13.496C126.766 14.264 127.15 15.288 127.15 16.568V52.664ZM189.82 52.664C189.82 53.8587 189.436 54.8827 188.668 55.736C187.9 56.5893 186.919 57.016 185.724 57.016C184.444 57.016 183.377 56.5893 182.524 55.736C181.756 54.8827 181.372 53.8587 181.372 52.664V37.944C181.372 36.7493 181.201 35.8107 180.86 35.128C180.519 34.36 179.537 33.976 177.916 33.976H173.82C171.089 33.976 169.724 32.696 169.724 30.136C169.724 29.0267 170.065 28.088 170.748 27.32C171.431 26.552 172.455 26.168 173.82 26.168H177.916C179.623 26.168 180.604 25.784 180.86 25.016C181.201 24.248 181.372 23.3093 181.372 22.2C181.372 22.1147 181.372 22.0293 181.372 21.944V16.568C181.372 16.1413 181.628 15.3733 182.14 14.264C182.652 13.0693 183.847 12.4293 185.724 12.344C188.455 12.344 189.82 13.752 189.82 16.568V52.664ZM168.828 42.808C168.828 44.088 168.401 45.1547 167.548 46.008C166.695 46.776 165.628 47.16 164.348 47.16C163.153 47.16 162.129 46.776 161.276 46.008C160.508 45.1547 160.124 44.088 160.124 42.808V30.648C160.124 29.112 159.74 27.704 158.972 26.424C158.204 25.0587 156.711 24.376 154.492 24.376H140.412C139.132 24.376 138.065 24.0347 137.212 23.352C136.444 22.584 136.06 21.6027 136.06 20.408C136.06 19.2133 136.444 18.232 137.212 17.464C138.065 16.696 139.132 16.312 140.412 16.312H161.66C163.623 16.312 165.287 16.9093 166.652 18.104C168.103 19.2987 168.828 21.048 168.828 23.352V42.808ZM225.562 0.439995C227.695 0.439995 229.445 1.03733 230.81 2.23199C232.175 3.42666 232.858 5.21866 232.858 7.608V20.408C232.858 22.456 232.133 24.0773 230.682 25.272C229.231 26.4667 227.525 27.064 225.562 27.064H215.706C213.999 27.064 212.805 27.6187 212.122 28.728C211.525 29.752 211.226 30.8187 211.226 31.928V32.696C211.226 33.8907 211.525 35.128 212.122 36.408C212.719 37.6027 214.085 38.2 216.218 38.2H230.042C231.322 38.2 232.346 38.584 233.114 39.352C233.967 40.0347 234.394 40.9733 234.394 42.168C234.394 43.448 233.967 44.472 233.114 45.24C232.346 45.9227 231.322 46.264 230.042 46.264H209.69C207.813 46.264 206.149 45.624 204.698 44.344C203.333 42.9787 202.65 41.2293 202.65 39.096V26.68C202.65 24.4613 203.375 22.712 204.826 21.432C206.362 20.0667 208.197 19.384 210.33 19.384H219.674C221.381 19.384 222.533 18.9147 223.13 17.976C223.813 16.952 224.154 15.8853 224.154 14.776V13.496C224.154 12.3013 223.813 11.192 223.13 10.168C222.533 9.05866 221.21 8.504 219.162 8.504H207.258C206.063 8.504 205.039 8.16266 204.186 7.48C203.418 6.712 203.034 5.73066 203.034 4.536C203.034 3.256 203.418 2.27466 204.186 1.592C205.039 0.823995 206.063 0.439995 207.258 0.439995H225.562ZM265.37 52.664C265.37 53.8587 264.986 54.8827 264.218 55.736C263.45 56.5893 262.469 57.016 261.274 57.016C260.079 57.016 259.055 56.5893 258.202 55.736C257.434 54.8827 257.05 53.8587 257.05 52.664V39.864C257.05 38.9253 256.794 38.072 256.282 37.304C255.855 36.4507 254.831 36.024 253.21 36.024H252.186C250.906 36.1093 249.967 36.536 249.37 37.304C248.858 37.9867 248.602 38.84 248.602 39.864V52.024C248.602 53.2187 248.218 54.2427 247.45 55.096C246.682 55.9493 245.701 56.376 244.506 56.376C243.226 56.376 242.202 55.9493 241.434 55.096C240.666 54.2427 240.282 53.2187 240.282 52.024V16.568C240.282 13.752 241.69 12.344 244.506 12.344C246.469 12.4293 247.621 13.0693 247.962 14.264C248.389 15.3733 248.602 16.1413 248.602 16.568V23.864C248.602 24.9733 248.815 25.9973 249.242 26.936C249.669 27.8747 250.693 28.344 252.314 28.344H253.338C255.045 28.2587 256.069 27.7893 256.41 26.936C256.837 25.9973 257.05 24.9733 257.05 23.864V16.568C257.05 16.1413 257.263 15.3733 257.69 14.264C258.202 13.0693 259.397 12.4293 261.274 12.344C264.005 12.344 265.37 13.752 265.37 16.568V52.664Z" fill="#443939"/>
</svg>
