<svg width="174" height="118" viewBox="0 0 174 118" fill="none" xmlns="http://www.w3.org/2000/svg">
<path d="M5.728 45.88C4.53333 45.88 3.552 45.496 2.784 44.728C2.10133 43.8747 1.76 42.808 1.76 41.528C1.76 38.8827 3.08267 37.56 5.728 37.56H8.416C9.52533 37.56 10.2507 37.2613 10.592 36.664C10.9333 36.0667 11.104 35.384 11.104 34.616V26.68C11.104 25.656 10.9333 24.888 10.592 24.376C10.336 23.864 9.61067 23.608 8.416 23.608H6.112C4.91733 23.608 3.936 23.224 3.168 22.456C2.4 21.688 2.016 20.7067 2.016 19.512C2.016 18.3173 2.4 17.336 3.168 16.568C3.936 15.7147 4.91733 15.288 6.112 15.288H40.288C41.4827 15.288 42.464 15.7147 43.232 16.568C44.0853 17.336 44.512 18.3173 44.512 19.512C44.512 20.7067 44.0853 21.688 43.232 22.456C42.464 23.224 41.4827 23.608 40.288 23.608H38.112C36.4907 23.608 35.68 24.5893 35.68 26.552V34.616C35.68 36.5787 36.4907 37.56 38.112 37.56H40.8C41.9093 37.56 42.848 37.944 43.616 38.712C44.4693 39.3947 44.896 40.3333 44.896 41.528C44.896 42.808 44.4693 43.8747 43.616 44.728C42.848 45.496 41.8667 45.88 40.672 45.88H5.728ZM31.072 72.504C33.2053 72.504 34.912 73.1013 36.192 74.296C37.5573 75.4907 38.24 77.1973 38.24 79.416V91.576C38.24 93.7093 37.5147 95.3733 36.064 96.568C34.6133 97.7627 32.9493 98.36 31.072 98.36H20.448C18.7413 98.36 17.5467 98.8293 16.864 99.768C16.2667 100.792 15.968 101.816 15.968 102.84V103.864C15.968 105.059 16.2667 106.253 16.864 107.448C17.4613 108.643 18.8267 109.24 20.96 109.24H35.296C36.4907 109.24 37.472 109.581 38.24 110.264C39.0933 111.032 39.52 112.013 39.52 113.208C39.52 114.403 39.0933 115.341 38.24 116.024C37.472 116.792 36.4907 117.176 35.296 117.176H14.432C12.5547 117.176 10.8907 116.536 9.44 115.256C8.07467 114.061 7.392 112.397 7.392 110.264V97.976C7.392 95.7573 8.11733 93.9653 9.568 92.6C11.0187 91.2347 12.8107 90.552 14.944 90.552H25.056C26.7627 90.552 27.9147 90.1253 28.512 89.272C29.1947 88.4187 29.536 87.4373 29.536 86.328V85.176C29.536 83.9813 29.1947 82.872 28.512 81.848C27.9147 80.9093 26.592 80.44 24.544 80.44H11.872C10.6773 80.44 9.65333 80.056 8.8 79.288C8.032 78.6053 7.648 77.6667 7.648 76.472C7.648 75.2773 8.032 74.296 8.8 73.528C9.65333 72.8453 10.6773 72.504 11.872 72.504H31.072ZM4.448 62.776C1.80267 62.776 0.48 61.4533 0.48 58.808C0.48 57.6133 0.821333 56.632 1.504 55.864C2.272 55.096 3.25333 54.712 4.448 54.712H40.544C41.7387 54.712 42.72 55.096 43.488 55.864C44.256 56.632 44.64 57.6133 44.64 58.808C44.64 60.0027 44.256 60.984 43.488 61.752C42.72 62.4347 41.7387 62.776 40.544 62.776H4.448ZM28 26.936C28 25.7413 27.7867 24.888 27.36 24.376C26.9333 23.864 26.08 23.608 24.8 23.608H21.984C20.704 23.608 19.8507 23.9067 19.424 24.504C18.9973 25.016 18.784 25.784 18.784 26.808V34.744C18.784 35.5973 18.9973 36.3227 19.424 36.92C19.8507 37.432 20.704 37.688 21.984 37.688H24.8C26.1653 37.688 27.0187 37.3893 27.36 36.792C27.7867 36.1947 28 35.512 28 34.744V26.936ZM78.437 0.439995C80.5703 0.439995 82.3197 1.03733 83.685 2.23199C85.0503 3.42666 85.733 5.21866 85.733 7.608V20.408C85.733 22.456 85.0077 24.0773 83.557 25.272C82.1063 26.4667 80.3997 27.064 78.437 27.064H68.581C66.8743 27.064 65.6797 27.6187 64.997 28.728C64.3997 29.752 64.101 30.8187 64.101 31.928V32.696C64.101 33.8907 64.3997 35.128 64.997 36.408C65.5943 37.6027 66.9597 38.2 69.093 38.2H82.917C84.197 38.2 85.221 38.584 85.989 39.352C86.8423 40.0347 87.269 40.9733 87.269 42.168C87.269 43.448 86.8423 44.472 85.989 45.24C85.221 45.9227 84.197 46.264 82.917 46.264H62.565C60.6877 46.264 59.0237 45.624 57.573 44.344C56.2077 42.9787 55.525 41.2293 55.525 39.096V26.68C55.525 24.4613 56.2503 22.712 57.701 21.432C59.237 20.0667 61.0717 19.384 63.205 19.384H72.549C74.2557 19.384 75.4077 18.9147 76.005 17.976C76.6877 16.952 77.029 15.8853 77.029 14.776V13.496C77.029 12.3013 76.6877 11.192 76.005 10.168C75.4077 9.05866 74.085 8.504 72.037 8.504H60.133C58.9383 8.504 57.9143 8.16266 57.061 7.48C56.293 6.712 55.909 5.73066 55.909 4.536C55.909 3.256 56.293 2.27466 57.061 1.592C57.9143 0.823995 58.9383 0.439995 60.133 0.439995H78.437ZM118.245 52.664C118.245 53.8587 117.861 54.8827 117.093 55.736C116.325 56.5893 115.344 57.016 114.149 57.016C112.954 57.016 111.93 56.5893 111.077 55.736C110.309 54.8827 109.925 53.8587 109.925 52.664V39.864C109.925 38.9253 109.669 38.072 109.157 37.304C108.73 36.4507 107.706 36.024 106.085 36.024H105.061C103.781 36.1093 102.842 36.536 102.245 37.304C101.733 37.9867 101.477 38.84 101.477 39.864V52.024C101.477 53.2187 101.093 54.2427 100.325 55.096C99.557 55.9493 98.5757 56.376 97.381 56.376C96.101 56.376 95.077 55.9493 94.309 55.096C93.541 54.2427 93.157 53.2187 93.157 52.024V16.568C93.157 13.752 94.565 12.344 97.381 12.344C99.3437 12.4293 100.496 13.0693 100.837 14.264C101.264 15.3733 101.477 16.1413 101.477 16.568V23.864C101.477 24.9733 101.69 25.9973 102.117 26.936C102.544 27.8747 103.568 28.344 105.189 28.344H106.213C107.92 28.2587 108.944 27.7893 109.285 26.936C109.712 25.9973 109.925 24.9733 109.925 23.864V16.568C109.925 16.1413 110.138 15.3733 110.565 14.264C111.077 13.0693 112.272 12.4293 114.149 12.344C116.88 12.344 118.245 13.752 118.245 16.568V52.664ZM102.373 79.928C100.752 78.4773 99.3863 77.7947 98.277 77.88C97.1677 78.0507 95.845 78.8187 94.309 80.184L85.349 87.992C84.325 88.8453 83.2157 89.144 82.021 88.888C80.8263 88.7173 79.8877 88.2907 79.205 87.608C78.2663 86.6693 77.8823 85.5173 78.053 84.152C78.2237 82.872 78.7357 81.9333 79.589 81.336C84.3677 78.0933 87.9943 75.1067 90.469 72.376C92.9437 69.7307 94.0957 66.232 93.925 61.88C93.925 60.6853 94.3517 59.704 95.205 58.936C96.0583 58.168 97.0823 57.784 98.277 57.784C99.4717 57.784 100.496 58.168 101.349 58.936C102.288 59.704 102.714 60.6853 102.629 61.88C102.458 64.7813 102.842 67.2133 103.781 69.176C104.805 71.1387 106.384 72.9733 108.517 74.68C110.736 76.472 113.466 78.52 116.709 80.824C117.562 81.5067 118.032 82.488 118.117 83.768C118.202 85.048 117.776 86.1573 116.837 87.096C116.069 87.864 115.045 88.248 113.765 88.248C112.57 88.248 111.504 87.864 110.565 87.096L102.373 79.928ZM155.601 52.152C155.601 53.3467 155.772 54.4133 156.113 55.352C156.454 56.2053 157.521 56.632 159.313 56.632H169.041C170.492 56.632 171.558 57.0587 172.241 57.912C172.924 58.7653 173.265 59.6613 173.265 60.6C173.265 61.7093 172.881 62.6907 172.113 63.544C171.345 64.312 170.321 64.696 169.041 64.696H133.201C131.921 64.696 130.897 64.312 130.129 63.544C129.446 62.6907 129.105 61.7093 129.105 60.6C129.105 59.6613 129.446 58.7653 130.129 57.912C130.812 57.0587 131.836 56.632 133.201 56.632H143.185C144.977 56.632 146.044 56.2053 146.385 55.352C146.726 54.4133 146.897 53.3467 146.897 52.152V48.824C146.897 47.7147 147.238 46.7333 147.921 45.88H133.841C132.646 45.88 131.665 45.496 130.897 44.728C130.214 43.8747 129.873 42.808 129.873 41.528C129.873 38.8827 131.196 37.56 133.841 37.56H136.529C137.638 37.56 138.364 37.2613 138.705 36.664C139.046 36.0667 139.217 35.384 139.217 34.616V26.68C139.217 25.656 139.046 24.888 138.705 24.376C138.449 23.864 137.724 23.608 136.529 23.608H134.225C133.03 23.608 132.049 23.224 131.281 22.456C130.513 21.688 130.129 20.7067 130.129 19.512C130.129 18.3173 130.513 17.336 131.281 16.568C132.049 15.7147 133.03 15.288 134.225 15.288H168.401C169.596 15.288 170.577 15.7147 171.345 16.568C172.198 17.336 172.625 18.3173 172.625 19.512C172.625 20.7067 172.198 21.688 171.345 22.456C170.577 23.224 169.596 23.608 168.401 23.608H166.225C164.604 23.608 163.793 24.5893 163.793 26.552V34.616C163.793 36.5787 164.604 37.56 166.225 37.56H168.913C170.022 37.56 170.961 37.944 171.729 38.712C172.582 39.3947 173.009 40.3333 173.009 41.528C173.009 42.808 172.582 43.8747 171.729 44.728C170.961 45.496 169.98 45.88 168.785 45.88H154.577C155.26 46.7333 155.601 47.7147 155.601 48.824V52.152ZM142.289 101.304C140.241 101.304 138.577 100.664 137.297 99.384C136.017 98.104 135.377 96.44 135.377 94.392V79.416C135.377 77.368 136.017 75.704 137.297 74.424C138.577 73.144 140.241 72.504 142.289 72.504H159.953C162.086 72.504 163.75 73.144 164.945 74.424C166.225 75.704 166.865 77.368 166.865 79.416V94.392C166.865 96.44 166.225 98.104 164.945 99.384C163.75 100.664 162.086 101.304 159.953 101.304H142.289ZM143.697 88.632C143.697 90.168 143.91 91.32 144.337 92.088C144.849 92.856 146.044 93.24 147.921 93.24H153.809C155.772 93.24 157.009 92.856 157.521 92.088C158.033 91.32 158.289 90.168 158.289 88.632V84.792C158.289 83.4267 157.99 82.36 157.393 81.592C156.881 80.824 155.644 80.44 153.681 80.44H148.177C146.385 80.44 145.19 80.824 144.593 81.592C143.996 82.4453 143.697 83.512 143.697 84.792V88.632ZM156.113 26.936C156.113 25.7413 155.9 24.888 155.473 24.376C155.046 23.864 154.193 23.608 152.913 23.608H150.097C148.817 23.608 147.964 23.9067 147.537 24.504C147.11 25.016 146.897 25.784 146.897 26.808V34.744C146.897 35.5973 147.11 36.3227 147.537 36.92C147.964 37.432 148.817 37.688 150.097 37.688H152.913C154.278 37.688 155.132 37.3893 155.473 36.792C155.9 36.1947 156.113 35.512 156.113 34.744V26.936Z" fill="#443939"/>
</svg>
