<svg width="214" height="101" viewBox="0 0 214 101" fill="none" xmlns="http://www.w3.org/2000/svg">
<path d="M42.24 48.104C44.4587 50.92 46.336 54.376 47.872 58.472C49.408 62.568 50.176 66.92 50.176 71.528C50.176 76.0507 49.5787 80.0187 48.384 83.432C47.2747 86.8453 45.7387 89.5333 43.776 91.496C41.8987 93.4587 39.9787 95.08 38.016 96.36C36.1387 97.64 34.0907 98.536 31.872 99.048C28.544 99.816 26.0267 100.2 24.32 100.2C16.8107 100.2 10.88 98.024 6.528 93.672C2.26133 89.32 0.128 83.6453 0.128 76.648C0.128 72.7227 1.06667 69.0533 2.944 65.64C4.90667 62.1413 7.38133 60.392 10.368 60.392C11.392 60.392 12.2027 60.776 12.8 61.544C13.4827 62.312 13.9093 63.6347 14.08 65.512C14.2507 67.3893 14.6347 69.224 15.232 71.016C15.8293 72.7227 16.4693 74.0027 17.152 74.856C17.8347 75.624 18.6027 76.264 19.456 76.776C20.6507 77.3733 21.6747 77.672 22.528 77.672C24.6613 77.672 26.3253 76.9467 27.52 75.496C28.7147 73.96 29.312 71.9547 29.312 69.48C29.312 67.0053 28.5013 64.3173 26.88 61.416C25.2587 58.4293 23.296 55.6133 20.992 52.968C18.7733 50.2373 16.512 47.5067 14.208 44.776C8.66133 38.2053 5.888 31.976 5.888 26.088C5.888 18.408 8.448 12.52 13.568 8.424C18.7733 4.24266 25.3867 2.15199 33.408 2.15199C37.8453 2.15199 41.0027 3.00533 42.88 4.712C44.8427 6.41866 45.824 9.448 45.824 13.8C45.824 18.0667 44.5867 20.2 42.112 20.2C41.2587 20.2 40.1067 19.9013 38.656 19.304C37.2907 18.6213 35.712 18.28 33.92 18.28C32.128 18.28 30.6347 19.0053 29.44 20.456C28.2453 21.9067 27.648 23.7413 27.648 25.96C27.648 28.0933 28.416 30.3973 29.952 32.872C31.488 35.3467 33.3653 37.8213 35.584 40.296C37.8027 42.6853 40.0213 45.288 42.24 48.104ZM83.61 1.51199C87.7913 1.51199 91.7593 2.83466 95.514 5.48C105.839 12.7333 111.002 28.6907 111.002 53.352C111.002 64.104 108.826 74.3013 104.474 83.944C102.341 88.808 99.2687 92.7333 95.258 95.72C91.2473 98.7067 86.81 100.2 81.946 100.2C77.1673 100.2 73.0713 99.1333 69.658 97C66.33 94.952 63.642 92.3493 61.594 89.192C59.6313 86.0347 58.01 82.408 56.73 78.312C54.5967 71.4 53.53 64.616 53.53 57.96C53.53 51.2187 53.9993 45.032 54.938 39.4C55.8767 33.768 57.37 27.9653 59.418 21.992C61.466 16.0187 64.5807 11.112 68.762 7.272C72.9433 3.43199 77.8927 1.51199 83.61 1.51199ZM85.018 17.128C82.3727 17.128 79.898 19.3893 77.594 23.912C75.3753 28.4347 73.6687 33.64 72.474 39.528C71.3647 45.416 70.81 50.9627 70.81 56.168C70.81 61.3733 71.5353 65.384 72.986 68.2C74.522 71.016 76.4847 72.424 78.874 72.424C82.5433 72.424 85.7007 69.224 88.346 62.824C91.0767 56.424 92.442 47.208 92.442 35.176C92.442 23.144 89.9673 17.128 85.018 17.128ZM139.77 39.528C145.658 35.7733 148.602 30.312 148.602 23.144C148.602 20.6693 148.047 18.4933 146.938 16.616C145.829 14.7387 144.037 13.8 141.562 13.8C136.783 13.8 134.394 20.1147 134.394 32.744C134.394 33.9387 134.479 35.816 134.65 38.376C134.821 39.8267 135.589 40.552 136.954 40.552C137.807 40.552 138.746 40.2107 139.77 39.528ZM159.482 41.576C158.202 42.5147 157.562 43.7947 157.562 45.416C157.562 45.928 157.605 46.312 157.69 46.568C159.311 57.064 161.871 67.3893 165.37 77.544C166.479 80.7867 168.101 83.0907 170.234 84.456C172.367 85.736 173.434 87.3147 173.434 89.192C173.434 92.0933 171.514 94.4827 167.674 96.36C163.919 98.152 160.421 99.048 157.178 99.048C153.679 99.048 151.247 97.5973 149.882 94.696C149.626 94.2693 149.498 94.0133 149.498 93.928C147.109 89.32 145.146 80.1893 143.61 66.536C142.927 60.392 142.501 56.936 142.33 56.168C142.33 55.2293 141.733 54.76 140.538 54.76C138.149 54.76 136.527 55.656 135.674 57.448C134.991 59.24 134.65 63.6347 134.65 70.632C134.65 77.6293 134.863 82.4507 135.29 85.096C135.802 87.7413 136.058 89.4053 136.058 90.088C136.058 93.2453 133.925 95.848 129.658 97.896C125.477 99.944 121.551 100.968 117.882 100.968C114.981 100.968 113.53 99.56 113.53 96.744L113.914 94.184C116.047 78.312 117.114 61.928 117.114 45.032L116.602 26.216C116.602 24.0827 115.877 21.864 114.426 19.56C113.061 17.256 112.378 15.464 112.378 14.184C112.378 10.1733 115.962 6.93066 123.13 4.45599C130.298 1.98133 136.869 0.743996 142.842 0.743996C146.938 0.743996 150.693 1.256 154.106 2.28C157.605 3.21866 160.335 4.37066 162.298 5.73599C164.346 7.10133 166.095 9.064 167.546 11.624C168.997 14.184 169.722 17.2133 169.722 20.712C169.722 29.16 166.309 36.1147 159.482 41.576ZM186.517 3.30399L198.677 3.94399C202.773 3.94399 205.76 3.47466 207.637 2.536C208.746 2.10933 209.813 1.896 210.837 1.896C212.8 1.896 213.781 3.304 213.781 6.12C213.781 8.33866 213.269 10.8987 212.245 13.8L211.861 15.208C210.24 20.2427 206.613 22.76 200.981 22.76C199.786 22.76 199.189 23.4427 199.189 24.808C198.933 32.4027 198.805 42.856 198.805 56.168C198.805 69.3947 199.36 79.976 200.469 87.912C200.64 88.424 200.725 89.0213 200.725 89.704C200.725 91.752 199.744 93.544 197.781 95.08C193.344 98.664 188.01 100.456 181.781 100.456C178.794 100.456 177.301 99.048 177.301 96.232L177.685 93.8C180.501 72.04 181.909 49.128 181.909 25.064C181.909 24.4667 181.781 24.04 181.525 23.784C181.269 23.528 180.416 23.4 178.965 23.4C177.514 23.4 176.021 23.8693 174.485 24.808C172.864 25.7467 171.626 26.216 170.773 26.216C168.981 26.216 168.085 24.9787 168.085 22.504C168.085 19.944 168.725 16.9573 170.005 13.544C171.2 10.1307 172.906 7.57066 175.125 5.864C177.258 4.15733 181.056 3.30399 186.517 3.30399Z" fill="black"/>
</svg>
