<svg width="388" height="385" viewBox="0 0 388 385" fill="none" xmlns="http://www.w3.org/2000/svg">
<path d="M372.778 314.191C363.045 292.579 348.921 272.949 331.192 256.393C313.517 239.789 292.58 226.55 269.536 217.409C269.329 217.312 269.123 217.264 268.917 217.167C301.06 195.402 321.957 159.949 321.957 119.95C321.957 53.6872 264.686 0 194 0C123.314 0 66.0434 53.6872 66.0434 119.95C66.0434 159.949 86.9395 195.402 119.083 217.215C118.877 217.312 118.671 217.361 118.464 217.457C95.3496 226.599 74.6082 239.706 56.8078 256.441C39.0956 273.01 24.9737 292.637 15.2219 314.239C5.64181 335.388 0.475036 358.062 0.00129019 381.034C-0.0124809 381.55 0.0841071 382.064 0.285366 382.544C0.486624 383.025 0.78848 383.463 1.17315 383.833C1.55781 384.202 2.01751 384.496 2.52514 384.696C3.03277 384.897 3.57808 385 4.12892 385H35.0862C37.3564 385 39.1622 383.307 39.2138 381.227C40.2457 343.888 56.2403 308.919 84.5146 282.414C113.769 254.99 152.62 239.899 194 239.899C235.38 239.899 274.231 254.99 303.485 282.414C331.76 308.919 347.754 343.888 348.786 381.227C348.838 383.356 350.644 385 352.914 385H383.871C384.422 385 384.967 384.897 385.475 384.696C385.983 384.496 386.442 384.202 386.827 383.833C387.212 383.463 387.513 383.025 387.715 382.544C387.916 382.064 388.012 381.55 387.999 381.034C387.483 357.915 382.375 335.424 372.778 314.191V314.191ZM194 203.141C170.318 203.141 148.028 194.483 131.26 178.764C114.491 163.045 105.256 142.15 105.256 119.95C105.256 97.7494 114.491 76.8549 131.26 61.1357C148.028 45.4165 170.318 36.7588 194 36.7588C217.682 36.7588 239.971 45.4165 256.74 61.1357C273.509 76.8549 282.744 97.7494 282.744 119.95C282.744 142.15 273.509 163.045 256.74 178.764C239.971 194.483 217.682 203.141 194 203.141Z" fill="black"/>
</svg>
