<svg width="513" height="510" viewBox="0 0 513 510" fill="none" xmlns="http://www.w3.org/2000/svg">
<path d="M448.102 0H64.1025C28.8525 0 0.102478 28.75 0.102478 63.1V350.2C0.102478 385.45 28.8525 413.3 64.1025 413.3H160.102V497.28C160.102 507.116 171.122 512.83 179.222 506.98L304.122 413.3H448.122C483.372 413.3 512.122 384.55 512.122 350.2V63.1C512.102 28.75 484.202 0 448.102 0ZM465.002 352C465.002 360.75 457.752 368 449.002 368H289.002L209.002 428V368H65.0025C56.2525 368 49.0025 360.75 49.0025 352V64C49.0025 55.25 56.2525 48 65.0025 48H449.002C457.752 48 465.002 55.25 465.002 64V352Z" fill="black"/>
</svg>
