<svg width="287" height="230" viewBox="0 0 287 230" fill="none" xmlns="http://www.w3.org/2000/svg">
<path d="M80.5614 189.445L90.9878 193.917C107.133 200.833 125.163 204.441 143.47 204.419H143.518C165.59 204.419 187.166 199.174 205.518 189.346C223.87 179.519 238.174 165.552 246.62 149.21C255.067 132.868 257.277 114.886 252.971 97.538C248.665 80.1896 238.036 64.2542 222.429 51.7467C206.822 39.2393 186.937 30.7216 165.29 27.2708C143.642 23.82 121.203 25.591 100.812 32.36C80.42 39.129 62.991 50.5919 50.7285 65.2991C38.4661 80.0063 31.921 97.2973 31.921 114.986V115.024C31.8928 129.695 36.3948 144.144 45.0257 157.083L50.6056 165.439L42.0285 196.319L80.5614 189.445V189.445ZM0.036157 229.971L16.9033 169.131C5.23254 151.609 -0.575517 131.963 0.0449829 112.107C0.665482 92.2509 7.69337 72.8624 20.4439 55.8303C33.1945 38.7983 51.2328 24.7035 72.8015 14.9192C94.3702 5.13501 118.734 -0.0050003 143.518 3.65012e-06C181.572 3.65012e-06 218.067 12.1145 244.975 33.6785C271.883 55.2424 287 84.4895 287 114.986C287.006 134.848 280.592 154.372 268.383 171.657C256.174 188.942 238.587 203.398 217.333 213.616C196.08 223.835 171.887 229.467 147.11 229.964C122.334 230.461 97.8187 225.807 75.954 216.454L0.036157 229.971Z" fill="black"/>
</svg>
