<svg width="1274" height="570" viewBox="0 0 1274 570" fill="none" xmlns="http://www.w3.org/2000/svg">
<g filter="url(#filter0_d_607_269)">
<path d="M527.468 279.96V283.812H535.208V279.96H527.468ZM518.072 274.92V278.52C518.072 283.236 515.768 287.844 510.26 289.68L512.78 293.424C519.08 291.12 521.924 285.324 521.924 278.52V274.92H518.072ZM519.116 274.92V278.556C519.116 284.856 521.852 290.436 527.828 292.596L530.384 288.924C525.128 287.124 522.932 282.84 522.932 278.556V274.92H519.116ZM533.552 272.904V297.492H538.34V272.904H533.552ZM516.272 301.812V305.628H539.06V301.812H516.272ZM516.272 295.008V303.936H521.096V295.008H516.272ZM556.193 288.888V293.532H560.981V288.888H556.193ZM543.557 286.08V289.824H573.689V286.08H543.557ZM547.265 273.84V284.316H569.873V273.84H547.265ZM565.157 277.548V280.644H551.981V277.548H565.157ZM547.013 291.912V295.476H565.337V297.168H547.049V303.432H551.765V300.48H570.053V291.912H547.013ZM547.049 302.388V305.988H570.917V302.388H547.049ZM605.162 272.868V292.308H609.95V272.868H605.162ZM608.618 280.428V284.352H614.378V280.428H608.618ZM584.678 274.812V290.688H600.698V274.812H595.946V279.024H589.43V274.812H584.678ZM589.43 282.696H595.946V286.944H589.43V282.696ZM588.278 293.784V304.728H593.066V297.564H610.13V293.784H588.278ZM588.278 302.028V305.808H610.778V302.028H588.278ZM626.111 274.632C620.963 274.632 617.039 277.98 617.039 282.696C617.039 287.412 620.963 290.796 626.111 290.796C631.259 290.796 635.183 287.412 635.183 282.696C635.183 277.98 631.259 274.632 626.111 274.632ZM626.111 278.628C628.631 278.628 630.503 280.14 630.503 282.696C630.503 285.288 628.631 286.764 626.111 286.764C623.591 286.764 621.719 285.288 621.719 282.696C621.719 280.14 623.591 278.628 626.111 278.628ZM638.279 272.868V291.48H643.067V272.868H638.279ZM641.735 279.996V283.884H647.495V279.996H641.735ZM623.879 292.884V294.108C623.879 297.384 622.079 300.768 617.723 302.316L620.099 305.808C625.283 303.9 627.443 299.22 627.443 294.108V292.884H623.879ZM625.067 292.884V294.108C625.067 299.076 626.975 304.116 632.267 306.132L634.247 302.604C630.107 300.876 628.523 297.42 628.523 294.108V292.884H625.067ZM636.011 292.884V294.108C636.011 297.096 634.391 300.732 630.287 302.604L632.267 306.132C637.523 304.044 639.467 298.752 639.467 294.108V292.884H636.011ZM637.127 292.884V294.108C637.127 299.436 639.251 303.936 644.507 305.808L646.847 302.316C642.491 300.876 640.727 297.636 640.727 294.108V292.884H637.127ZM653.684 281.868V285.648H676.796V281.868H653.684ZM649.94 289.104V292.92H680.144V289.104H649.94ZM653.684 274.056V283.74H658.436V274.056H653.684ZM653.36 301.668V305.484H676.976V301.668H653.36ZM653.36 295.584V302.676H658.148V295.584H653.36ZM707.141 272.868V306.204H711.713V272.868H707.141ZM694.469 285.036V288.888H702.209V285.036H694.469ZM700.265 273.444V304.728H704.729V273.444H700.265ZM684.029 294.864V298.824H686.333C691.193 298.824 694.505 298.68 698.213 297.924L697.853 294.036C694.181 294.756 691.049 294.864 686.333 294.864H684.029ZM684.029 276.612V296.52H688.745V280.428H696.737V276.612H684.029ZM730.694 275.424V280.284C730.694 286.476 728.138 292.884 722.522 295.512L725.402 299.364C731.702 296.268 734.582 288.528 734.582 280.284V275.424H730.694ZM731.666 275.424V280.284C731.666 288.276 734.294 295.692 740.306 298.752L743.186 294.936C737.858 292.344 735.482 286.26 735.482 280.284V275.424H731.666ZM744.518 272.868V306.204H749.342V272.868H744.518ZM748.262 285.684V289.68H754.166V285.684H748.262ZM763.091 284.028V290.148H767.879V284.028H763.091ZM774.827 284.028V290.148H779.579V284.028H774.827ZM756.323 288.672V292.452H786.455V288.672H756.323ZM771.335 294.144C764.099 294.144 759.743 296.304 759.743 300.156C759.743 304.044 764.099 306.204 771.335 306.204C778.535 306.204 782.891 304.044 782.891 300.156C782.891 296.304 778.535 294.144 771.335 294.144ZM771.335 297.744C775.799 297.744 778.067 298.5 778.067 300.156C778.067 301.848 775.799 302.604 771.335 302.604C766.871 302.604 764.603 301.848 764.603 300.156C764.603 298.5 766.871 297.744 771.335 297.744ZM771.407 273.336C764.027 273.336 759.347 275.784 759.347 279.78C759.347 283.74 764.027 286.116 771.407 286.116C778.751 286.116 783.467 283.74 783.467 279.78C783.467 275.784 778.751 273.336 771.407 273.336ZM771.407 277.008C775.979 277.008 778.535 277.908 778.535 279.78C778.535 281.616 775.979 282.516 771.407 282.516C766.835 282.516 764.279 281.616 764.279 279.78C764.279 277.908 766.835 277.008 771.407 277.008ZM810.824 272.868V306.204H815.576V272.868H810.824ZM814.496 285.864V289.86H820.4V285.864H814.496ZM789.296 277.8V281.616H808.7V277.8H789.296ZM799.052 283.488C794.192 283.488 790.592 286.8 790.592 291.444C790.592 296.088 794.192 299.4 799.052 299.4C803.912 299.4 807.512 296.088 807.512 291.444C807.512 286.8 803.912 283.488 799.052 283.488ZM799.052 287.376C801.32 287.376 802.94 288.888 802.94 291.444C802.94 294 801.32 295.512 799.052 295.512C796.784 295.512 795.164 294 795.164 291.444C795.164 288.888 796.784 287.376 799.052 287.376ZM796.64 273.408V279.24H801.428V273.408H796.64ZM845.525 272.868V306.204H850.349V272.868H845.525ZM835.697 276.324V277.188C835.697 286.116 832.241 292.164 822.665 296.772L825.149 300.588C836.993 294.864 840.449 286.512 840.449 276.324H835.697ZM824.429 276.324V280.104H837.965V276.324H824.429ZM870.194 275.208C865.802 275.208 862.994 279.78 862.994 287.304C862.994 294.864 865.802 299.436 870.194 299.436C874.622 299.436 877.466 294.864 877.466 287.304C877.466 279.78 874.622 275.208 870.194 275.208ZM870.194 279.708C872.03 279.708 873.074 282.228 873.074 287.304C873.074 292.416 872.03 294.9 870.194 294.9C868.394 294.9 867.35 292.416 867.35 287.304C867.35 282.228 868.394 279.708 870.194 279.708ZM886.79 272.868V306.204H891.362V272.868H886.79ZM882.794 285.576V289.428H888.302V285.576H882.794ZM879.482 273.372V304.692H883.982V273.372H879.482ZM919.907 272.868V306.204H924.479V272.868H919.907ZM915.911 285.576V289.428H921.419V285.576H915.911ZM912.599 273.372V304.692H917.099V273.372H912.599ZM896.759 276.288V297.888H909.935V276.288H896.759ZM905.471 280.032V294.144H901.223V280.032H905.471ZM950.396 272.832V290.832H955.184V272.832H950.396ZM953.276 279.96V283.848H959.612V279.96H953.276ZM933.152 292.164V295.62H950.468V297.384H933.224V303.648H937.976V300.624H955.184V292.164H933.152ZM933.224 302.46V305.988H956.156V302.46H933.224ZM928.94 275.316V278.916H948.56V275.316H928.94ZM938.768 279.708C933.8 279.708 930.56 281.832 930.56 285.18C930.56 288.528 933.8 290.58 938.768 290.58C943.7 290.58 946.94 288.528 946.94 285.18C946.94 281.832 943.7 279.708 938.768 279.708ZM938.768 283.056C941 283.056 942.368 283.776 942.368 285.18C942.368 286.512 941 287.232 938.768 287.232C936.536 287.232 935.168 286.512 935.168 285.18C935.168 283.776 936.536 283.056 938.768 283.056ZM936.356 272.616V277.872H941.144V272.616H936.356ZM979.877 273.372V304.692H984.233V273.372H979.877ZM982.469 285.756V289.608H988.337V285.756H982.469ZM962.597 294.252V298.176H964.109C965.837 298.176 967.601 298.14 969.977 297.6L969.653 293.712C967.421 294.216 965.693 294.252 964.109 294.252H962.597ZM962.597 276.828V296.376H966.953V280.644H969.617V276.828H962.597ZM970.877 294.252V298.176H972.425C974.441 298.176 976.385 298.14 978.869 297.564L978.545 293.676C976.169 294.216 974.297 294.252 972.425 294.252H970.877ZM970.877 276.828V296.34H975.161V280.644H978.149V276.828H970.877ZM986.645 272.868V306.204H991.145V272.868H986.645ZM994.454 306.348C994.502 302.94 994.97 300.168 995.858 298.032C997.034 297.408 998.174 297.096 999.278 297.096C999.734 297.096 1000.35 297.192 1001.11 297.384C1000.61 300.048 999.302 302.676 997.19 305.268C996.302 306.012 995.57 306.384 994.994 306.384C994.754 306.384 994.574 306.372 994.454 306.348Z" fill="black"/>
<path d="M695.74 337.236V341.016H704.956V337.236H695.74ZM680.512 351.024V354.84H710.536V351.024H680.512ZM693.724 345.192V352.644H698.44V345.192H693.724ZM703.012 337.236V339.324C703.012 341.592 703.012 344.4 701.968 348.432L706.612 348.972C707.656 344.868 707.656 341.664 707.656 339.324V337.236H703.012ZM683.716 357.468V361.284H702.004V369.06H706.792V357.468H683.716ZM682.888 337.236V341.016H690.844V337.236H682.888ZM688.576 337.236V338.676C688.576 340.656 688.576 343.644 686.884 348.36L691.492 349.008C693.22 344.4 693.22 340.836 693.22 338.676V337.236H688.576ZM743.556 335.868V352.932H748.38V335.868H743.556ZM725.808 354.264V357.936H743.628V359.844H725.88V367.296H730.596V363.264H748.38V354.264H725.808ZM725.88 365.28V368.988H749.28V365.28H725.88ZM722.028 337.884V341.556H739.992V337.884H722.028ZM721.632 352.356C727.392 352.32 734.88 352.176 741.468 351.096L741.216 347.676C734.772 348.468 726.996 348.576 721.164 348.576L721.632 352.356ZM724.656 339.54V350.448H729.228V339.54H724.656ZM732.72 339.54V350.448H737.364V339.54H732.72ZM760.366 352.788V362.148H765.118V352.788H760.366ZM772.462 352.788V362.148H777.25V352.788H772.462ZM753.742 361.464V365.352H783.91V361.464H753.742ZM768.79 337.488C761.59 337.488 756.334 341.016 756.334 346.452C756.334 351.888 761.59 355.38 768.79 355.38C775.954 355.38 781.246 351.888 781.246 346.452C781.246 341.016 775.954 337.488 768.79 337.488ZM768.79 341.232C773.434 341.232 776.53 343.14 776.53 346.452C776.53 349.728 773.434 351.672 768.79 351.672C764.146 351.672 761.05 349.728 761.05 346.452C761.05 343.14 764.146 341.232 768.79 341.232ZM815.238 335.868V369.204H819.99V335.868H815.238ZM818.91 348.864V352.86H824.814V348.864H818.91ZM793.71 340.8V344.616H813.114V340.8H793.71ZM803.466 346.488C798.606 346.488 795.006 349.8 795.006 354.444C795.006 359.088 798.606 362.4 803.466 362.4C808.326 362.4 811.926 359.088 811.926 354.444C811.926 349.8 808.326 346.488 803.466 346.488ZM803.466 350.376C805.734 350.376 807.354 351.888 807.354 354.444C807.354 357 805.734 358.512 803.466 358.512C801.198 358.512 799.578 357 799.578 354.444C799.578 351.888 801.198 350.376 803.466 350.376ZM801.054 336.408V342.24H805.842V336.408H801.054ZM834.999 341.124V344.868C834.999 350.52 832.299 356.676 826.719 359.16L829.419 362.94C835.683 360.096 838.815 352.572 838.815 344.868V341.124H834.999ZM836.079 341.124V344.868C836.079 352.284 839.175 359.376 845.511 362.112L848.103 358.332C842.523 356.028 839.859 350.268 839.859 344.868V341.124H836.079ZM828.051 339.072V342.996H846.735V339.072H828.051ZM849.831 335.868V369.204H854.655V335.868H849.831ZM861.06 338.604V354.696H876.936V338.604H861.06ZM872.22 342.384V350.916H865.776V342.384H872.22ZM881.544 335.868V360.168H886.332V335.868H881.544ZM884.964 345.48V349.404H890.76V345.48H884.964ZM864.84 364.812V368.628H887.52V364.812H864.84ZM864.84 357.792V366.72H869.628V357.792H864.84ZM903.693 337.812V341.592H924.609V337.812H903.693ZM900.273 351.996V355.848H930.405V351.996H900.273ZM912.765 354.696V369.24H917.589V354.696H912.765ZM922.161 337.812V340.764C922.161 344.22 922.161 348.18 920.865 353.76L925.581 354.3C926.877 348.396 926.877 344.364 926.877 340.764V337.812H922.161ZM954.738 335.868V369.204H959.49V335.868H954.738ZM958.41 348.864V352.86H964.314V348.864H958.41ZM933.21 340.8V344.616H952.614V340.8H933.21ZM942.966 346.488C938.106 346.488 934.506 349.8 934.506 354.444C934.506 359.088 938.106 362.4 942.966 362.4C947.826 362.4 951.426 359.088 951.426 354.444C951.426 349.8 947.826 346.488 942.966 346.488ZM942.966 350.376C945.234 350.376 946.854 351.888 946.854 354.444C946.854 357 945.234 358.512 942.966 358.512C940.698 358.512 939.078 357 939.078 354.444C939.078 351.888 940.698 350.376 942.966 350.376ZM940.554 336.408V342.24H945.342V336.408H940.554ZM989.439 335.868V369.204H994.263V335.868H989.439ZM979.611 339.324V340.188C979.611 349.116 976.155 355.164 966.579 359.772L969.063 363.588C980.907 357.864 984.363 349.512 984.363 339.324H979.611ZM968.343 339.324V343.104H981.879V339.324H968.343ZM1015.76 338.172C1010.76 338.172 1007.16 342.78 1007.16 350.052C1007.16 357.396 1010.76 362.004 1015.76 362.004C1020.73 362.004 1024.37 357.396 1024.37 350.052C1024.37 342.78 1020.73 338.172 1015.76 338.172ZM1015.76 342.528C1018.21 342.528 1019.8 345.156 1019.8 350.052C1019.8 355.02 1018.21 357.684 1015.76 357.684C1013.35 357.684 1011.73 355.02 1011.73 350.052C1011.73 345.156 1013.35 342.528 1015.76 342.528ZM1029.84 335.832V369.276H1034.59V335.832H1029.84ZM1022.96 347.856V351.708H1031.86V347.856H1022.96ZM1062.85 335.832V369.276H1067.64V335.832H1062.85ZM1057.38 342.924V346.776H1063.64V342.924H1057.38ZM1040.89 357.936V361.86H1043.52C1048.59 361.86 1052.84 361.752 1057.74 360.996L1057.34 357.108C1052.55 357.828 1048.45 357.936 1043.52 357.936H1040.89ZM1040.82 338.64V342.456H1051V347.784H1040.89V358.8H1045.64V351.564H1055.72V338.64H1040.82ZM1057.3 351.996V355.848H1063.57V351.996H1057.3ZM1085.49 351.744V356.388H1090.28V351.744H1085.49ZM1087.94 336.192C1080.31 336.192 1075.88 338.172 1075.88 341.844C1075.88 345.516 1080.31 347.532 1087.94 347.532C1095.53 347.532 1100 345.516 1100 341.844C1100 338.172 1095.53 336.192 1087.94 336.192ZM1087.94 339.684C1092.76 339.684 1095.03 340.368 1095.03 341.844C1095.03 343.392 1092.76 344.04 1087.94 344.04C1083.11 344.04 1080.85 343.392 1080.85 341.844C1080.85 340.368 1083.11 339.684 1087.94 339.684ZM1072.85 348.972V352.752H1102.99V348.972H1072.85ZM1076.31 354.912V358.476H1094.63V360.168H1076.35V366.432H1081.06V363.48H1099.35V354.912H1076.31ZM1076.35 365.388V368.988H1100.21V365.388H1076.35ZM1123.79 336.372V367.692H1128.15V336.372H1123.79ZM1126.38 348.756V352.608H1132.25V348.756H1126.38ZM1106.51 357.252V361.176H1108.02C1109.75 361.176 1111.52 361.14 1113.89 360.6L1113.57 356.712C1111.34 357.216 1109.61 357.252 1108.02 357.252H1106.51ZM1106.51 339.828V359.376H1110.87V343.644H1113.53V339.828H1106.51ZM1114.79 357.252V361.176H1116.34C1118.36 361.176 1120.3 361.14 1122.78 360.564L1122.46 356.676C1120.08 357.216 1118.21 357.252 1116.34 357.252H1114.79ZM1114.79 339.828V359.34H1119.08V343.644H1122.06V339.828H1114.79ZM1130.56 335.868V369.204H1135.06V335.868H1130.56Z" fill="black"/>
<path d="M7.68 91.56H53.504V105.384H22.912V131.496H51.328V145.192H22.912V173.864H55.296V187.432H7.68V91.56ZM89.6 187.944H75.264V91.048H89.6V187.944ZM142.794 113.96H153.418V91.048H167.37V146.344H153.418V126.888H140.49L137.034 146.344H121.418L124.618 128.936H103.882V116.008H126.922L128.714 105.896H102.346V91.56H144.458V104.744L142.794 113.96ZM150.218 168.232L129.866 187.944H109.77L144.714 153.512H155.594L190.538 187.944H170.442L150.218 168.232ZM187.85 156.584H173.77V91.048H187.85V156.584ZM231.956 105.384H201.62V91.56H247.956V105.384L234.132 187.432H218.388L231.956 105.384ZM286.1 187.944H271.508V141.224H250.004V127.016H271.508V91.048H286.1V187.944ZM348.382 187.944V91.048H362.334V129.96H372.318V91.048H386.27V187.944H372.318V143.784H362.334V187.944H348.382ZM338.91 187.432H301.406V132.264H324.702V105.512H301.406V91.56H339.294V147.112H315.998V173.992H338.91V187.432Z" fill="#FFFEF2"/>
<path d="M7.68 91.56V90.56H6.68V91.56H7.68ZM53.504 91.56H54.504V90.56H53.504V91.56ZM53.504 105.384V106.384H54.504V105.384H53.504ZM22.912 105.384V104.384H21.912V105.384H22.912ZM22.912 131.496H21.912V132.496H22.912V131.496ZM51.328 131.496H52.328V130.496H51.328V131.496ZM51.328 145.192V146.192H52.328V145.192H51.328ZM22.912 145.192V144.192H21.912V145.192H22.912ZM22.912 173.864H21.912V174.864H22.912V173.864ZM55.296 173.864H56.296V172.864H55.296V173.864ZM55.296 187.432V188.432H56.296V187.432H55.296ZM7.68 187.432H6.68V188.432H7.68V187.432ZM89.6 187.944V188.944H90.6V187.944H89.6ZM75.264 187.944H74.264V188.944H75.264V187.944ZM75.264 91.048V90.048H74.264V91.048H75.264ZM89.6 91.048H90.6V90.048H89.6V91.048ZM7.68 92.56H53.504V90.56H7.68V92.56ZM52.504 91.56V105.384H54.504V91.56H52.504ZM53.504 104.384H22.912V106.384H53.504V104.384ZM21.912 105.384V131.496H23.912V105.384H21.912ZM22.912 132.496H51.328V130.496H22.912V132.496ZM50.328 131.496V145.192H52.328V131.496H50.328ZM51.328 144.192H22.912V146.192H51.328V144.192ZM21.912 145.192V173.864H23.912V145.192H21.912ZM22.912 174.864H55.296V172.864H22.912V174.864ZM54.296 173.864V187.432H56.296V173.864H54.296ZM55.296 186.432H7.68V188.432H55.296V186.432ZM8.68 187.432V91.56H6.68V187.432H8.68ZM89.6 186.944H75.264V188.944H89.6V186.944ZM76.264 187.944V91.048H74.264V187.944H76.264ZM75.264 92.048H89.6V90.048H75.264V92.048ZM88.6 91.048V187.944H90.6V91.048H88.6ZM142.794 113.96L141.81 113.782L141.597 114.96H142.794V113.96ZM153.418 113.96V114.96H154.418V113.96H153.418ZM153.418 91.048V90.048H152.418V91.048H153.418ZM167.37 91.048H168.37V90.048H167.37V91.048ZM167.37 146.344V147.344H168.37V146.344H167.37ZM153.418 146.344H152.418V147.344H153.418V146.344ZM153.418 126.888H154.418V125.888H153.418V126.888ZM140.49 126.888V125.888H139.652L139.505 126.713L140.49 126.888ZM137.034 146.344V147.344H137.872L138.019 146.519L137.034 146.344ZM121.418 146.344L120.434 146.163L120.217 147.344H121.418V146.344ZM124.618 128.936L125.602 129.117L125.819 127.936H124.618V128.936ZM103.882 128.936H102.882V129.936H103.882V128.936ZM103.882 116.008V115.008H102.882V116.008H103.882ZM126.922 116.008V117.008H127.76L127.907 116.182L126.922 116.008ZM128.714 105.896L129.699 106.07L129.907 104.896H128.714V105.896ZM102.346 105.896H101.346V106.896H102.346V105.896ZM102.346 91.56V90.56H101.346V91.56H102.346ZM144.458 91.56H145.458V90.56H144.458V91.56ZM144.458 104.744L145.442 104.922L145.458 104.834V104.744H144.458ZM150.218 168.232L150.916 167.516L150.22 166.838L149.522 167.514L150.218 168.232ZM129.866 187.944V188.944H130.271L130.562 188.662L129.866 187.944ZM109.77 187.944L109.068 187.232L107.33 188.944H109.77V187.944ZM144.714 153.512V152.512H144.304L144.012 152.8L144.714 153.512ZM155.594 153.512L156.296 152.8L156.004 152.512H155.594V153.512ZM190.538 187.944V188.944H192.978L191.24 187.232L190.538 187.944ZM170.442 187.944L169.744 188.66L170.035 188.944H170.442V187.944ZM187.85 156.584V157.584H188.85V156.584H187.85ZM173.77 156.584H172.77V157.584H173.77V156.584ZM173.77 91.048V90.048H172.77V91.048H173.77ZM187.85 91.048H188.85V90.048H187.85V91.048ZM142.794 114.96H153.418V112.96H142.794V114.96ZM154.418 113.96V91.048H152.418V113.96H154.418ZM153.418 92.048H167.37V90.048H153.418V92.048ZM166.37 91.048V146.344H168.37V91.048H166.37ZM167.37 145.344H153.418V147.344H167.37V145.344ZM154.418 146.344V126.888H152.418V146.344H154.418ZM153.418 125.888H140.49V127.888H153.418V125.888ZM139.505 126.713L136.049 146.169L138.019 146.519L141.475 127.063L139.505 126.713ZM137.034 145.344H121.418V147.344H137.034V145.344ZM122.402 146.525L125.602 129.117L123.634 128.755L120.434 146.163L122.402 146.525ZM124.618 127.936H103.882V129.936H124.618V127.936ZM104.882 128.936V116.008H102.882V128.936H104.882ZM103.882 117.008H126.922V115.008H103.882V117.008ZM127.907 116.182L129.699 106.07L127.729 105.722L125.937 115.833L127.907 116.182ZM128.714 104.896H102.346V106.896H128.714V104.896ZM103.346 105.896V91.56H101.346V105.896H103.346ZM102.346 92.56H144.458V90.56H102.346V92.56ZM143.458 91.56V104.744H145.458V91.56H143.458ZM143.474 104.566L141.81 113.782L143.778 114.138L145.442 104.922L143.474 104.566ZM149.522 167.514L129.17 187.226L130.562 188.662L150.914 168.95L149.522 167.514ZM129.866 186.944H109.77V188.944H129.866V186.944ZM110.472 188.656L145.416 154.224L144.012 152.8L109.068 187.232L110.472 188.656ZM144.714 154.512H155.594V152.512H144.714V154.512ZM154.892 154.224L189.836 188.656L191.24 187.232L156.296 152.8L154.892 154.224ZM190.538 186.944H170.442V188.944H190.538V186.944ZM171.14 187.228L150.916 167.516L149.52 168.948L169.744 188.66L171.14 187.228ZM187.85 155.584H173.77V157.584H187.85V155.584ZM174.77 156.584V91.048H172.77V156.584H174.77ZM173.77 92.048H187.85V90.048H173.77V92.048ZM186.85 91.048V156.584H188.85V91.048H186.85ZM231.956 105.384L232.943 105.547L233.135 104.384H231.956V105.384ZM201.62 105.384H200.62V106.384H201.62V105.384ZM201.62 91.56V90.56H200.62V91.56H201.62ZM247.956 91.56H248.956V90.56H247.956V91.56ZM247.956 105.384L248.942 105.55L248.956 105.468V105.384H247.956ZM234.132 187.432V188.432H234.978L235.118 187.598L234.132 187.432ZM218.388 187.432L217.401 187.269L217.209 188.432H218.388V187.432ZM286.1 187.944V188.944H287.1V187.944H286.1ZM271.508 187.944H270.508V188.944H271.508V187.944ZM271.508 141.224H272.508V140.224H271.508V141.224ZM250.004 141.224H249.004V142.224H250.004V141.224ZM250.004 127.016V126.016H249.004V127.016H250.004ZM271.508 127.016V128.016H272.508V127.016H271.508ZM271.508 91.048V90.048H270.508V91.048H271.508ZM286.1 91.048H287.1V90.048H286.1V91.048ZM231.956 104.384H201.62V106.384H231.956V104.384ZM202.62 105.384V91.56H200.62V105.384H202.62ZM201.62 92.56H247.956V90.56H201.62V92.56ZM246.956 91.56V105.384H248.956V91.56H246.956ZM246.97 105.218L233.146 187.266L235.118 187.598L248.942 105.55L246.97 105.218ZM234.132 186.432H218.388V188.432H234.132V186.432ZM219.375 187.595L232.943 105.547L230.969 105.221L217.401 187.269L219.375 187.595ZM286.1 186.944H271.508V188.944H286.1V186.944ZM272.508 187.944V141.224H270.508V187.944H272.508ZM271.508 140.224H250.004V142.224H271.508V140.224ZM251.004 141.224V127.016H249.004V141.224H251.004ZM250.004 128.016H271.508V126.016H250.004V128.016ZM272.508 127.016V91.048H270.508V127.016H272.508ZM271.508 92.048H286.1V90.048H271.508V92.048ZM285.1 91.048V187.944H287.1V91.048H285.1ZM348.382 187.944H347.382V188.944H348.382V187.944ZM348.382 91.048V90.048H347.382V91.048H348.382ZM362.334 91.048H363.334V90.048H362.334V91.048ZM362.334 129.96H361.334V130.96H362.334V129.96ZM372.318 129.96V130.96H373.318V129.96H372.318ZM372.318 91.048V90.048H371.318V91.048H372.318ZM386.27 91.048H387.27V90.048H386.27V91.048ZM386.27 187.944V188.944H387.27V187.944H386.27ZM372.318 187.944H371.318V188.944H372.318V187.944ZM372.318 143.784H373.318V142.784H372.318V143.784ZM362.334 143.784V142.784H361.334V143.784H362.334ZM362.334 187.944V188.944H363.334V187.944H362.334ZM338.91 187.432V188.432H339.91V187.432H338.91ZM301.406 187.432H300.406V188.432H301.406V187.432ZM301.406 132.264V131.264H300.406V132.264H301.406ZM324.702 132.264V133.264H325.702V132.264H324.702ZM324.702 105.512H325.702V104.512H324.702V105.512ZM301.406 105.512H300.406V106.512H301.406V105.512ZM301.406 91.56V90.56H300.406V91.56H301.406ZM339.294 91.56H340.294V90.56H339.294V91.56ZM339.294 147.112V148.112H340.294V147.112H339.294ZM315.998 147.112V146.112H314.998V147.112H315.998ZM315.998 173.992H314.998V174.992H315.998V173.992ZM338.91 173.992H339.91V172.992H338.91V173.992ZM349.382 187.944V91.048H347.382V187.944H349.382ZM348.382 92.048H362.334V90.048H348.382V92.048ZM361.334 91.048V129.96H363.334V91.048H361.334ZM362.334 130.96H372.318V128.96H362.334V130.96ZM373.318 129.96V91.048H371.318V129.96H373.318ZM372.318 92.048H386.27V90.048H372.318V92.048ZM385.27 91.048V187.944H387.27V91.048H385.27ZM386.27 186.944H372.318V188.944H386.27V186.944ZM373.318 187.944V143.784H371.318V187.944H373.318ZM372.318 142.784H362.334V144.784H372.318V142.784ZM361.334 143.784V187.944H363.334V143.784H361.334ZM362.334 186.944H348.382V188.944H362.334V186.944ZM338.91 186.432H301.406V188.432H338.91V186.432ZM302.406 187.432V132.264H300.406V187.432H302.406ZM301.406 133.264H324.702V131.264H301.406V133.264ZM325.702 132.264V105.512H323.702V132.264H325.702ZM324.702 104.512H301.406V106.512H324.702V104.512ZM302.406 105.512V91.56H300.406V105.512H302.406ZM301.406 92.56H339.294V90.56H301.406V92.56ZM338.294 91.56V147.112H340.294V91.56H338.294ZM339.294 146.112H315.998V148.112H339.294V146.112ZM314.998 147.112V173.992H316.998V147.112H314.998ZM315.998 174.992H338.91V172.992H315.998V174.992ZM337.91 173.992V187.432H339.91V173.992H337.91Z" fill="black"/>
<path d="M244.088 246.296H164.088V234.392H178.04V221.592H164.088V209.56H244.088V221.592H231.032V234.392H244.088V246.296ZM242.296 290.968H179.32V294.936H242.296V305.944H166.008V280.344H228.984V276.632H166.008V265.88H242.296V290.968ZM248.184 250.776V261.528H160.12V250.776H248.184ZM192.76 234.392H216.184V221.592H192.76V234.392ZM306.882 209.048H320.834V227.992H328.77V209.048H342.85V274.584H328.77V241.56H320.834V262.808H306.882V209.048ZM299.586 209.56V241.304H271.938V250.008H299.586V262.168H258.37V229.912H285.89V221.336H258.37V209.56H299.586ZM305.218 286.232L284.866 305.944H264.77L299.714 271.512H310.594L345.538 305.944H325.442L305.218 286.232ZM440.588 250.008H408.46V255.512H444.684V267.416H356.62V255.512H392.844V250.008H360.588V237.72H374.284V222.104H360.588V209.56H440.588V222.104H427.916V237.72H440.588V250.008ZM438.796 273.048V305.944H362.508V273.048H438.796ZM424.46 284.824H376.844V294.04H424.46V284.824ZM389.388 237.72H412.684V222.104H389.388V237.72Z" fill="#FFFEF2"/>
<path d="M244.088 246.296V247.296H245.088V246.296H244.088ZM164.088 246.296H163.088V247.296H164.088V246.296ZM164.088 234.392V233.392H163.088V234.392H164.088ZM178.04 234.392V235.392H179.04V234.392H178.04ZM178.04 221.592H179.04V220.592H178.04V221.592ZM164.088 221.592H163.088V222.592H164.088V221.592ZM164.088 209.56V208.56H163.088V209.56H164.088ZM244.088 209.56H245.088V208.56H244.088V209.56ZM244.088 221.592V222.592H245.088V221.592H244.088ZM231.032 221.592V220.592H230.032V221.592H231.032ZM231.032 234.392H230.032V235.392H231.032V234.392ZM244.088 234.392H245.088V233.392H244.088V234.392ZM242.296 290.968V291.968H243.296V290.968H242.296ZM179.32 290.968V289.968H178.32V290.968H179.32ZM179.32 294.936H178.32V295.936H179.32V294.936ZM242.296 294.936H243.296V293.936H242.296V294.936ZM242.296 305.944V306.944H243.296V305.944H242.296ZM166.008 305.944H165.008V306.944H166.008V305.944ZM166.008 280.344V279.344H165.008V280.344H166.008ZM228.984 280.344V281.344H229.984V280.344H228.984ZM228.984 276.632H229.984V275.632H228.984V276.632ZM166.008 276.632H165.008V277.632H166.008V276.632ZM166.008 265.88V264.88H165.008V265.88H166.008ZM242.296 265.88H243.296V264.88H242.296V265.88ZM248.184 250.776H249.184V249.776H248.184V250.776ZM248.184 261.528V262.528H249.184V261.528H248.184ZM160.12 261.528H159.12V262.528H160.12V261.528ZM160.12 250.776V249.776H159.12V250.776H160.12ZM192.76 234.392H191.76V235.392H192.76V234.392ZM216.184 234.392V235.392H217.184V234.392H216.184ZM216.184 221.592H217.184V220.592H216.184V221.592ZM192.76 221.592V220.592H191.76V221.592H192.76ZM244.088 245.296H164.088V247.296H244.088V245.296ZM165.088 246.296V234.392H163.088V246.296H165.088ZM164.088 235.392H178.04V233.392H164.088V235.392ZM179.04 234.392V221.592H177.04V234.392H179.04ZM178.04 220.592H164.088V222.592H178.04V220.592ZM165.088 221.592V209.56H163.088V221.592H165.088ZM164.088 210.56H244.088V208.56H164.088V210.56ZM243.088 209.56V221.592H245.088V209.56H243.088ZM244.088 220.592H231.032V222.592H244.088V220.592ZM230.032 221.592V234.392H232.032V221.592H230.032ZM231.032 235.392H244.088V233.392H231.032V235.392ZM243.088 234.392V246.296H245.088V234.392H243.088ZM242.296 289.968H179.32V291.968H242.296V289.968ZM178.32 290.968V294.936H180.32V290.968H178.32ZM179.32 295.936H242.296V293.936H179.32V295.936ZM241.296 294.936V305.944H243.296V294.936H241.296ZM242.296 304.944H166.008V306.944H242.296V304.944ZM167.008 305.944V280.344H165.008V305.944H167.008ZM166.008 281.344H228.984V279.344H166.008V281.344ZM229.984 280.344V276.632H227.984V280.344H229.984ZM228.984 275.632H166.008V277.632H228.984V275.632ZM167.008 276.632V265.88H165.008V276.632H167.008ZM166.008 266.88H242.296V264.88H166.008V266.88ZM241.296 265.88V290.968H243.296V265.88H241.296ZM247.184 250.776V261.528H249.184V250.776H247.184ZM248.184 260.528H160.12V262.528H248.184V260.528ZM161.12 261.528V250.776H159.12V261.528H161.12ZM160.12 251.776H248.184V249.776H160.12V251.776ZM192.76 235.392H216.184V233.392H192.76V235.392ZM217.184 234.392V221.592H215.184V234.392H217.184ZM216.184 220.592H192.76V222.592H216.184V220.592ZM191.76 221.592V234.392H193.76V221.592H191.76ZM306.882 209.048V208.048H305.882V209.048H306.882ZM320.834 209.048H321.834V208.048H320.834V209.048ZM320.834 227.992H319.834V228.992H320.834V227.992ZM328.77 227.992V228.992H329.77V227.992H328.77ZM328.77 209.048V208.048H327.77V209.048H328.77ZM342.85 209.048H343.85V208.048H342.85V209.048ZM342.85 274.584V275.584H343.85V274.584H342.85ZM328.77 274.584H327.77V275.584H328.77V274.584ZM328.77 241.56H329.77V240.56H328.77V241.56ZM320.834 241.56V240.56H319.834V241.56H320.834ZM320.834 262.808V263.808H321.834V262.808H320.834ZM306.882 262.808H305.882V263.808H306.882V262.808ZM299.586 209.56H300.586V208.56H299.586V209.56ZM299.586 241.304V242.304H300.586V241.304H299.586ZM271.938 241.304V240.304H270.938V241.304H271.938ZM271.938 250.008H270.938V251.008H271.938V250.008ZM299.586 250.008H300.586V249.008H299.586V250.008ZM299.586 262.168V263.168H300.586V262.168H299.586ZM258.37 262.168H257.37V263.168H258.37V262.168ZM258.37 229.912V228.912H257.37V229.912H258.37ZM285.89 229.912V230.912H286.89V229.912H285.89ZM285.89 221.336H286.89V220.336H285.89V221.336ZM258.37 221.336H257.37V222.336H258.37V221.336ZM258.37 209.56V208.56H257.37V209.56H258.37ZM305.218 286.232L305.916 285.516L305.22 284.838L304.522 285.514L305.218 286.232ZM284.866 305.944V306.944H285.271L285.562 306.662L284.866 305.944ZM264.77 305.944L264.068 305.232L262.33 306.944H264.77V305.944ZM299.714 271.512V270.512H299.304L299.012 270.8L299.714 271.512ZM310.594 271.512L311.296 270.8L311.004 270.512H310.594V271.512ZM345.538 305.944V306.944H347.978L346.24 305.232L345.538 305.944ZM325.442 305.944L324.744 306.66L325.035 306.944H325.442V305.944ZM306.882 210.048H320.834V208.048H306.882V210.048ZM319.834 209.048V227.992H321.834V209.048H319.834ZM320.834 228.992H328.77V226.992H320.834V228.992ZM329.77 227.992V209.048H327.77V227.992H329.77ZM328.77 210.048H342.85V208.048H328.77V210.048ZM341.85 209.048V274.584H343.85V209.048H341.85ZM342.85 273.584H328.77V275.584H342.85V273.584ZM329.77 274.584V241.56H327.77V274.584H329.77ZM328.77 240.56H320.834V242.56H328.77V240.56ZM319.834 241.56V262.808H321.834V241.56H319.834ZM320.834 261.808H306.882V263.808H320.834V261.808ZM307.882 262.808V209.048H305.882V262.808H307.882ZM298.586 209.56V241.304H300.586V209.56H298.586ZM299.586 240.304H271.938V242.304H299.586V240.304ZM270.938 241.304V250.008H272.938V241.304H270.938ZM271.938 251.008H299.586V249.008H271.938V251.008ZM298.586 250.008V262.168H300.586V250.008H298.586ZM299.586 261.168H258.37V263.168H299.586V261.168ZM259.37 262.168V229.912H257.37V262.168H259.37ZM258.37 230.912H285.89V228.912H258.37V230.912ZM286.89 229.912V221.336H284.89V229.912H286.89ZM285.89 220.336H258.37V222.336H285.89V220.336ZM259.37 221.336V209.56H257.37V221.336H259.37ZM258.37 210.56H299.586V208.56H258.37V210.56ZM304.522 285.514L284.17 305.226L285.562 306.662L305.914 286.95L304.522 285.514ZM284.866 304.944H264.77V306.944H284.866V304.944ZM265.472 306.656L300.416 272.224L299.012 270.8L264.068 305.232L265.472 306.656ZM299.714 272.512H310.594V270.512H299.714V272.512ZM309.892 272.224L344.836 306.656L346.24 305.232L311.296 270.8L309.892 272.224ZM345.538 304.944H325.442V306.944H345.538V304.944ZM326.14 305.228L305.916 285.516L304.52 286.948L324.744 306.66L326.14 305.228ZM440.588 250.008V251.008H441.588V250.008H440.588ZM408.46 250.008V249.008H407.46V250.008H408.46ZM408.46 255.512H407.46V256.512H408.46V255.512ZM444.684 255.512H445.684V254.512H444.684V255.512ZM444.684 267.416V268.416H445.684V267.416H444.684ZM356.62 267.416H355.62V268.416H356.62V267.416ZM356.62 255.512V254.512H355.62V255.512H356.62ZM392.844 255.512V256.512H393.844V255.512H392.844ZM392.844 250.008H393.844V249.008H392.844V250.008ZM360.588 250.008H359.588V251.008H360.588V250.008ZM360.588 237.72V236.72H359.588V237.72H360.588ZM374.284 237.72V238.72H375.284V237.72H374.284ZM374.284 222.104H375.284V221.104H374.284V222.104ZM360.588 222.104H359.588V223.104H360.588V222.104ZM360.588 209.56V208.56H359.588V209.56H360.588ZM440.588 209.56H441.588V208.56H440.588V209.56ZM440.588 222.104V223.104H441.588V222.104H440.588ZM427.916 222.104V221.104H426.916V222.104H427.916ZM427.916 237.72H426.916V238.72H427.916V237.72ZM440.588 237.72H441.588V236.72H440.588V237.72ZM438.796 273.048H439.796V272.048H438.796V273.048ZM438.796 305.944V306.944H439.796V305.944H438.796ZM362.508 305.944H361.508V306.944H362.508V305.944ZM362.508 273.048V272.048H361.508V273.048H362.508ZM424.46 284.824H425.46V283.824H424.46V284.824ZM376.844 284.824V283.824H375.844V284.824H376.844ZM376.844 294.04H375.844V295.04H376.844V294.04ZM424.46 294.04V295.04H425.46V294.04H424.46ZM389.388 237.72H388.388V238.72H389.388V237.72ZM412.684 237.72V238.72H413.684V237.72H412.684ZM412.684 222.104H413.684V221.104H412.684V222.104ZM389.388 222.104V221.104H388.388V222.104H389.388ZM440.588 249.008H408.46V251.008H440.588V249.008ZM407.46 250.008V255.512H409.46V250.008H407.46ZM408.46 256.512H444.684V254.512H408.46V256.512ZM443.684 255.512V267.416H445.684V255.512H443.684ZM444.684 266.416H356.62V268.416H444.684V266.416ZM357.62 267.416V255.512H355.62V267.416H357.62ZM356.62 256.512H392.844V254.512H356.62V256.512ZM393.844 255.512V250.008H391.844V255.512H393.844ZM392.844 249.008H360.588V251.008H392.844V249.008ZM361.588 250.008V237.72H359.588V250.008H361.588ZM360.588 238.72H374.284V236.72H360.588V238.72ZM375.284 237.72V222.104H373.284V237.72H375.284ZM374.284 221.104H360.588V223.104H374.284V221.104ZM361.588 222.104V209.56H359.588V222.104H361.588ZM360.588 210.56H440.588V208.56H360.588V210.56ZM439.588 209.56V222.104H441.588V209.56H439.588ZM440.588 221.104H427.916V223.104H440.588V221.104ZM426.916 222.104V237.72H428.916V222.104H426.916ZM427.916 238.72H440.588V236.72H427.916V238.72ZM439.588 237.72V250.008H441.588V237.72H439.588ZM437.796 273.048V305.944H439.796V273.048H437.796ZM438.796 304.944H362.508V306.944H438.796V304.944ZM363.508 305.944V273.048H361.508V305.944H363.508ZM362.508 274.048H438.796V272.048H362.508V274.048ZM424.46 283.824H376.844V285.824H424.46V283.824ZM375.844 284.824V294.04H377.844V284.824H375.844ZM376.844 295.04H424.46V293.04H376.844V295.04ZM425.46 294.04V284.824H423.46V294.04H425.46ZM389.388 238.72H412.684V236.72H389.388V238.72ZM413.684 237.72V222.104H411.684V237.72H413.684ZM412.684 221.104H389.388V223.104H412.684V221.104ZM388.388 222.104V237.72H390.388V222.104H388.388Z" fill="black"/>
<path d="M478.56 102.72V123.36H499.68V102.72H478.56ZM478.24 59.36V62.24C478.24 77.76 463.2 91.84 428.96 95.04L436.16 111.36C474.4 106.56 496.48 88.8 496.48 62.24V59.36H478.24ZM481.76 59.36V62.24C481.76 88.8 503.84 106.56 542.08 111.36L549.28 95.04C515.2 91.84 500 77.76 500 62.24V59.36H481.76ZM422.4 118.4V135.2H556.32V118.4H422.4ZM437.76 142.72V158.4H519.2V166.24H437.92V193.76H458.88V180.96H540.16V142.72H437.76ZM437.92 189.28V205.28H544V189.28H437.92ZM585.428 134.4V151.04H689.588V134.4H585.428ZM569.748 172V189.28H703.828V172H569.748ZM585.428 68.8V139.04H607.028V85.92H688.308V68.8H585.428ZM600.468 101.44V117.92H684.948V101.44H600.468Z" fill="#6D6D6D"/>
<path d="M1100.22 0.131194C1097.36 0.477985 1094.61 1.39747 1092.11 2.83467L573.06 283.997C569.38 286.029 566.38 289.099 564.434 292.825C562.487 296.551 561.681 300.767 562.114 304.948C562.548 309.129 564.202 313.09 566.872 316.337C569.541 319.584 573.107 321.974 577.126 323.208L714.999 364.43C718.221 389.93 732.582 500.361 735.264 521.903C737.945 543.358 752.522 547.078 767.034 527.31C776.853 513.922 834.597 432.688 834.619 432.688L957.634 555.707C960.284 558.364 963.584 560.278 967.206 561.257C970.828 562.237 974.644 562.248 978.271 561.288C981.898 560.329 985.209 558.433 987.873 555.791C990.537 553.149 992.46 549.853 993.449 546.234L1123.21 27.166C1124.15 23.7916 1124.25 20.2377 1123.5 16.816C1122.75 13.3943 1121.17 10.2094 1118.9 7.54062C1116.63 4.87183 1113.74 2.80069 1110.48 1.50886C1107.23 0.21703 1103.7 -0.256021 1100.22 0.131194ZM1069.17 63.6738L960.338 498.934L838.014 376.585L1015.75 129.898L739.33 327.252L638.633 297.514L1069.12 63.6522L1069.17 63.6738Z" fill="#FFB648" fill-opacity="0.2"/>
</g>
<defs>
<filter id="filter0_d_607_269" x="3.67993" y="0" width="1135.38" height="570" filterUnits="userSpaceOnUse" color-interpolation-filters="sRGB">
<feFlood flood-opacity="0" result="BackgroundImageFix"/>
<feColorMatrix in="SourceAlpha" type="matrix" values="0 0 0 0 0 0 0 0 0 0 0 0 0 0 0 0 0 0 127 0" result="hardAlpha"/>
<feOffset dy="4"/>
<feGaussianBlur stdDeviation="2"/>
<feComposite in2="hardAlpha" operator="out"/>
<feColorMatrix type="matrix" values="0 0 0 0 0 0 0 0 0 0 0 0 0 0 0 0 0 0 0.25 0"/>
<feBlend mode="normal" in2="BackgroundImageFix" result="effect1_dropShadow_607_269"/>
<feBlend mode="normal" in="SourceGraphic" in2="effect1_dropShadow_607_269" result="shape"/>
</filter>
</defs>
</svg>
