<svg width="906" height="1200" viewBox="0 0 906 1200" fill="none" xmlns="http://www.w3.org/2000/svg">
<path d="M453 0C203.178 0 0.656006 202.521 0.656006 452.344C0.656006 535.891 17.009 622.181 63.937 684.375L453 1200L842.062 684.375C884.687 627.885 905.343 528.019 905.343 452.344C905.344 202.521 702.822 0 453 0ZM453 261.987C558.116 261.987 643.356 347.228 643.356 452.343C643.356 557.46 558.116 642.7 453 642.7C347.884 642.7 262.644 557.46 262.644 452.344C262.644 347.228 347.884 261.987 453 261.987Z" fill="#287EFF"/>
<ellipse cx="456.5" cy="443.5" rx="245.5" ry="243.5" fill="white"/>
<path d="M456 579L338.221 375H573.779L456 579Z" fill="#287EFF"/>
</svg>
