<svg width="122" height="118" viewBox="0 0 122 118" fill="none" xmlns="http://www.w3.org/2000/svg">
<g filter="url(#filter0_d_649_287)">
<path d="M94.9056 93.2121C95.7913 87.274 96.6752 81.3268 97.5663 75.3785L98.3617 69.9944C96.7055 69.1254 95.3419 67.7878 94.4411 66.1486C93.5404 64.5094 93.1425 62.6412 93.2971 60.7772C81.3881 59.0033 69.4829 57.2345 57.5766 55.4555C50.5131 54.4012 43.4411 53.3505 36.3679 52.2992C35.988 54.0515 35.1211 55.661 33.867 56.9424C32.6129 58.2238 31.0225 59.1252 29.2787 59.5427C28.5141 64.6571 27.7489 69.7695 26.9894 74.8865C26.5813 77.617 26.1766 80.3379 25.7653 83.0684C26.9147 83.7403 27.9103 84.646 28.6876 85.7268C29.465 86.8077 30.0069 88.0397 30.2782 89.3431C42.5127 91.1657 54.7388 92.9888 66.9726 94.8094C74.0806 95.8658 81.2031 96.9316 88.3264 97.9961C89.0015 96.7616 89.9418 95.6922 91.0797 94.8645C92.2175 94.0369 93.5246 93.4717 94.9069 93.2095" fill="#BF8149"/>
<path d="M93.9029 91.8839C94.7862 85.938 95.6683 79.9883 96.5607 74.0342L97.3586 68.6546C95.7034 67.7866 94.341 66.4497 93.4419 64.8111C92.5429 63.1726 92.1471 61.3052 92.3042 59.4428C80.3953 57.6689 68.4863 55.8949 56.5787 54.1184C49.5093 53.0682 42.4403 52.0149 35.3719 50.9583C34.992 52.7129 34.1231 54.3242 32.8659 55.6057C31.6087 56.8873 30.0144 57.7868 28.2673 58.2002C27.5078 63.3172 26.7489 68.4394 25.983 73.5531C25.5783 76.274 25.1729 78.9994 24.7641 81.7312C25.9124 82.4038 26.907 83.3096 27.6839 84.3901C28.4607 85.4706 29.0026 86.7019 29.2745 88.0046C41.505 89.8316 53.7408 91.6517 65.9611 93.4733C73.087 94.5327 80.2045 95.5958 87.3259 96.6512C88.0019 95.4192 88.9424 94.3523 90.08 93.5274C91.2176 92.7024 92.5239 92.1398 93.9049 91.8801" fill="#C0B0FF"/>
<path d="M32.1227 56.2618C31.0054 57.1992 29.6847 57.8628 28.2657 58.1998L24.7644 81.7302C25.9127 82.4028 26.9074 83.3086 27.6842 84.3891C28.4611 85.4696 29.0029 86.7009 29.2748 88.0036L87.3263 96.6502C87.7238 95.9242 88.22 95.2566 88.8006 94.6667C79.8552 93.1661 41.4112 86.517 32.124 56.2625" fill="#C0B0FF"/>
<path d="M82.9224 90.8789L35.5826 83.826C34.8853 83.7208 34.4227 83.2639 34.5031 82.7536L38.1589 58.2334C38.1779 58.1151 38.224 58.0029 38.2937 57.9055C38.3633 57.808 38.4545 57.7281 38.5602 57.6718L38.6658 57.5386L38.8508 57.5575C39.027 57.5003 39.2564 57.4905 39.5042 57.5292L86.8319 64.5774C87.5292 64.6826 88.0008 65.1441 87.9205 65.6448L84.2679 90.1683C84.1965 90.6769 83.6139 90.9827 82.9224 90.8789M35.5286 82.7594C35.5954 82.7858 35.6647 82.8052 35.7355 82.8174L83.076 89.869C83.1455 89.8811 83.2162 89.8837 83.2864 89.8768L86.896 65.6557C86.8304 65.6251 86.7604 65.6049 86.6885 65.5958L39.3531 58.5469C39.2941 58.533 39.2336 58.5275 39.1731 58.5306L39.1312 58.5671L35.5286 82.7594" fill="white"/>
<path d="M42.3865 57.9649L43.5242 58.1319L39.7992 83.4234L38.6609 83.2545L42.3865 57.9649ZM79.2736 89.8176L78.1436 89.6483L81.9155 64.3634L83.0301 64.528L79.2736 89.8176Z" fill="white"/>
<path d="M106.503 63.2053C104.68 55.9105 102.854 48.6118 101.027 41.3086C100.477 39.1028 99.9187 36.8981 99.373 34.6982C97.0409 34.4896 94.8222 33.598 92.9943 32.1349C91.1664 30.6717 89.8106 28.702 89.0966 26.4722C74.478 30.1341 59.8586 33.7926 45.2383 37.4477L19.2047 43.9655C19.6051 46.1743 19.3738 48.4513 18.5374 50.5345C17.701 52.6176 16.2935 54.4223 14.4768 55.741C16.0421 62.022 17.6134 68.2948 19.1863 74.5863C20.0226 77.9377 20.8597 81.2814 21.6935 84.6315C23.3442 84.8566 24.9292 85.4256 26.3462 86.3018C27.7631 87.178 28.9804 88.3419 29.9192 89.7181C44.9452 85.972 59.9471 82.21 74.9637 78.4508C83.7042 76.2693 92.4461 74.082 101.18 71.892C101.37 70.1415 101.945 68.4547 102.865 66.9528C103.784 65.451 105.024 64.1711 106.496 63.2052" fill="#BF8149"/>
<path d="M104.708 62.1271L99.2269 40.2161C98.6752 38.0244 98.1264 35.8148 97.5685 33.6101C95.2387 33.4015 93.0222 32.5104 91.1963 31.0483C89.3705 29.5862 88.0164 27.6181 87.3036 25.3902L43.4467 36.3631C34.7668 38.5374 26.0941 40.7105 17.4144 42.8784C17.8148 45.0894 17.582 47.3687 16.7427 49.4531C15.9034 51.5374 14.4918 53.3421 12.671 54.6587C14.2441 60.9373 15.8216 67.2199 17.383 73.5054C18.2253 76.8453 19.0623 80.1955 19.8999 83.5476C21.5507 83.7737 23.1357 84.3438 24.5524 85.221C25.9691 86.0982 27.1859 87.263 28.1242 88.6399C43.1381 84.8859 58.1554 81.1254 73.1694 77.3714C81.9113 75.1841 90.6544 72.9975 99.388 70.8074C99.5774 69.0589 100.152 67.3742 101.071 65.8746C101.99 64.3751 103.23 63.098 104.702 62.1353" fill="#C0B0FF"/>
<path d="M91.5414 66.2412L33.4248 80.7815C32.5755 80.9915 31.8169 80.6933 31.66 80.0651L24.1276 49.9595C24.0948 49.8131 24.0958 49.6612 24.1305 49.5152C24.1653 49.3693 24.2329 49.2332 24.3282 49.1173L24.3836 48.9123L24.6063 48.847C24.781 48.6996 25.0415 48.5745 25.3475 48.4959L83.4608 33.962C84.3166 33.7521 85.0783 34.0568 85.2308 34.6745L92.7671 64.7821C92.9208 65.4038 92.3985 66.032 91.5452 66.2464M32.8565 79.5739C32.9464 79.5759 33.0362 79.5661 33.1236 79.5448L91.2402 65.0045C91.3283 64.985 91.4131 64.9528 91.4919 64.9088L84.0536 35.1694C83.963 35.1656 83.8724 35.1763 83.7852 35.201L25.6699 49.7388C25.5651 49.7619 25.5067 49.7898 25.4554 49.8133L25.4233 49.8745L32.8591 79.5752" fill="white"/>
<path d="M43.7794 57.3117L43.0825 56.3033L39.4646 57.2047L39.3226 58.453C39.2723 58.9337 39.2074 59.2685 39.1292 59.455C39.0511 59.6416 38.8742 59.7683 38.6078 59.8302C38.3837 59.8872 38.1462 59.8533 37.947 59.736C37.7383 59.6072 37.5989 59.4513 37.5483 59.2347C37.5162 59.1084 37.5056 58.9776 37.5169 58.8478C37.5289 58.6499 37.5483 58.4524 37.5751 58.2559L38.4078 51.9196C38.4317 51.7436 38.4642 51.5202 38.487 51.2657C38.5183 51.0459 38.5687 50.8293 38.6377 50.6182C38.7015 50.4356 38.8096 50.2717 38.9525 50.1413C39.1195 49.9952 39.32 49.8926 39.5362 49.8426C39.7353 49.7847 39.9456 49.7774 40.1481 49.8213C40.3507 49.8653 40.5391 49.9591 40.6962 50.0943C40.8375 50.2122 40.9661 50.3576 41.0778 50.5135C41.194 50.667 41.3331 50.8699 41.5143 51.1321L45.2726 56.2788C45.5557 56.666 45.7252 56.9627 45.7806 57.1672C45.8062 57.2743 45.8092 57.3855 45.7894 57.4937C45.7697 57.602 45.7275 57.7049 45.6657 57.796C45.6054 57.8967 45.5257 57.9843 45.4312 58.054C45.3367 58.1236 45.2294 58.1737 45.1153 58.2016C44.9885 58.2391 44.8544 58.2448 44.7249 58.218C44.6143 58.1954 44.5102 58.1481 44.4204 58.0797C44.3001 57.9791 44.1928 57.864 44.1011 57.7369C43.991 57.5974 43.8837 57.4556 43.7794 57.3117M39.6003 55.7387L42.2563 55.0792L39.9969 51.7429L39.6003 55.7387ZM46.1585 48.3487L48.5028 47.76C49.1205 47.6107 49.6582 47.5365 50.1158 47.5406C50.5819 47.5442 51.0241 47.6523 51.4628 47.8788C52.5841 48.4369 53.3447 49.5226 53.7533 51.1405C53.8869 51.6703 53.9624 52.1713 53.975 52.6312C53.9945 53.1029 53.9509 53.5334 53.8513 53.9346C53.7453 54.3324 53.5747 54.711 53.3342 55.0709C53.1549 55.3382 52.9342 55.5753 52.6803 55.7732C52.4397 55.9721 52.1538 56.1457 51.8448 56.2764C51.5372 56.4077 51.1672 56.5308 50.7687 56.6341L48.42 57.2189C48.094 57.2951 47.8388 57.3109 47.6435 57.2525C47.4628 57.1973 47.3087 57.0778 47.2101 56.9166C47.0985 56.701 47.0153 56.4718 46.9628 56.2347L45.3323 49.7245C45.2366 49.3364 45.2481 49.0321 45.386 48.8184C45.5124 48.6018 45.7704 48.4444 46.1585 48.3487M47.2166 49.5984L48.7216 55.6285L50.0884 55.2866C50.386 55.2149 50.6121 55.14 50.7779 55.0839C50.9465 55.0227 51.1179 54.9435 51.2773 54.8255C51.4382 54.7274 51.5772 54.5972 51.6856 54.443C52.1531 53.7861 52.2394 52.8271 51.9286 51.587C51.7089 50.7067 51.4129 50.0837 51.038 49.7199C50.6703 49.3454 50.2645 49.1523 49.8517 49.1246C49.362 49.1135 48.8734 49.1746 48.4016 49.3059L47.2166 49.5984M59.1046 53.1309L56.2635 47.8276L57.8001 53.9587C57.8839 54.2951 57.8762 54.5705 57.7673 54.7784C57.6604 54.9824 57.4784 55.1129 57.2325 55.179C57.1216 55.211 57.0052 55.2185 56.8911 55.2011C56.7771 55.1837 56.6682 55.1419 56.5719 55.0784C56.3734 54.9485 56.235 54.707 56.1506 54.3719L54.3952 47.3462C54.2995 46.9581 54.3325 46.6716 54.5008 46.4868C54.6712 46.2981 54.9235 46.1638 55.2599 46.0768L55.8188 45.9373C56.1481 45.8547 56.4049 45.8234 56.5681 45.8439C56.6506 45.853 56.7304 45.8791 56.8024 45.9207C56.8743 45.9623 56.9368 46.0184 56.9859 46.0855C57.1055 46.2294 57.2556 46.464 57.4251 46.7949L59.9394 51.3323L60.0139 46.1489C60.01 45.7716 60.0333 45.4945 60.0675 45.3175C60.1018 45.1404 60.1912 45.0069 60.3218 44.9064C60.4627 44.8111 60.6917 44.7182 61.0281 44.6344L61.5883 44.4956C61.9273 44.4067 62.219 44.4051 62.4517 44.4945C62.687 44.5788 62.8564 44.8137 62.9541 45.2012L64.714 52.2276C64.7991 52.5614 64.7765 52.8372 64.6734 53.0465C64.5666 53.2505 64.3793 53.3847 64.1308 53.4496C64.0222 53.4817 63.9079 53.489 63.7961 53.4709C63.6843 53.4529 63.578 53.41 63.4851 53.3454C63.2828 53.2134 63.1469 52.9765 63.0598 52.6465L61.5245 46.5128L61.5214 52.5248C61.5179 52.9162 61.5041 53.2031 61.4916 53.3883C61.4673 53.5859 61.3952 53.7745 61.2817 53.938C61.1649 54.1238 60.9643 54.2462 60.683 54.3118C60.4986 54.3661 60.3026 54.3671 60.1176 54.3146C59.9549 54.264 59.8084 54.1716 59.6926 54.0465C59.5729 53.9197 59.468 53.7797 59.3798 53.6292C59.2914 53.4692 59.2051 53.2989 59.1046 53.1309M66.6277 51.6636L64.8749 44.6702C64.7922 44.31 64.8029 44.0166 64.914 43.7921C64.9738 43.6824 65.0562 43.5867 65.1559 43.5114C65.2556 43.4361 65.3702 43.383 65.492 43.3555C65.6132 43.3216 65.7402 43.3135 65.8647 43.3317C65.9892 43.3499 66.1086 43.394 66.215 43.4612C66.4274 43.6017 66.5759 43.8517 66.6732 44.2212L68.4196 51.2145C68.5151 51.5781 68.5018 51.8766 68.37 52.1033C68.3108 52.2136 68.2284 52.3097 68.1283 52.385C68.0283 52.4603 67.9131 52.5129 67.7907 52.5392C67.6718 52.5717 67.5472 52.5784 67.4255 52.5589C67.3037 52.5394 67.1875 52.4942 67.0847 52.4261C66.8722 52.2889 66.7161 52.0284 66.6277 51.6636ZM74.5756 42.8177L72.6117 43.31L74.2279 49.7607C74.3187 50.1332 74.3087 50.4253 74.1848 50.6496C74.1267 50.7575 74.0459 50.8515 73.9479 50.925C73.8499 50.9985 73.7371 51.0498 73.6173 51.0754C73.4974 51.1105 73.3713 51.119 73.2477 51.1003C73.1242 51.0816 73.0063 51.0363 72.9021 50.9673C72.6819 50.8293 72.5309 50.5747 72.4316 50.2058L70.8192 43.7604L68.8592 44.245C68.5499 44.3267 68.308 44.3202 68.1257 44.2215C68.0351 44.1714 67.9563 44.1024 67.8947 44.0192C67.8332 43.9359 67.7903 43.8403 67.7691 43.739C67.7091 43.5061 67.7374 43.3032 67.8635 43.1368C67.9892 42.9589 68.2 42.8419 68.4867 42.7629L74.2043 41.3364C74.5175 41.2566 74.7607 41.2638 74.9518 41.3704C75.1341 41.4691 75.2535 41.6259 75.3135 41.8556C75.3418 41.9548 75.3476 42.0591 75.3303 42.1608C75.313 42.2626 75.2731 42.3591 75.2136 42.4434C75.0919 42.6137 74.8822 42.7411 74.5756 42.8177ZM49.9221 63.059C50.8414 62.8271 51.6901 62.8167 52.4311 63.0245C53.1732 63.2237 53.8346 63.6496 54.3229 64.2428C54.8414 64.8507 55.2119 65.6167 55.4475 66.5444C55.6142 67.2281 55.6767 67.8782 55.6363 68.4859C55.5914 69.0928 55.4367 69.6455 55.1658 70.1536C54.8915 70.6633 54.5055 71.1044 54.0367 71.4438C53.4961 71.8179 52.8894 72.0857 52.2487 72.2329C51.6142 72.4056 50.9516 72.4491 50.3 72.361C49.7016 72.2751 49.1659 72.0725 48.6947 71.7591C48.2235 71.4457 47.8253 71.0178 47.4926 70.499C47.1495 69.9452 46.897 69.3401 46.7447 68.7067C46.5769 68.0705 46.5187 67.4103 46.5729 66.7546C46.6146 66.1709 46.7797 65.6028 47.0575 65.0878C47.3268 64.5984 47.7088 64.1762 48.1835 63.8285C48.7099 63.4657 49.2996 63.2048 49.9221 63.059M53.6184 66.987C53.4543 66.3356 53.2139 65.8019 52.8807 65.3739C52.5875 64.9769 52.1807 64.6783 51.7141 64.5175C51.2483 64.3737 50.7512 64.3652 50.2808 64.4931C49.9409 64.5667 49.622 64.7157 49.3474 64.9291C49.0728 65.1424 48.8497 65.4147 48.6943 65.7258C48.5372 66.0383 48.4451 66.4126 48.4169 66.8511C48.3991 67.2821 48.4494 67.757 48.5728 68.2505C48.6998 68.7525 48.8685 69.1967 49.0996 69.5713C49.3321 69.9465 49.5982 70.2419 49.8942 70.4554C50.1864 70.6669 50.5149 70.7935 50.8382 70.8588C51.1746 70.9115 51.5264 70.8943 51.8848 70.8026C52.3402 70.6901 52.739 70.4716 53.0664 70.1443C53.3919 69.8208 53.6081 69.3832 53.7205 68.8458C53.8272 68.3102 53.7991 67.6845 53.6211 66.982M58.4455 62.0799L63.214 66.4396L61.897 61.1644C61.8056 60.8175 61.8205 60.541 61.9145 60.3367C61.97 60.2336 62.0468 60.1435 62.1399 60.0723C62.2329 60.0011 62.34 59.9505 62.454 59.9239C62.5678 59.8918 62.6873 59.8849 62.804 59.9036C62.9207 59.9224 63.032 59.9664 63.13 60.0325C63.3206 60.1649 63.4603 60.407 63.5452 60.7505L65.2874 67.727C65.4846 68.5046 65.2625 68.9781 64.6209 69.136C64.4743 69.1758 64.3221 69.1905 64.1707 69.1797C64.0217 69.1632 63.8769 69.1203 63.743 69.0532C63.6065 68.9817 63.4731 68.8859 63.34 68.7771C63.2076 68.6639 63.0868 68.547 62.9474 68.4285L58.2831 64.1056L59.5732 69.3082C59.6621 69.6472 59.6524 69.9264 59.5371 70.1342C59.483 70.2383 59.4065 70.3291 59.3131 70.4002C59.2197 70.4712 59.1117 70.5207 58.9969 70.545C58.8824 70.5795 58.7615 70.5874 58.6435 70.5681C58.5255 70.5488 58.4135 70.5029 58.3159 70.4337C58.1221 70.2949 57.9784 70.0636 57.8997 69.7299L56.1866 62.884C56.1209 62.653 56.093 62.4129 56.1041 62.173C56.1378 61.9678 56.2348 61.7783 56.3815 61.6309C56.5226 61.4735 56.7077 61.3621 56.9129 61.3113C57.0552 61.2767 57.2027 61.2686 57.3479 61.2873C57.4735 61.3119 57.5935 61.3593 57.702 61.4272C57.8082 61.4975 57.9328 61.5822 58.0502 61.7023C58.1838 61.8258 58.3181 61.9417 58.4455 62.0799M71.4922 59.3054L67.4453 60.3185L67.985 62.4958L71.7168 61.563C71.9951 61.4878 72.2164 61.4997 72.3796 61.5852C72.5476 61.6862 72.6557 61.8273 72.706 62.0291C72.7314 62.1201 72.7376 62.2152 72.7245 62.3087C72.7113 62.4022 72.679 62.492 72.6295 62.5724C72.5332 62.7283 72.3443 62.8438 72.057 62.9208L68.3252 63.8536L68.9562 66.3777L73.1415 65.3331C73.4345 65.2575 73.6578 65.2655 73.8336 65.3641C73.9229 65.4106 74.0004 65.4768 74.0602 65.5577C74.12 65.6386 74.1606 65.732 74.1789 65.831C74.208 65.9267 74.216 66.0277 74.2022 66.1268C74.1884 66.2259 74.1533 66.3208 74.0992 66.4051C73.9867 66.5671 73.7908 66.6838 73.5061 66.7557L68.6285 67.9837C68.2353 68.0767 67.9337 68.0601 67.7139 67.9337C67.5009 67.7944 67.3414 67.5436 67.2406 67.1528L65.5719 60.4796C65.5124 60.221 65.4959 60.0043 65.5361 59.819C65.5652 59.6406 65.6609 59.48 65.804 59.3695C65.9812 59.2383 66.1855 59.1482 66.402 59.1059L71.1443 57.9159C71.4367 57.8416 71.663 57.8561 71.8351 57.9495C71.9201 57.9954 71.9943 58.0591 72.0526 58.1362C72.1109 58.2132 72.152 58.3019 72.1731 58.3963C72.2258 58.6059 72.194 58.7907 72.0815 58.9527C71.9761 59.1104 71.7833 59.2304 71.4922 59.3054" fill="#243438"/>
<path d="M28.9033 47.611L30.2934 47.2618L38.0982 78.29L36.7086 78.6412L28.9033 47.611ZM77.6196 36.0684L79.0091 35.7173L86.8346 66.7433L85.4437 67.0937L77.6196 36.0684Z" fill="white"/>
<rect x="35.0508" y="49.2734" width="41.7538" height="13.3714" transform="rotate(-12.2285 35.0508 49.2734)" fill="#C0B0FF"/>
<rect x="36.1543" y="62.9414" width="41.7538" height="13.3714" transform="rotate(-12.2285 36.1543 62.9414)" fill="#C0B0FF"/>
<path d="M38.4108 56.829L38.6293 57.7884C38.9651 59.2626 38.5585 60.8814 36.8835 61.9029L37.994 62.9422C39.8907 61.7594 40.395 59.6508 39.9047 57.4979L39.6862 56.5385L38.4108 56.829ZM38.7267 56.757L38.9799 57.8685C39.4249 59.8225 40.733 61.2968 42.8362 61.507L43.3691 60.118C41.5526 59.9779 40.5393 58.8795 40.2435 57.5807L39.9904 56.4692L38.7267 56.757ZM42.8758 55.1966L44.3335 61.5967L45.8897 61.2423L44.432 54.8422L42.8758 55.1966ZM44.5693 57.4447L44.8625 58.7317L46.7345 58.3053L46.4414 57.0183L44.5693 57.4447ZM42.4121 62.2928C40.154 62.8071 38.9168 63.9135 39.2153 65.2239C39.5164 66.5461 41.108 66.9959 43.3662 66.4815C45.6127 65.9698 46.8525 64.8752 46.5514 63.553C46.2529 62.2426 44.6586 61.7811 42.4121 62.2928ZM42.6866 63.4979C44.0673 63.1835 44.871 63.3081 45.0069 63.9048C45.1455 64.5132 44.4723 64.9619 43.0917 65.2764C41.7111 65.5908 40.8983 65.4806 40.7597 64.8722C40.6238 64.2755 41.306 63.8124 42.6866 63.4979ZM52.1408 59.3508L52.5165 61.0005L54.0727 60.6461L53.6969 58.9964L52.1408 59.3508ZM47.8197 59.3996L48.0995 60.6282L57.8927 58.3976L57.6129 57.1691L47.8197 59.3996ZM47.5866 54.4314L47.869 55.6716L55.9423 53.8328L55.6598 52.5925L47.5866 54.4314ZM48.3214 57.2793L48.6039 58.5195L56.5133 56.718L56.2308 55.4778L48.3214 57.2793ZM49.0711 54.5732L49.804 57.7908L51.3601 57.4364L50.6273 54.2188L49.0711 54.5732ZM52.8269 53.7178L53.5598 56.9353L55.1159 56.5809L54.3831 53.3633L52.8269 53.7178ZM49.4397 61.2706L50.2418 64.7924L57.7301 63.0868L56.9279 59.565L49.4397 61.2706ZM55.6813 61.1166L55.9292 62.2047L51.4948 63.2148L51.2469 62.1266L55.6813 61.1166ZM58.5682 56.8284L58.856 58.0921L68.6609 55.8588L68.3731 54.5952L58.5682 56.8284ZM59.2995 54.5819L59.5794 55.8104L67.091 54.0995L66.8112 52.871L59.2995 54.5819ZM58.6893 51.9025L59.4381 55.1903L60.9826 54.8385L60.5162 52.791L66.4249 51.4452L66.1424 50.2049L58.6893 51.9025ZM63.8699 57.627C61.5298 58.1599 60.265 59.1988 60.5554 60.4741C60.8459 61.7495 62.4359 62.1381 64.776 61.6051C67.1161 61.0721 68.3692 60.0359 68.0788 58.7606C67.7883 57.4852 66.21 57.094 63.8699 57.627ZM64.1364 58.797C65.5872 58.4665 66.3857 58.5678 66.5109 59.1177C66.6388 59.6793 65.9577 60.0929 64.5068 60.4233C63.056 60.7538 62.2629 60.676 62.135 60.1144C62.0097 59.5644 62.6856 59.1274 64.1364 58.797ZM69.5144 55.2337L69.7969 56.4739L79.6135 54.238L79.331 52.9978L69.5144 55.2337ZM69.4457 49.3664L69.7149 50.5481L75.6001 49.2077L75.7494 49.8629L69.8758 51.2007L70.3928 53.4706L71.9373 53.1188L71.6708 51.9488L77.5326 50.6136L76.8637 47.6768L69.4457 49.3664ZM70.2862 53.0025L70.5554 54.1843L78.1723 52.4494L77.9031 51.2677L70.2862 53.0025ZM73.3302 52.9123L73.7992 54.9716L75.3554 54.6171L74.8863 52.5579L73.3302 52.9123ZM71.0236 56.8345L71.3034 58.063L77.3525 56.6852L77.7896 58.6041L79.3457 58.2496L78.6288 55.1023L71.0236 56.8345Z" fill="#343434"/>
</g>
<defs>
<filter id="filter0_d_649_287" x="8.6709" y="25.3906" width="101.832" height="80.6055" filterUnits="userSpaceOnUse" color-interpolation-filters="sRGB">
<feFlood flood-opacity="0" result="BackgroundImageFix"/>
<feColorMatrix in="SourceAlpha" type="matrix" values="0 0 0 0 0 0 0 0 0 0 0 0 0 0 0 0 0 0 127 0" result="hardAlpha"/>
<feOffset dy="4"/>
<feGaussianBlur stdDeviation="2"/>
<feComposite in2="hardAlpha" operator="out"/>
<feColorMatrix type="matrix" values="0 0 0 0 0 0 0 0 0 0 0 0 0 0 0 0 0 0 0.25 0"/>
<feBlend mode="normal" in2="BackgroundImageFix" result="effect1_dropShadow_649_287"/>
<feBlend mode="normal" in="SourceGraphic" in2="effect1_dropShadow_649_287" result="shape"/>
</filter>
</defs>
</svg>
