<svg width="37" height="25" viewBox="0 0 37 25" fill="none" xmlns="http://www.w3.org/2000/svg">
<path d="M5.92578 14.3828H11.5156L8.91406 4.96094H8.52734L5.92578 14.3828ZM16.9648 16.1055C16.9883 16.9023 17.0176 17.7168 17.0527 18.5488C17.0879 19.3809 17.1055 20.1836 17.1055 20.957V21.4844C17.1055 21.9297 17.0879 22.3633 17.0527 22.7852C17.0293 23.1953 16.9414 23.5703 16.7891 23.9102C16.6367 24.2383 16.3965 24.502 16.0684 24.7012C15.7402 24.9004 15.2773 25 14.6797 25C14.0703 25 13.6016 24.9004 13.2734 24.7012C12.9453 24.502 12.6992 24.2383 12.5352 23.9102C12.3828 23.582 12.2891 23.207 12.2539 22.7852C12.2305 22.3633 12.2188 21.9297 12.2188 21.4844V19.0234H5.1875V21.4844C5.1875 21.9297 5.16992 22.3633 5.13477 22.7852C5.11133 23.207 5.01758 23.582 4.85352 23.9102C4.70117 24.2383 4.46094 24.502 4.13281 24.7012C3.80469 24.9004 3.33594 25 2.72656 25C2.11719 25 1.64844 24.9004 1.32031 24.7012C0.992188 24.502 0.751953 24.2383 0.599609 23.9102C0.447266 23.5703 0.359375 23.1953 0.335938 22.7852C0.3125 22.3633 0.300781 21.9297 0.300781 21.4844V20.957C0.300781 20.5938 0.300781 20.207 0.300781 19.7969C0.3125 19.3867 0.324219 18.9707 0.335938 18.5488C0.347656 18.127 0.359375 17.7109 0.371094 17.3008C0.382812 16.8789 0.394531 16.4805 0.40625 16.1055C0.992188 14.0664 1.60742 12.0039 2.25195 9.91797C2.89648 7.82031 3.51172 5.74609 4.09766 3.69531C4.21484 3.26172 4.35547 2.8457 4.51953 2.44727C4.68359 2.03711 4.90039 1.68555 5.16992 1.39258C5.43945 1.08789 5.78516 0.847656 6.20703 0.671875C6.62891 0.484375 7.16797 0.390625 7.82422 0.390625H9.58203C10.2266 0.390625 10.7598 0.484375 11.1816 0.671875C11.6152 0.847656 11.9668 1.08789 12.2363 1.39258C12.5059 1.68555 12.7168 2.03711 12.8691 2.44727C13.0332 2.8457 13.1797 3.26172 13.3086 3.69531L16.9648 16.1055ZM20.8672 4.29297C20.8672 3.80078 20.8906 3.32031 20.9375 2.85156C20.9961 2.38281 21.1191 1.9668 21.3066 1.60352C21.4941 1.24023 21.7637 0.947266 22.1152 0.724609C22.4668 0.501953 22.9414 0.390625 23.5391 0.390625C24.1484 0.390625 24.6289 0.501953 24.9805 0.724609C25.332 0.947266 25.5957 1.24023 25.7715 1.60352C25.959 1.9668 26.0762 2.38281 26.123 2.85156C26.1816 3.32031 26.2109 3.80078 26.2109 4.29297V21.0625C26.2109 21.5547 26.1816 22.041 26.123 22.5215C26.0762 22.9902 25.959 23.4121 25.7715 23.7871C25.5957 24.1504 25.332 24.4434 24.9805 24.666C24.6289 24.8887 24.1484 25 23.5391 25C22.9414 25 22.4668 24.8887 22.1152 24.666C21.7637 24.4434 21.4941 24.1504 21.3066 23.7871C21.1191 23.4121 20.9961 22.9902 20.9375 22.5215C20.8906 22.041 20.8672 21.5547 20.8672 21.0625V4.29297ZM31.168 4.29297C31.168 3.80078 31.1914 3.32031 31.2383 2.85156C31.2969 2.38281 31.4199 1.9668 31.6074 1.60352C31.7949 1.24023 32.0645 0.947266 32.416 0.724609C32.7676 0.501953 33.2422 0.390625 33.8398 0.390625C34.4492 0.390625 34.9297 0.501953 35.2812 0.724609C35.6328 0.947266 35.8965 1.24023 36.0723 1.60352C36.2598 1.9668 36.377 2.38281 36.4238 2.85156C36.4824 3.32031 36.5117 3.80078 36.5117 4.29297V21.0625C36.5117 21.5547 36.4824 22.041 36.4238 22.5215C36.377 22.9902 36.2598 23.4121 36.0723 23.7871C35.8965 24.1504 35.6328 24.4434 35.2812 24.666C34.9297 24.8887 34.4492 25 33.8398 25C33.2422 25 32.7676 24.8887 32.416 24.666C32.0645 24.4434 31.7949 24.1504 31.6074 23.7871C31.4199 23.4121 31.2969 22.9902 31.2383 22.5215C31.1914 22.041 31.168 21.5547 31.168 21.0625V4.29297Z" fill="#953F3F"/>
</svg>
