<svg width="128" height="128" viewBox="0 0 128 128" fill="none" xmlns="http://www.w3.org/2000/svg">
<path d="M17.7098 113.368C13.8298 111.078 8.65983 106.818 8.80983 99.6584C8.93983 93.5784 17.5398 83.9084 39.5898 80.2084C61.6398 76.5084 73.8098 78.2684 83.6898 79.3284C93.5698 80.3884 99.7398 83.5584 99.7398 83.5584L90.7398 101.728L17.7098 113.368V113.368Z" fill="#04C1EA"/>
<path d="M56.8199 96.7581L36.5499 102.138L20.3099 109.308C20.3099 109.308 18.2899 113.568 19.2999 114.688C20.3099 115.808 35.2099 124.328 61.6299 124.428C90.8699 124.538 106.42 116.928 111.8 113.008C117.18 109.088 101.16 86.5781 101.16 86.5781L87.7899 81.0781L72.5999 82.5481L63.6399 87.0281L56.8199 96.7581V96.7581Z" fill="#F5C876"/>
<path d="M70.01 94.9297L92.66 93.7297C92.66 93.7297 89.7 88.0497 88.61 85.4997C87.37 82.5997 87.14 80.9297 87.14 80.9297C87.14 80.9297 89.8 80.1896 94.34 81.3396C98.88 82.4896 115.02 87.6697 118.97 97.6497C122.41 106.35 111.73 113.08 111.73 113.08C111.73 113.08 104.53 108.17 101.84 105.6C97.63 101.58 95.35 98.2097 95.35 98.2097L69.77 99.1097L68.25 98.0997L70.01 94.9297V94.9297Z" fill="#F2A159"/>
<path d="M21.3299 98.55C18.4699 101.41 21.7799 104.93 21.7799 104.93C21.7799 104.93 15.2899 106.39 15.5099 110.19C15.6199 112.09 18.1999 114.33 19.3199 114.67C20.4399 115.01 20.2199 112.83 21.7799 111.31C25.8099 107.39 38.2399 106.49 46.8599 105.6C55.4799 104.71 59.0199 101.73 60.6299 100.67C64.8899 97.87 63.3199 89.94 67.9599 86.41C75.4199 80.73 92.4799 81.51 92.3599 80.88C92.2399 80.25 78.2199 77.1 65.3699 82.3C56.7799 85.78 56.9399 93.05 50.8999 95.07C44.8599 97.09 25.9199 93.96 21.3299 98.55V98.55Z" fill="#DCECF6"/>
<path d="M33.39 101.251C31.58 101.911 33.29 103.821 34.13 104.301C35.81 105.261 38.08 106.271 38.08 106.271C38.08 106.271 33.31 109.891 34.63 111.781C35.6 113.171 44.58 109.721 44.58 109.721C44.67 109.721 50.12 114.171 52.44 114.181C54.17 114.191 53 107.731 53 107.731C53 107.731 60.29 106.181 60.29 103.961C60.29 102.231 56.67 102.731 56.67 102.731C56.67 102.731 35.2 100.591 33.39 101.251V101.251Z" fill="#EE594A"/>
<path d="M48.8402 96.8101C46.9502 96.6401 43.4702 100.55 43.4702 100.55C43.4702 100.55 33.2202 99.8501 33.0502 101.58C32.8802 103.31 38.4802 104.05 38.4802 105.03C38.4802 106.01 33.9602 109.63 34.3702 110.78C34.7802 111.93 43.7302 106.75 44.4002 107C45.0702 107.25 51.8502 113.8 53.0602 112.68C54.1002 111.72 53.0302 106.09 53.0302 106.09C53.0302 106.09 59.9402 104.45 59.8502 103.21C59.7702 101.98 51.1402 101.07 51.1402 101.07C51.1402 101.07 50.6502 96.9701 48.8402 96.8101Z" fill="#F79228"/>
<path d="M61.6099 17.8322L56.8799 17.4922L61.6999 52.7522C61.6999 52.7522 66.5299 92.4822 66.8599 94.8622C67.2799 97.9022 68.0299 99.5222 70.7099 99.1122C73.3899 98.7022 73.1199 96.0722 72.9499 94.0222C72.7799 91.9722 68.4899 54.6922 68.4899 54.6922L61.6099 17.8322V17.8322Z" fill="#4EA4B0"/>
<path d="M57.7398 11.8383C57.7398 11.8383 34.9098 14.3383 20.2098 30.6583C8.34981 43.8283 6.41981 55.6583 7.25981 55.7883C8.66981 56.0083 12.2598 54.8083 16.1798 56.4383C20.0998 58.0683 22.3798 61.4383 23.6898 61.4383C24.9998 61.4383 29.7798 58.1783 36.5298 59.1583C43.2698 60.1383 47.8398 64.1583 49.2598 64.1583C50.6798 64.1583 56.3298 59.9183 65.0298 59.4783C72.9698 59.0783 78.2998 60.9983 79.3898 60.8883C80.4798 60.7783 82.5998 54.0483 90.9798 51.5483C99.3598 49.0483 102.13 51.0983 103.33 51.0983C104.53 51.0983 105.18 45.2283 111.16 42.9383C117.14 40.6583 119.43 41.6283 120.73 41.4183C122.03 41.2083 115.94 26.6383 94.3498 16.7683C76.4998 8.6183 57.7398 11.8383 57.7398 11.8383V11.8383Z" fill="#EE5948"/>
<path d="M58.7901 13.4922C58.7901 13.4922 43.9301 17.9422 33.5901 34.1522C25.1301 47.4122 25.0001 57.2122 25.5401 57.7522C26.0801 58.2922 31.0901 55.7922 37.1801 56.3422C43.2701 56.8822 48.4101 61.4122 48.7101 60.3722C49.0901 59.0522 48.9701 47.3522 50.3501 37.5022C52.9201 19.0722 58.9201 15.0622 58.9201 15.0622C58.9201 15.0622 66.9201 20.4222 72.9901 35.5522C76.8001 45.0422 78.6902 54.7922 79.4802 56.0322C79.8302 56.5822 83.1201 51.5422 89.9601 49.3222C96.2901 47.2622 101.82 48.8522 102.58 48.4222C103.34 47.9822 96.2401 32.5822 84.3901 23.7222C71.0101 13.6922 58.7901 13.4922 58.7901 13.4922V13.4922Z" fill="#FEFEFE"/>
<path d="M57.4402 3.91022C54.5202 4.31022 55.4502 8.58022 55.6702 11.0902C55.7702 12.2002 56.0102 16.4602 58.9402 16.2302C61.3802 16.0402 61.0402 12.7902 60.8202 10.4002C60.6102 8.00022 60.5102 3.49022 57.4402 3.91022Z" fill="#4EA4B0"/>
</svg>
