<svg width="36" height="36" viewBox="0 0 36 36" fill="none" xmlns="http://www.w3.org/2000/svg">
<path d="M9.34424 14.7031H7.34424C7.21163 14.7031 7.08445 14.6504 6.99068 14.5567C6.89692 14.4629 6.84424 14.3357 6.84424 14.2031V7.20312C6.84424 7.07052 6.89692 6.94334 6.99068 6.84957C7.08445 6.7558 7.21163 6.70312 7.34424 6.70312H9.34424C9.47685 6.70312 9.60402 6.7558 9.69779 6.84957C9.79156 6.94334 9.84424 7.07052 9.84424 7.20312V14.2031C9.84424 14.3357 9.79156 14.4629 9.69779 14.5567C9.60402 14.6504 9.47685 14.7031 9.34424 14.7031Z" fill="#A0041E"/>
<path d="M5 16L18 3L31 16V33H5V16Z" fill="#FFE8B6"/>
<path d="M18 16H19V32H18V16Z" fill="#FFCC4D"/>
<path d="M30.9998 17.0002C30.8685 17.0003 30.7384 16.9745 30.6171 16.9242C30.4958 16.874 30.3856 16.8002 30.2928 16.7072L17.9998 4.4142L5.70685 16.7072C5.614 16.8 5.50378 16.8737 5.38247 16.9239C5.26117 16.9742 5.13115 17.0001 4.99985 17.0001C4.86855 17.0001 4.73853 16.9742 4.61722 16.9239C4.49592 16.8737 4.38569 16.8 4.29285 16.7072C4.2 16.6144 4.12636 16.5041 4.07611 16.3828C4.02586 16.2615 4 16.1315 4 16.0002C4 15.8689 4.02586 15.7389 4.07611 15.6176C4.12636 15.4963 4.2 15.386 4.29285 15.2932L17.2928 2.2932C17.3856 2.20026 17.4958 2.12652 17.6172 2.07621C17.7385 2.0259 17.8685 2 17.9998 2C18.1312 2 18.2612 2.0259 18.3825 2.07621C18.5039 2.12652 18.6141 2.20026 18.7069 2.2932L31.7069 15.2932C31.8471 15.4329 31.9428 15.6111 31.9816 15.8052C32.0205 15.9993 32.0008 16.2006 31.925 16.3835C31.8493 16.5664 31.7209 16.7226 31.5562 16.8324C31.3914 16.9423 31.1978 17.0006 30.9998 17.0002V17.0002Z" fill="#66757F"/>
<path d="M18.0002 16.9998C17.8023 17.0003 17.6086 16.9419 17.4439 16.8321C17.2792 16.7223 17.1508 16.566 17.0751 16.3831C16.9993 16.2002 16.9796 15.9989 17.0184 15.8048C17.0573 15.6107 17.1529 15.4325 17.2932 15.2928L23.7932 8.79285C23.8861 8.7 23.9963 8.62636 24.1176 8.57611C24.2389 8.52586 24.3689 8.5 24.5002 8.5C24.6315 8.5 24.7615 8.52586 24.8829 8.57611C25.0042 8.62636 25.1144 8.7 25.2072 8.79285C25.3001 8.88569 25.3737 8.99592 25.424 9.11722C25.4742 9.23853 25.5001 9.36855 25.5001 9.49985C25.5001 9.63115 25.4742 9.76117 25.424 9.88247C25.3737 10.0038 25.3001 10.114 25.2072 10.2068L18.7072 16.7069C18.6145 16.7998 18.5043 16.8736 18.383 16.9239C18.2616 16.9742 18.1316 17 18.0002 16.9998Z" fill="#66757F"/>
<path d="M10 26H14V32H10V26Z" fill="#C1694F"/>
<path d="M10 17H14V21H10V17ZM22.5 17H26.5V21H22.5V17ZM22.5 26H26.5V30H22.5V26Z" fill="#55ACEE"/>
<path d="M33.5 33.5C33.5 33.8978 33.342 34.2794 33.0607 34.5607C32.7794 34.842 32.3978 35 32 35H4C3.60218 35 3.22064 34.842 2.93934 34.5607C2.65804 34.2794 2.5 33.8978 2.5 33.5C2.5 33.1022 2.65804 32.7206 2.93934 32.4393C3.22064 32.158 3.60218 32 4 32H32C32.3978 32 32.7794 32.158 33.0607 32.4393C33.342 32.7206 33.5 33.1022 33.5 33.5Z" fill="#5C913B"/>
</svg>
