<svg width="64" height="64" viewBox="0 0 64 64" fill="none" xmlns="http://www.w3.org/2000/svg">
<path d="M40.0001 24.001C44.8001 28.801 52.3001 29.001 57.4001 24.701L39.3001 6.60105C35.0001 11.601 35.3001 19.201 40.0001 24.001ZM58.2001 5.80105C53.5001 1.00105 45.9001 0.801046 40.8001 5.00105L59.0001 23.201C63.2001 18.101 63.0001 10.501 58.2001 5.80105" fill="#C6CEDB"/>
<path d="M59.3 23.5031L40.5 4.70312C40.3 5.00313 40 5.20313 39.7 5.50313C39.5 5.70313 39.2 6.00313 39 6.30313L57.7 25.0031C58 24.8031 58.2 24.5031 58.5 24.3031C58.8 24.0031 59 23.7031 59.3 23.5031ZM32 20.9031L6.2 52.8031L7.5 54.0031L2 60.9031L3.1 62.0031L10 56.5031L11.2 57.8031L43.1 32.0031L32 20.9031Z" fill="#3E4347"/>
<path d="M57.7001 37.2988C57.0001 33.6988 53.7001 32.9988 53.7001 32.9988L47.4001 44.5988C47.2001 43.2988 46.2001 41.7988 44.5001 40.9988C42.2001 39.6988 39.5001 40.0988 38.6001 41.6988C37.7001 43.2988 38.9001 45.6988 41.2001 46.9988C43.5001 48.2988 46.2001 47.8988 47.1001 46.2988L52.1001 36.9988C52.6001 36.9988 53.4001 37.2988 54.5001 38.5988C56.8001 41.1988 59.9001 41.4988 59.9001 41.4988C59.9001 41.4988 58.2001 40.3988 57.7001 37.2988ZM29.4001 5.39878C26.4001 0.998785 21.5001 2.09878 21.5001 2.09878L20.0001 21.3988C19.0001 19.6988 16.7001 18.3988 14.0001 18.1988C10.1001 17.8988 6.80008 19.8988 6.60008 22.5988C6.40008 25.3988 9.30008 27.8988 13.2001 28.1988C17.1001 28.4988 20.4001 26.4988 20.6001 23.7988L21.8001 8.39878C22.5001 8.09878 23.7001 7.99879 25.9001 9.09879C30.5001 11.1988 34.8001 9.79879 34.8001 9.79879C34.8001 9.79879 32.0001 9.29878 29.4001 5.39878" fill="#4FD1D9"/>
<path d="M49.8001 27.7031L36.3001 14.2031L34.6001 17.7031L46.3001 29.4031L49.8001 27.7031Z" fill="#3E4347"/>
<path d="M43.1 32.0009L32 20.9009L34.6 17.7009L46.3 29.4009L43.1 32.0009ZM39.303 5.65194L39.869 5.08594L58.961 24.1779L58.395 24.7439L39.303 5.65194Z" fill="#C6CEDB"/>
<path d="M5.41992 53.6605L6.26992 52.8125L11.2899 57.8325L10.4409 58.6815L5.41992 53.6605Z" fill="#8A94A0"/>
<path d="M16.4998 48.1969C16.8864 48.1969 17.1998 47.8835 17.1998 47.4969C17.1998 47.1103 16.8864 46.7969 16.4998 46.7969C16.1132 46.7969 15.7998 47.1103 15.7998 47.4969C15.7998 47.8835 16.1132 48.1969 16.4998 48.1969Z" fill="#C6CEDB"/>
<path d="M13.1999 52.6C14.194 52.6 14.9999 51.7941 14.9999 50.8C14.9999 49.8059 14.194 49 13.1999 49C12.2058 49 11.3999 49.8059 11.3999 50.8C11.3999 51.7941 12.2058 52.6 13.1999 52.6Z" fill="#C6CEDB"/>
<path d="M11.1001 50.3984H15.2001V51.2984H11.1001V50.3984Z" fill="#3E4347"/>
<path d="M34.0002 31.8031C34.9943 31.8031 35.8002 30.9972 35.8002 30.0031C35.8002 29.009 34.9943 28.2031 34.0002 28.2031C33.0061 28.2031 32.2002 29.009 32.2002 30.0031C32.2002 30.9972 33.0061 31.8031 34.0002 31.8031Z" fill="#C6CEDB"/>
<path d="M32.2529 28.8089L32.8889 28.1719L35.7889 31.0709L35.1529 31.7069L32.2529 28.8089Z" fill="#3E4347"/>
<path d="M11.5998 55.3998C11.4998 55.4998 11.2998 55.4998 11.1998 55.3998L8.4998 52.6998C8.3998 52.5998 8.3998 52.3998 8.4998 52.2998C8.5998 52.1998 8.7998 52.1998 8.8998 52.2998L11.5998 54.9998C11.6998 55.1998 11.6998 55.2998 11.5998 55.3998M21.8218 38.5948L29.0338 31.3828L32.5698 34.9178L25.3568 42.1308L21.8218 38.5948Z" fill="#C6CEDB"/>
<path d="M22.9258 38.4619L25.9658 35.4219L28.5118 37.9669L25.4708 41.0069L22.9258 38.4619Z" fill="#8A94A0"/>
<path d="M23.4971 38.3435L23.8511 37.9905L25.9721 40.1115L25.6191 40.4655L23.4971 38.3435ZM24.2241 37.6945L24.5781 37.3415L26.6991 39.4625L26.3461 39.8165L24.2241 37.6945ZM24.8081 37.0475L25.1621 36.6935L27.2831 38.8155L26.9301 39.1685L24.8081 37.0475ZM25.5341 36.3995L25.8871 36.0455L28.0081 38.1675L27.6551 38.5205L25.5341 36.3995ZM25.9501 35.4785L28.9901 32.4375L31.5371 34.9825L28.4971 38.0235L25.9501 35.4785Z" fill="#3E4347"/>
</svg>
