<svg width="32" height="32" viewBox="0 0 32 32" fill="none" xmlns="http://www.w3.org/2000/svg">
<path d="M13 14C13.6497 13.1333 14.0004 12.079 13.9993 10.9958C13.9982 9.91253 13.6454 8.85896 12.9938 7.99357C12.3423 7.12818 11.4274 6.49778 10.3867 6.19722C9.34599 5.89666 8.23583 5.94219 7.22325 6.32697C6.21066 6.71175 5.35043 7.41497 4.77196 8.33081C4.1935 9.24665 3.92811 10.3256 4.01571 11.4053C4.10332 12.4849 4.53918 13.507 5.25773 14.3176C5.97627 15.1282 6.93863 15.6835 8 15.9V17H7C6.46957 17 5.96086 17.2107 5.58579 17.5858C5.21071 17.9609 5 18.4696 5 19V20L4.5 21.5L5 23V28C5 28.5304 5.21071 29.0391 5.58579 29.4142C5.96086 29.7893 6.46957 30 7 30H21C21.5304 30 22.0391 29.7893 22.4142 29.4142C22.7893 29.0391 23 28.5304 23 28L24 23.5L23 19C23 18.4696 22.7893 17.9609 22.4142 17.5858C22.0391 17.2107 21.5304 17 21 17H20V16C21.1263 16 22.2197 15.6197 23.1029 14.9207C23.9861 14.2217 24.6075 13.245 24.8662 12.1488C25.125 11.0526 25.0061 9.90107 24.5287 8.88089C24.0514 7.86071 23.2435 7.03159 22.2361 6.52787C21.2286 6.02415 20.0806 5.87534 18.9781 6.10556C17.8755 6.33577 16.8829 6.93151 16.1612 7.79627C15.4395 8.66102 15.031 9.74413 15.0017 10.8701C14.9724 11.9961 15.3242 13.0989 16 14H13ZM2 19.5C2 19.3674 2.05268 19.2402 2.14645 19.1465C2.24021 19.0527 2.36739 19 2.5 19C2.63261 19 2.75979 19.0527 2.85355 19.1465C2.94732 19.2402 3 19.3674 3 19.5V20L3.5 21.5L3 23V24.5C3 24.6326 2.94732 24.7598 2.85355 24.8536C2.75979 24.9473 2.63261 25 2.5 25C2.36739 25 2.24021 24.9473 2.14645 24.8536C2.05268 24.7598 2 24.6326 2 24.5V19.5ZM25.553 18.224C25.3869 18.307 25.2472 18.4346 25.1496 18.5925C25.0519 18.7504 25.0001 18.9323 25 19.118L24 23.5L25 27.882C25.0001 28.0677 25.0519 28.2496 25.1496 28.4075C25.2472 28.5654 25.3869 28.693 25.553 28.776L28.553 30.276C28.7054 30.3522 28.8748 30.3881 29.045 30.3805C29.2152 30.3728 29.3806 30.3218 29.5256 30.2322C29.6706 30.1426 29.7902 30.0175 29.8733 29.8687C29.9563 29.7199 29.9999 29.5524 30 29.382V17.618C29.9999 17.4476 29.9563 17.2801 29.8733 17.1313C29.7902 16.9825 29.6706 16.8574 29.5256 16.7678C29.3806 16.6783 29.2152 16.6272 29.045 16.6196C28.8748 16.6119 28.7054 16.6478 28.553 16.724L25.553 18.224Z" fill="#321B41"/>
<path d="M8 25C8 24.7348 8.10536 24.4804 8.29289 24.2929C8.48043 24.1054 8.73478 24 9 24H19C19.2652 24 19.5196 24.1054 19.7071 24.2929C19.8946 24.4804 20 24.7348 20 25V27C20 27.2652 19.8946 27.5196 19.7071 27.7071C19.5196 27.8946 19.2652 28 19 28H9C8.73478 28 8.48043 27.8946 8.29289 27.7071C8.10536 27.5196 8 27.2652 8 27V25Z" fill="#D3D3D3"/>
<path d="M12 26C12 26.2652 11.8946 26.5196 11.7071 26.7071C11.5196 26.8946 11.2652 27 11 27C10.7348 27 10.4804 26.8946 10.2929 26.7071C10.1054 26.5196 10 26.2652 10 26C10 25.7348 10.1054 25.4804 10.2929 25.2929C10.4804 25.1054 10.7348 25 11 25C11.2652 25 11.5196 25.1054 11.7071 25.2929C11.8946 25.4804 12 25.7348 12 26Z" fill="#CA0B4A"/>
<path d="M15 26C15 25.7348 15.1054 25.4804 15.2929 25.2929C15.4804 25.1054 15.7348 25 16 25H17C17.2652 25 17.5196 25.1054 17.7071 25.2929C17.8946 25.4804 18 25.7348 18 26C18 26.2652 17.8946 26.5196 17.7071 26.7071C17.5196 26.8946 17.2652 27 17 27H16C15.7348 27 15.4804 26.8946 15.2929 26.7071C15.1054 26.5196 15 26.2652 15 26Z" fill="#433B6B"/>
<path d="M10 11C10 11.2652 9.89464 11.5196 9.70711 11.7071C9.51957 11.8946 9.26522 12 9 12C8.73478 12 8.48043 11.8946 8.29289 11.7071C8.10536 11.5196 8 11.2652 8 11C8 10.7348 8.10536 10.4804 8.29289 10.2929C8.48043 10.1054 8.73478 10 9 10C9.26522 10 9.51957 10.1054 9.70711 10.2929C9.89464 10.4804 10 10.7348 10 11V11ZM25 19H23V28H25V19ZM5 20H3V23H5V20ZM20 12C20.2652 12 20.5196 11.8946 20.7071 11.7071C20.8946 11.5196 21 11.2652 21 11C21 10.7348 20.8946 10.4804 20.7071 10.2929C20.5196 10.1054 20.2652 10 20 10C19.7348 10 19.4804 10.1054 19.2929 10.2929C19.1054 10.4804 19 10.7348 19 11C19 11.2652 19.1054 11.5196 19.2929 11.7071C19.4804 11.8946 19.7348 12 20 12Z" fill="#9B9B9B"/>
</svg>
