<svg width="64" height="64" viewBox="0 0 64 64" fill="none" xmlns="http://www.w3.org/2000/svg">
<path d="M2 4V60L32 32L2 4Z" fill="#333333"/>
<path d="M62 4H2L32 32L62 4Z" fill="#697277"/>
<path d="M2 60H62L32 32L2 60Z" fill="#333333"/>
<path d="M32 32L62 60V4L32 32Z" fill="#697277"/>
<path d="M5 7H59V57H5V7Z" fill="#52595E"/>
<path d="M9 11V53L32 32L9 11Z" fill="#697277"/>
<path d="M55 11H9L32 32L55 11Z" fill="#333333"/>
<path d="M9 53H55L32 32L9 53Z" fill="#697277"/>
<path d="M32 32L55 53V11L32 32Z" fill="#333333"/>
<path d="M16 18H48V36H16V18Z" fill="#42ADE2"/>
<path d="M16 34.7031H48V46.0031H16V34.7031Z" fill="#FED0AC"/>
<path d="M40.5002 28.3031C42.5989 28.3031 44.3002 26.6018 44.3002 24.5031C44.3002 22.4044 42.5989 20.7031 40.5002 20.7031C38.4015 20.7031 36.7002 22.4044 36.7002 24.5031C36.7002 26.6018 38.4015 28.3031 40.5002 28.3031Z" fill="#FFCE31"/>
<path d="M21.2998 37.8984L31.9998 40.9984V28.3984L21.2998 37.8984Z" fill="#89664C"/>
<path d="M42.7 37.8984L32 40.9984V28.3984L42.7 37.8984Z" fill="#D3976E"/>
<path d="M11 13V51H53V13H11ZM47 45H17V19H47V45Z" fill="white"/>
<path d="M12 14V50H52V14H12ZM48.2 46.2H15.8V17.8H48.1V46.2H48.2Z" fill="#BFB3A4"/>
</svg>
