<svg width="57" height="57" viewBox="0 0 57 57" fill="none" xmlns="http://www.w3.org/2000/svg">
<path d="M54.622 55.2188H2.37797C2.04844 55.2188 1.78125 54.9516 1.78125 54.622V2.37797C1.78125 2.04844 2.04844 1.78125 2.37797 1.78125H54.622C54.9516 1.78125 55.2188 2.04844 55.2188 2.37797V54.622C55.2188 54.9516 54.9516 55.2188 54.622 55.2188Z" fill="#F2A600"/>
<path d="M9.46729 9.46875H47.5281V47.5296H9.46729V9.46875Z" fill="white"/>
<path opacity="0.5" d="M54.6222 1.78125H2.37813C2.21336 1.78125 2.06641 1.84805 1.95508 1.95492L9.4675 9.46734H47.5284L55.0408 1.95492C54.9339 1.84805 54.787 1.78125 54.6222 1.78125V1.78125Z" fill="#D1762C"/>
<path d="M9.46734 9.46555L1.95492 1.95312C1.84805 2.06445 1.78125 2.21141 1.78125 2.37617V54.6202C1.78125 54.785 1.84805 54.9364 1.95492 55.0433L9.46734 47.5309V9.46555Z" fill="#DE7340"/>
<path d="M50.9883 6.01562V50.9922H6.01172V6.01562H50.9883ZM53.6602 3.34375H3.33984V53.6641H53.6602V3.34375Z" fill="#FFCD40"/>
<path d="M6.01172 50.9922V6.01562L3.33984 3.34375V53.6641L6.01172 50.9922Z" fill="#A65F3E"/>
<path d="M50.9571 6.01562L53.629 3.34375H3.33984L6.01172 6.01562H50.9571Z" fill="#D1762C"/>
<path d="M51.8789 51.8828H5.12109V5.125H51.8789V51.8828ZM6.01172 50.9922H50.9883V6.01562H6.01172V50.9922Z" fill="#D1762C"/>
<path d="M6.01172 50.9922V6.01562L5.12109 5.125V51.8828L6.01172 50.9922Z" fill="#824A34"/>
<path d="M50.9883 6.01562L51.8789 5.125H5.12109L6.01172 6.01562H50.9883Z" fill="#A65F3E"/>
<path d="M12.2461 12.25H44.7539V44.7578H12.2461V12.25Z" fill="url(#paint0_linear_593_711)"/>
<path d="M44.754 27.8828C43.7743 28.1634 42.9148 28.8313 42.3938 29.7086C42.3137 29.8466 42.2424 30.0025 42.0999 30.0871C41.6412 30.2563 41.1158 30.292 40.7595 30.6927C40.6081 29.7487 39.4637 29.2232 38.5864 29.5171C37.8427 29.7041 37.4731 30.4879 37.4063 31.2004C36.6226 30.9688 35.7587 31.57 35.7052 32.3849C35.6963 32.4606 35.6963 32.5452 35.6562 32.6076C35.4603 32.808 35.064 32.7857 34.8235 33.0262C34.347 33.4002 34.1244 34.0459 33.6167 34.3755C36.4845 32.759 39.9535 32.9861 43.0796 32.2023C43.6986 32.0509 44.3888 31.8595 44.754 31.3162V27.8828V27.8828Z" fill="#1B5E20"/>
<path d="M44.7541 42.1247C44.7541 42.1247 37.3664 42.5077 29.3018 40.0228C21.2372 37.5424 17.5366 35.0041 17.5366 35.0041C17.5366 35.0041 22.9294 36.0506 30.1301 34.875C34.8459 34.1046 38.3416 31.4372 44.7452 31.3125L44.7541 42.1247V42.1247Z" fill="#689F38"/>
<path d="M25.6053 35.4905C25.6676 35.4059 25.7433 35.3257 25.77 35.2233C25.8012 35.0986 25.7522 34.9694 25.7166 34.8492C25.6186 34.4974 25.6498 34.11 25.7968 33.7716C25.8725 33.5934 25.9838 33.4331 26.0372 33.2461C26.1308 32.9255 26.0417 32.5826 26.0239 32.2486C25.9972 31.7944 26.0996 31.3357 26.3133 30.9349C26.3445 30.877 26.3801 30.8191 26.4425 30.788C26.6117 30.7123 26.7542 30.9483 26.772 31.1309C26.8254 31.594 26.7275 32.0705 26.8254 32.5291C26.9635 33.1704 27.48 33.727 27.4444 34.3861C27.4311 34.6221 27.3465 34.8581 27.391 35.0852C27.4266 35.2589 27.5379 35.4103 27.6315 35.5617C27.8719 35.9536 28.0189 36.3944 28.0634 36.8531C28.1168 37.4009 27.9521 38.0555 27.44 38.2469C26.8833 38.4607 26.3133 38.0065 25.8769 37.7081C25.4761 37.432 25.2847 36.862 25.298 36.3944C25.3069 36.0738 25.4093 35.7487 25.6053 35.4905V35.4905Z" fill="#2E7D32"/>
<path d="M38.6619 25.3472L33.3538 25.7346C32.4765 25.797 31.5859 25.8638 30.722 25.6945C30.3123 25.6144 29.9115 25.4808 29.4929 25.4585C28.7314 25.4184 28.0056 25.7435 27.2663 25.9306C26.4559 26.1354 25.6053 26.1755 24.7815 26.0463C24.207 25.9573 23.6192 25.7702 23.2006 25.365C22.9913 25.1646 22.831 24.9108 22.6084 24.7193C22.3367 24.4788 21.9849 24.3452 21.6821 24.1493C20.3996 23.3299 20.0968 21.3216 21.081 20.1593C21.2413 19.9723 21.4283 19.8031 21.5708 19.5982C21.8469 19.2063 21.936 18.7165 22.1007 18.2667C22.6217 16.8195 23.9799 15.7195 25.4985 15.4702C27.017 15.2208 28.6379 15.8175 29.6621 16.9664C29.9961 17.3405 30.2945 17.7813 30.7576 17.9684C31.0292 18.0752 31.332 18.0841 31.6215 18.1198C33.2736 18.3291 34.6585 19.5982 35.3621 21.1078C35.6738 21.7802 35.892 22.5239 36.4131 23.0449C36.6268 23.2587 36.8851 23.4279 37.1434 23.5882C38.3012 24.3096 39.5124 24.942 40.7638 25.4808C40.4431 25.4585 40.127 25.4407 39.8063 25.4184" fill="white"/>
<path d="M33.3537 25.7366C32.4764 25.799 31.5858 25.8658 30.7219 25.6966C30.3122 25.6164 29.9114 25.4828 29.4928 25.4605C28.7313 25.4205 28.0055 25.7455 27.2663 25.9326C26.4558 26.1374 25.6053 26.1775 24.7814 26.0484C24.207 25.9593 23.6192 25.7723 23.2006 25.367C22.9913 25.1666 22.831 24.9128 22.6083 24.7213C22.3367 24.4809 21.9849 24.3473 21.6821 24.1513C21.2189 23.853 20.9562 23.4388 20.7157 22.9579C20.6578 22.8466 20.6578 22.7441 20.6489 22.6195C21.0363 23.2162 22.0828 23.8574 22.5014 23.3898C22.6395 22.9802 22.1496 22.2677 21.9849 21.7021C21.6731 20.6334 21.642 19.5245 22.0249 18.478C22.0695 18.3534 22.1808 17.9481 22.3322 17.7344C22.448 18.6027 22.7508 19.9209 23.3698 20.5398C23.9888 21.1588 25.0219 21.4216 25.7656 20.9584C26.2331 20.6645 26.5092 20.1524 26.8477 19.716C27.8452 18.438 29.5863 17.7834 31.1806 18.0906C30.3567 18.5716 29.5552 19.1549 29.0698 19.9743C28.5844 20.7937 28.4686 21.8936 29.0119 22.6818C29.4483 23.3141 30.241 23.6392 31.0069 23.6259C31.4299 23.617 31.9064 23.47 32.0801 23.0826C32.1781 22.8599 32.1558 22.5927 32.2671 22.3745C32.4764 21.9559 33.091 21.9025 33.5051 22.1163C33.9237 22.3345 34.2087 22.7308 34.5293 23.0692C35.7317 24.3339 37.5085 24.8416 39.1917 25.2958C39.1428 25.2824 39.0403 25.3225 38.9869 25.3314L38.7464 25.3715C38.6217 25.3938 38.4971 25.4249 38.3679 25.4071C38.1007 25.367 37.8291 25.4116 37.5619 25.4294C36.934 25.4739 36.3017 25.5229 35.6738 25.5674C34.9034 25.6209 34.1285 25.6788 33.3537 25.7366V25.7366Z" fill="#C9E3E6"/>
<path d="M44.7539 38.3134C29.1368 41.9516 21.7134 33.0142 12.2461 32.0078V44.7571H44.7539V38.3134Z" fill="#8BC34A"/>
<path d="M44.7539 38.3134C29.1368 41.9516 21.7134 33.0142 12.2461 32.0078V44.7571H44.7539V38.3134Z" fill="url(#paint1_radial_593_711)"/>
<path d="M16.1736 34.3572C15.7105 34.4952 15.3276 34.139 14.9401 33.952C13.9115 33.1905 13.9115 31.8011 13.9916 30.6388C13.9694 30.3627 14.1653 29.9085 14.4904 30.1045C14.3568 29.4365 14.3434 28.7463 14.4414 28.0738C14.5082 27.5528 14.6908 27.1921 15.1138 26.9249C15.1405 26.8715 15.1227 26.8092 15.1094 26.7513C14.9134 25.9853 15.2697 25.1927 15.3053 24.4C15.3365 23.781 15.1717 23.1398 15.3854 22.5609C15.4745 22.3026 15.7996 22.1601 15.8575 22.4852C16.1692 23.7053 16.708 24.921 16.6056 26.2035C16.57 26.3772 16.6368 26.5197 16.7793 26.6221C17.6877 27.4326 17.2825 28.8442 17.4294 29.9442C17.8569 30.955 17.848 32.0861 17.3404 33.0702C17.1088 33.6135 16.7347 34.1167 16.1736 34.3572V34.3572Z" fill="#2E7D32"/>
<path d="M22.3324 35.0314C20.3642 34.5594 20.284 35.0804 19.6339 34.929C17.3984 34.2566 18.7744 32.079 19.4201 31.5491C19.1485 30.5115 19.8565 30.0884 20.6937 29.0642C20.8273 26.9668 22.8401 27.5769 22.5818 29.416C23.1162 30.1107 23.3121 30.8722 23.1385 31.7405C23.1919 32.2571 23.6951 32.5955 23.9311 33.0587C24.3898 33.9626 23.6194 35.3387 22.3324 35.0314V35.0314Z" fill="#689F38"/>
<path d="M21.5842 31.6207C21.3482 32.1105 20.6714 32.213 20.1414 32.0794C19.8965 32.017 19.6382 31.8834 19.4022 31.9725C18.85 32.1773 18.6764 32.6227 18.6585 33.068C18.6585 33.6647 19.2553 34.1323 19.852 34.159C20.4487 34.1857 21.0098 33.874 21.4596 33.491C21.5932 34.2926 22.8356 34.2703 23.3789 33.8116C23.8954 33.3752 23.6728 32.6761 23.6728 32.6761C24.2917 33.3663 24.2606 33.9096 24.1893 34.4841C24.1225 35.0362 23.646 35.6508 23.931 36.0783C22.9424 36.3321 22.4526 35.4816 21.6644 35.1298C21.3749 35.0496 21.0721 35.1342 20.7782 35.1921C19.567 35.5083 18.2088 34.7958 18.1999 33.4554C18.191 32.8097 18.5472 32.1729 19.0905 31.8211C19.1528 31.781 19.2196 31.7409 19.2464 31.6697C19.2731 31.594 19.2464 31.5138 19.2196 31.4381C18.6674 29.9597 20.1103 29.973 20.7337 29.0156C20.9831 29.2917 21.3928 29.4075 21.749 29.3051C21.4685 29.9552 20.6803 29.6435 20.1815 29.9062C19.2553 30.6677 20.7782 31.7365 21.5842 31.6207V31.6207Z" fill="#2E7D32"/>
<path d="M14.9178 28.6355C15.2384 29.2188 16.0845 29.6909 15.893 30.4523C15.6036 30.2609 15.2518 30.0159 14.9 30.0293C14.6061 30.4212 14.7218 31.107 14.9534 31.5122C16.0311 32.955 17.1933 30.7774 17.2824 29.7577C18.5916 31.2895 17.3937 35.5378 15.0247 34.0594C14.7085 33.8055 13.7867 32.7858 13.8401 31.0847C13.8713 30.0516 14.2854 29.9848 14.5259 30.0159C14.1741 29.4727 14.1073 28.7023 14.2454 28.1456C14.3656 27.6691 14.5749 27.2862 14.8955 26.9745C15.2206 26.6538 14.9846 26.3688 14.9935 25.879C15.0024 25.1665 15.1894 24.7568 15.3364 24.3516C15.3898 25.1086 15.6704 25.8879 15.5501 26.6405C15.4789 26.9611 15.1226 26.9566 14.9623 27.1882C14.6996 27.6202 14.6773 28.1902 14.9178 28.6355V28.6355Z" fill="#1B5E20"/>
<path d="M16.503 36.5959C16.6723 37.1437 14.6684 36.7429 14.9489 36.0393C15.1448 35.5494 15.2339 35.0373 15.3319 34.5341C15.4298 33.737 15.1938 33.0245 14.8242 32.3432C14.9088 32.2675 15.0068 32.2007 15.1092 32.1517C15.9108 33.6391 15.9375 33.1136 16.5966 31.9513C16.7212 31.938 16.8459 31.9469 16.9662 31.978C16.1691 33.2427 15.9776 35.1353 16.503 36.5959V36.5959Z" fill="url(#paint2_radial_593_711)"/>
<defs>
<linearGradient id="paint0_linear_593_711" x1="25.9328" y1="37.6595" x2="29.6565" y2="24.3799" gradientUnits="userSpaceOnUse">
<stop offset="0.117" stop-color="#AFE4FE"/>
<stop offset="0.608" stop-color="#84C9ED"/>
<stop offset="1" stop-color="#5FB2DE"/>
</linearGradient>
<radialGradient id="paint1_radial_593_711" cx="0" cy="0" r="1" gradientUnits="userSpaceOnUse" gradientTransform="translate(35.3514 38.6544) rotate(8.61977) scale(16.0062 8.1392)">
<stop stop-color="#D4E157"/>
<stop offset="1" stop-color="#D4E157" stop-opacity="0"/>
</radialGradient>
<radialGradient id="paint2_radial_593_711" cx="0" cy="0" r="1" gradientUnits="userSpaceOnUse" gradientTransform="translate(16.7503 34.2223) rotate(15.9186) scale(2.11888 2.64022)">
<stop offset="0.441" stop-color="#A06841"/>
<stop offset="0.923" stop-color="#A06841" stop-opacity="0.138"/>
<stop offset="1" stop-color="#A06841" stop-opacity="0"/>
</radialGradient>
</defs>
</svg>
