<svg width="64" height="64" viewBox="0 0 64 64" fill="none" xmlns="http://www.w3.org/2000/svg">
<g clip-path="url(#clip0_593_761)">
<path d="M32.5 11.5C32.5 11.8 32.3 12 32 12C31.7 12 31.5 11.8 31.5 11.5V0.5C31.5 0.2 31.7 0 32 0C32.3 0 32.5 0.2 32.5 0.5V11.5ZM23.5 11.5C23.5 11.8 23.3 12 23 12C22.7 12 22.5 11.8 22.5 11.5V0.5C22.5 0.2 22.7 0 23 0C23.3 0 23.5 0.2 23.5 0.5V11.5ZM41.5 11.5C41.5 11.8 41.3 12 41 12C40.7 12 40.5 11.8 40.5 11.5V0.5C40.5 0.2 40.7 0 41 0C41.3 0 41.5 0.2 41.5 0.5V11.5Z" fill="#62727A"/>
<path d="M23.5 1V5L27.5 3L23.5 1Z" fill="#42ADE2"/>
<path d="M32.5 1V5L36.5 3L32.5 1Z" fill="#F15744"/>
<path d="M41.5 1V5L45.5 3L41.5 1Z" fill="#FFE62E"/>
<path d="M32 26.7031C49.6731 26.7031 64 23.1214 64 18.7031C64 14.2848 49.6731 10.7031 32 10.7031C14.3269 10.7031 0 14.2848 0 18.7031C0 23.1214 14.3269 26.7031 32 26.7031Z" fill="#E8E8E8"/>
<path d="M32.0002 29.2031C48.4583 29.2031 61.8002 25.6214 61.8002 21.2031C61.8002 16.7848 48.4583 13.2031 32.0002 13.2031C15.5421 13.2031 2.2002 16.7848 2.2002 21.2031C2.2002 25.6214 15.5421 29.2031 32.0002 29.2031Z" fill="#B2C1C0"/>
<path d="M31.9999 30.2969C48.0714 30.2969 61.0999 26.7152 61.0999 22.2969C61.0999 17.8786 48.0714 14.2969 31.9999 14.2969C15.9284 14.2969 2.8999 17.8786 2.8999 22.2969C2.8999 26.7152 15.9284 30.2969 31.9999 30.2969Z" fill="#E8E8E8"/>
<path d="M31.8998 33.5C47.9713 33.5 60.9998 29.9183 60.9998 25.5C60.9998 21.0817 47.9713 17.5 31.8998 17.5C15.8283 17.5 2.7998 21.0817 2.7998 25.5C2.7998 29.9183 15.8283 33.5 31.8998 33.5Z" fill="#62727A"/>
<path d="M54.2001 22.8036C45.7001 19.1036 18.5001 18.9036 10.4001 22.8036C10.1001 22.9036 9.8001 23.1036 9.6001 23.3036C21.7001 25.6036 42.2001 25.4036 54.5001 22.9036C54.4001 22.9036 54.3001 22.9036 54.2001 22.8036Z" fill="#83BF4F"/>
<path d="M0 39.2969H64V63.9969H0V39.2969Z" fill="#62727A"/>
<path d="M11.1999 12.7031C10.8999 12.7031 10.6999 12.8031 10.3999 12.9031L16.2999 18.8031C16.5999 18.8031 16.8999 18.7031 17.1999 18.7031L11.1999 12.7031M53.6999 12.9031C53.3999 12.9031 53.1999 12.8031 52.8999 12.7031L46.8999 18.7031C47.1999 18.7031 47.4999 18.8031 47.7999 18.8031L53.6999 12.9031M32.4999 17.5031V10.7031H31.4999V17.5031H32.4999Z" fill="#B2C1C0"/>
<path d="M18.5 24.5L19.5 22.5H31.5V25H32.5V22.5H44.5L45.4 24.3C45.7 24.3 46 24.2 46.4 24.2L45 21.5H19L17.5 24.5H18.5Z" fill="#F9F3D9"/>
<path d="M64 18.2031C64 18.8031 63.8 19.3031 63.3 19.7031C54.6 26.4031 7 27.0031 0.4 19.7031C0.1 19.4031 0 19.0031 0 18.6031V39.4031C0 47.6031 64 49.6031 64 38.4031V18.2031Z" fill="#B2C1C0"/>
<path d="M37.5999 32.9C37.1999 31.9 36.0999 31 34.9999 31H28.9999C27.8999 31 26.7999 31.9 26.4999 32.9L25.5999 36.1C25.2999 37.1 25.8999 38 26.9999 38H36.9999C38.0999 38 38.7999 37.1 38.4999 36.1L37.5999 32.9Z" fill="#E8E8E8"/>
<path d="M37 36H27C25.9 36 25 36.9 25 38V48H39V38C39 36.9 38.1 36 37 36Z" fill="#B2C1C0"/>
<path d="M28 40H36V49.3H28V40Z" fill="#62727A"/>
<path d="M0 34.7V36.2C5 40.5 21.3 41.6 25 41.9V40.7C12.1 39.9 2.3 37.5 0 34.7ZM64 34C61.8 37.7 52.7 40.2 39 40.8V42C45.6 41.7 59.4 40.5 64 35.7V34ZM0 29.7V31.2C5 35.5 21.3 36.6 25 36.9V35.7C12.1 34.9 2.3 32.5 0 29.7M64 29C61.8 32.7 52.7 35.2 39 35.8V37C45.6 36.7 59.4 35.5 64 30.7V29M0 24.7V26.2C5 30.5 21.3 31.6 25 31.9V30.7C12.1 29.9 2.3 27.5 0 24.7ZM64 24C61.8 27.7 52.7 30.2 39 30.8V32C45.6 31.7 59.4 30.5 64 25.7V24Z" fill="white"/>
<path d="M3.5 30.6024C3.5 30.9024 3.3 31.1024 3 30.9024L2 30.4024C1.7 30.3024 1.5 29.9024 1.5 29.6024V28.3024C1.5 28.0024 1.7 27.8024 2 28.0024L3 28.5024C3.3 28.6024 3.5 29.0024 3.5 29.3024V30.6024ZM20 32.2024L18.9 32.1024C18.6 32.1024 18.4 32.2024 18.4 32.5024L18.5 34.0024C18.5 34.2024 18.8 34.4024 19 34.4024L20.1 34.5024C20.4 34.5024 20.6 34.4024 20.6 34.1024L20.5 32.6024C20.5 32.4024 20.3 32.2024 20 32.2024ZM11 30.9024L10 30.7024C9.7 30.6024 9.5 30.8024 9.5 31.0024L9.6 32.6024C9.6 32.8024 9.8 33.0024 10.1 33.1024L11.1 33.3024C11.4 33.4024 11.6 33.2024 11.6 33.0024L11.5 31.4024C11.5 31.2024 11.3 31.0024 11 30.9024M60 30.8024C60 31.1024 60.2 31.3024 60.5 31.1024L61.5 30.6024C61.8 30.5024 62 30.1024 62 29.8024V28.5024C62 28.2024 61.8 28.0024 61.5 28.2024L60.5 28.7024C60.2 28.8024 60 29.2024 60 29.5024V30.8024ZM43.6 32.3024L44.7 32.2024C45 32.2024 45.2 32.3024 45.2 32.6024L45.1 34.1024C45.1 34.3024 44.8 34.5024 44.6 34.5024L43.5 34.6024C43.2 34.6024 43 34.5024 43 34.2024L43.1 32.7024C43 32.5024 43.3 32.4024 43.6 32.3024ZM52.6 31.1024L53.6 30.9024C53.9 30.9024 54.1 31.0024 54.1 31.2024L54 32.8024C54 33.0024 53.8 33.2024 53.5 33.3024L52.5 33.5024C52.2 33.6024 52 33.4024 52 33.2024L52.1 31.6024C52 31.3024 52.3 31.1024 52.6 31.1024" fill="#62727A"/>
<path d="M0 51.5V52.5H7L4 59.5H5L8 52.5H15L12 59.5H13L16 52.5H22.5L20 59.5H21L24 51.5H0ZM64 51.5V52.5H57L60 59.5H59L56 52.5H49L52 59.5H51L48 52.5H41.5L44 59.5H43L40 51.5H64Z" fill="#B2C1C0"/>
</g>
<defs>
<clipPath id="clip0_593_761">
<rect width="64" height="64" fill="white"/>
</clipPath>
</defs>
</svg>
