<svg width="32" height="32" viewBox="0 0 32 32" fill="none" xmlns="http://www.w3.org/2000/svg">
<path d="M19.0401 8.85938H13.6001V29.9994H19.0401V8.85938Z" fill="#6D4534"/>
<path d="M4.99999 8.16C4.44799 8.16 3.99099 7.71 4.07999 7.164C4.3172 5.7224 5.05868 4.4119 6.17222 3.46612C7.28576 2.52034 8.699 2.00076 10.16 2C13.56 2 16.32 4.75 16.32 8.16H4.99999ZM16.32 8.16H27.64C28.192 8.16 28.648 7.71 28.56 7.164C28.3243 5.72171 27.5832 4.41028 26.4694 3.46422C25.3555 2.51815 23.9414 1.99915 22.48 2C19.08 2 16.32 4.76 16.32 8.16Z" fill="#86D72F"/>
<path d="M15.6359 7.62568C16.0489 7.88868 16.5899 7.88868 17.0029 7.62568C18.1847 6.87355 19.5879 6.54743 20.9803 6.70127C22.3726 6.85511 23.6708 7.47969 24.6599 8.47168C25.6904 9.5061 26.3209 10.8723 26.4394 12.3277C26.5578 13.783 26.1566 15.2332 25.3069 16.4207C24.9849 16.8687 24.3429 16.8647 23.9529 16.4747L17.0269 9.54868C16.8394 9.36121 16.585 9.2559 16.3199 9.2559C16.0547 9.2559 15.8004 9.36121 15.6129 9.54868L8.68688 16.4747C8.29688 16.8647 7.65488 16.8687 7.33188 16.4207C6.47781 15.2348 6.07396 13.7835 6.19271 12.3269C6.31145 10.8703 6.94502 9.50359 7.97988 8.47168C8.9713 7.48399 10.2688 6.86236 11.6598 6.70865C13.0508 6.55495 14.4527 6.87828 15.6359 7.62568V7.62568Z" fill="#44911B"/>
<path d="M15.55 11.9334C15.55 12.5063 15.3224 13.0557 14.9173 13.4608C14.5123 13.8659 13.9628 14.0934 13.39 14.0934C12.8171 14.0934 12.2677 13.8659 11.8626 13.4608C11.4576 13.0557 11.23 12.5063 11.23 11.9334C11.23 11.3606 11.4576 10.8112 11.8626 10.4061C12.2677 10.001 12.8171 9.77344 13.39 9.77344C13.9628 9.77344 14.5123 10.001 14.9173 10.4061C15.3224 10.8112 15.55 11.3606 15.55 11.9334V11.9334ZM21.41 13.7034C21.41 14.2763 21.1824 14.8257 20.7773 15.2308C20.3723 15.6359 19.8228 15.8634 19.25 15.8634C18.6771 15.8634 18.1277 15.6359 17.7226 15.2308C17.3176 14.8257 17.09 14.2763 17.09 13.7034C17.09 13.1306 17.3176 12.5812 17.7226 12.1761C18.1277 11.771 18.6771 11.5434 19.25 11.5434C19.8228 11.5434 20.3723 11.771 20.7773 12.1761C21.1824 12.5812 21.41 13.1306 21.41 13.7034Z" fill="#D3883E"/>
</svg>
